G04 #@! TF.GenerationSoftware,KiCad,Pcbnew,(5.1.12)-1*
G04 #@! TF.CreationDate,2021-11-21T19:42:23+01:00*
G04 #@! TF.ProjectId,buffer,62756666-6572-42e6-9b69-6361645f7063,rev?*
G04 #@! TF.SameCoordinates,Original*
G04 #@! TF.FileFunction,Copper,L1,Top*
G04 #@! TF.FilePolarity,Positive*
%FSLAX46Y46*%
G04 Gerber Fmt 4.6, Leading zero omitted, Abs format (unit mm)*
G04 Created by KiCad (PCBNEW (5.1.12)-1) date 2021-11-21 19:42:23*
%MOMM*%
%LPD*%
G01*
G04 APERTURE LIST*
G04 #@! TA.AperFunction,ComponentPad*
%ADD10O,1.700000X1.700000*%
G04 #@! TD*
G04 #@! TA.AperFunction,ComponentPad*
%ADD11R,1.700000X1.700000*%
G04 #@! TD*
G04 #@! TA.AperFunction,ComponentPad*
%ADD12R,1.600000X1.600000*%
G04 #@! TD*
G04 #@! TA.AperFunction,ComponentPad*
%ADD13O,1.600000X1.600000*%
G04 #@! TD*
G04 #@! TA.AperFunction,ComponentPad*
%ADD14C,1.524000*%
G04 #@! TD*
G04 #@! TA.AperFunction,ViaPad*
%ADD15C,0.762000*%
G04 #@! TD*
G04 #@! TA.AperFunction,ViaPad*
%ADD16C,0.660400*%
G04 #@! TD*
G04 #@! TA.AperFunction,Conductor*
%ADD17C,0.381000*%
G04 #@! TD*
G04 #@! TA.AperFunction,Conductor*
%ADD18C,0.635000*%
G04 #@! TD*
G04 #@! TA.AperFunction,Conductor*
%ADD19C,0.254000*%
G04 #@! TD*
G04 #@! TA.AperFunction,Conductor*
%ADD20C,0.100000*%
G04 #@! TD*
G04 APERTURE END LIST*
D10*
X66617400Y-45730160D03*
X66617400Y-43190160D03*
X66617400Y-40650160D03*
D11*
X66617400Y-38110160D03*
D12*
X56178000Y-45679360D03*
D13*
X56178000Y-43139360D03*
X56178000Y-40599360D03*
X56178000Y-38059360D03*
X56178000Y-35519360D03*
D11*
X40353800Y-34376360D03*
D10*
X37813800Y-34376360D03*
X40353800Y-36916360D03*
X37813800Y-36916360D03*
X40353800Y-39456360D03*
X37813800Y-39456360D03*
X40353800Y-41996360D03*
X37813800Y-41996360D03*
X40353800Y-44536360D03*
X37813800Y-44536360D03*
X40353800Y-47076360D03*
X37813800Y-47076360D03*
D11*
X76040800Y-32801560D03*
G04 #@! TA.AperFunction,SMDPad,CuDef*
G36*
G01*
X42705200Y-34551760D02*
X42705200Y-34251760D01*
G75*
G02*
X42855200Y-34101760I150000J0D01*
G01*
X44605200Y-34101760D01*
G75*
G02*
X44755200Y-34251760I0J-150000D01*
G01*
X44755200Y-34551760D01*
G75*
G02*
X44605200Y-34701760I-150000J0D01*
G01*
X42855200Y-34701760D01*
G75*
G02*
X42705200Y-34551760I0J150000D01*
G01*
G37*
G04 #@! TD.AperFunction*
G04 #@! TA.AperFunction,SMDPad,CuDef*
G36*
G01*
X42705200Y-35821760D02*
X42705200Y-35521760D01*
G75*
G02*
X42855200Y-35371760I150000J0D01*
G01*
X44605200Y-35371760D01*
G75*
G02*
X44755200Y-35521760I0J-150000D01*
G01*
X44755200Y-35821760D01*
G75*
G02*
X44605200Y-35971760I-150000J0D01*
G01*
X42855200Y-35971760D01*
G75*
G02*
X42705200Y-35821760I0J150000D01*
G01*
G37*
G04 #@! TD.AperFunction*
G04 #@! TA.AperFunction,SMDPad,CuDef*
G36*
G01*
X42705200Y-37091760D02*
X42705200Y-36791760D01*
G75*
G02*
X42855200Y-36641760I150000J0D01*
G01*
X44605200Y-36641760D01*
G75*
G02*
X44755200Y-36791760I0J-150000D01*
G01*
X44755200Y-37091760D01*
G75*
G02*
X44605200Y-37241760I-150000J0D01*
G01*
X42855200Y-37241760D01*
G75*
G02*
X42705200Y-37091760I0J150000D01*
G01*
G37*
G04 #@! TD.AperFunction*
G04 #@! TA.AperFunction,SMDPad,CuDef*
G36*
G01*
X42705200Y-38361760D02*
X42705200Y-38061760D01*
G75*
G02*
X42855200Y-37911760I150000J0D01*
G01*
X44605200Y-37911760D01*
G75*
G02*
X44755200Y-38061760I0J-150000D01*
G01*
X44755200Y-38361760D01*
G75*
G02*
X44605200Y-38511760I-150000J0D01*
G01*
X42855200Y-38511760D01*
G75*
G02*
X42705200Y-38361760I0J150000D01*
G01*
G37*
G04 #@! TD.AperFunction*
G04 #@! TA.AperFunction,SMDPad,CuDef*
G36*
G01*
X42705200Y-39631760D02*
X42705200Y-39331760D01*
G75*
G02*
X42855200Y-39181760I150000J0D01*
G01*
X44605200Y-39181760D01*
G75*
G02*
X44755200Y-39331760I0J-150000D01*
G01*
X44755200Y-39631760D01*
G75*
G02*
X44605200Y-39781760I-150000J0D01*
G01*
X42855200Y-39781760D01*
G75*
G02*
X42705200Y-39631760I0J150000D01*
G01*
G37*
G04 #@! TD.AperFunction*
G04 #@! TA.AperFunction,SMDPad,CuDef*
G36*
G01*
X42705200Y-40901760D02*
X42705200Y-40601760D01*
G75*
G02*
X42855200Y-40451760I150000J0D01*
G01*
X44605200Y-40451760D01*
G75*
G02*
X44755200Y-40601760I0J-150000D01*
G01*
X44755200Y-40901760D01*
G75*
G02*
X44605200Y-41051760I-150000J0D01*
G01*
X42855200Y-41051760D01*
G75*
G02*
X42705200Y-40901760I0J150000D01*
G01*
G37*
G04 #@! TD.AperFunction*
G04 #@! TA.AperFunction,SMDPad,CuDef*
G36*
G01*
X42705200Y-42171760D02*
X42705200Y-41871760D01*
G75*
G02*
X42855200Y-41721760I150000J0D01*
G01*
X44605200Y-41721760D01*
G75*
G02*
X44755200Y-41871760I0J-150000D01*
G01*
X44755200Y-42171760D01*
G75*
G02*
X44605200Y-42321760I-150000J0D01*
G01*
X42855200Y-42321760D01*
G75*
G02*
X42705200Y-42171760I0J150000D01*
G01*
G37*
G04 #@! TD.AperFunction*
G04 #@! TA.AperFunction,SMDPad,CuDef*
G36*
G01*
X42705200Y-43441760D02*
X42705200Y-43141760D01*
G75*
G02*
X42855200Y-42991760I150000J0D01*
G01*
X44605200Y-42991760D01*
G75*
G02*
X44755200Y-43141760I0J-150000D01*
G01*
X44755200Y-43441760D01*
G75*
G02*
X44605200Y-43591760I-150000J0D01*
G01*
X42855200Y-43591760D01*
G75*
G02*
X42705200Y-43441760I0J150000D01*
G01*
G37*
G04 #@! TD.AperFunction*
G04 #@! TA.AperFunction,SMDPad,CuDef*
G36*
G01*
X42705200Y-44711760D02*
X42705200Y-44411760D01*
G75*
G02*
X42855200Y-44261760I150000J0D01*
G01*
X44605200Y-44261760D01*
G75*
G02*
X44755200Y-44411760I0J-150000D01*
G01*
X44755200Y-44711760D01*
G75*
G02*
X44605200Y-44861760I-150000J0D01*
G01*
X42855200Y-44861760D01*
G75*
G02*
X42705200Y-44711760I0J150000D01*
G01*
G37*
G04 #@! TD.AperFunction*
G04 #@! TA.AperFunction,SMDPad,CuDef*
G36*
G01*
X42705200Y-45981760D02*
X42705200Y-45681760D01*
G75*
G02*
X42855200Y-45531760I150000J0D01*
G01*
X44605200Y-45531760D01*
G75*
G02*
X44755200Y-45681760I0J-150000D01*
G01*
X44755200Y-45981760D01*
G75*
G02*
X44605200Y-46131760I-150000J0D01*
G01*
X42855200Y-46131760D01*
G75*
G02*
X42705200Y-45981760I0J150000D01*
G01*
G37*
G04 #@! TD.AperFunction*
G04 #@! TA.AperFunction,SMDPad,CuDef*
G36*
G01*
X52005200Y-45981760D02*
X52005200Y-45681760D01*
G75*
G02*
X52155200Y-45531760I150000J0D01*
G01*
X53905200Y-45531760D01*
G75*
G02*
X54055200Y-45681760I0J-150000D01*
G01*
X54055200Y-45981760D01*
G75*
G02*
X53905200Y-46131760I-150000J0D01*
G01*
X52155200Y-46131760D01*
G75*
G02*
X52005200Y-45981760I0J150000D01*
G01*
G37*
G04 #@! TD.AperFunction*
G04 #@! TA.AperFunction,SMDPad,CuDef*
G36*
G01*
X52005200Y-44711760D02*
X52005200Y-44411760D01*
G75*
G02*
X52155200Y-44261760I150000J0D01*
G01*
X53905200Y-44261760D01*
G75*
G02*
X54055200Y-44411760I0J-150000D01*
G01*
X54055200Y-44711760D01*
G75*
G02*
X53905200Y-44861760I-150000J0D01*
G01*
X52155200Y-44861760D01*
G75*
G02*
X52005200Y-44711760I0J150000D01*
G01*
G37*
G04 #@! TD.AperFunction*
G04 #@! TA.AperFunction,SMDPad,CuDef*
G36*
G01*
X52005200Y-43441760D02*
X52005200Y-43141760D01*
G75*
G02*
X52155200Y-42991760I150000J0D01*
G01*
X53905200Y-42991760D01*
G75*
G02*
X54055200Y-43141760I0J-150000D01*
G01*
X54055200Y-43441760D01*
G75*
G02*
X53905200Y-43591760I-150000J0D01*
G01*
X52155200Y-43591760D01*
G75*
G02*
X52005200Y-43441760I0J150000D01*
G01*
G37*
G04 #@! TD.AperFunction*
G04 #@! TA.AperFunction,SMDPad,CuDef*
G36*
G01*
X52005200Y-42171760D02*
X52005200Y-41871760D01*
G75*
G02*
X52155200Y-41721760I150000J0D01*
G01*
X53905200Y-41721760D01*
G75*
G02*
X54055200Y-41871760I0J-150000D01*
G01*
X54055200Y-42171760D01*
G75*
G02*
X53905200Y-42321760I-150000J0D01*
G01*
X52155200Y-42321760D01*
G75*
G02*
X52005200Y-42171760I0J150000D01*
G01*
G37*
G04 #@! TD.AperFunction*
G04 #@! TA.AperFunction,SMDPad,CuDef*
G36*
G01*
X52005200Y-40901760D02*
X52005200Y-40601760D01*
G75*
G02*
X52155200Y-40451760I150000J0D01*
G01*
X53905200Y-40451760D01*
G75*
G02*
X54055200Y-40601760I0J-150000D01*
G01*
X54055200Y-40901760D01*
G75*
G02*
X53905200Y-41051760I-150000J0D01*
G01*
X52155200Y-41051760D01*
G75*
G02*
X52005200Y-40901760I0J150000D01*
G01*
G37*
G04 #@! TD.AperFunction*
G04 #@! TA.AperFunction,SMDPad,CuDef*
G36*
G01*
X52005200Y-39631760D02*
X52005200Y-39331760D01*
G75*
G02*
X52155200Y-39181760I150000J0D01*
G01*
X53905200Y-39181760D01*
G75*
G02*
X54055200Y-39331760I0J-150000D01*
G01*
X54055200Y-39631760D01*
G75*
G02*
X53905200Y-39781760I-150000J0D01*
G01*
X52155200Y-39781760D01*
G75*
G02*
X52005200Y-39631760I0J150000D01*
G01*
G37*
G04 #@! TD.AperFunction*
G04 #@! TA.AperFunction,SMDPad,CuDef*
G36*
G01*
X52005200Y-38361760D02*
X52005200Y-38061760D01*
G75*
G02*
X52155200Y-37911760I150000J0D01*
G01*
X53905200Y-37911760D01*
G75*
G02*
X54055200Y-38061760I0J-150000D01*
G01*
X54055200Y-38361760D01*
G75*
G02*
X53905200Y-38511760I-150000J0D01*
G01*
X52155200Y-38511760D01*
G75*
G02*
X52005200Y-38361760I0J150000D01*
G01*
G37*
G04 #@! TD.AperFunction*
G04 #@! TA.AperFunction,SMDPad,CuDef*
G36*
G01*
X52005200Y-37091760D02*
X52005200Y-36791760D01*
G75*
G02*
X52155200Y-36641760I150000J0D01*
G01*
X53905200Y-36641760D01*
G75*
G02*
X54055200Y-36791760I0J-150000D01*
G01*
X54055200Y-37091760D01*
G75*
G02*
X53905200Y-37241760I-150000J0D01*
G01*
X52155200Y-37241760D01*
G75*
G02*
X52005200Y-37091760I0J150000D01*
G01*
G37*
G04 #@! TD.AperFunction*
G04 #@! TA.AperFunction,SMDPad,CuDef*
G36*
G01*
X52005200Y-35821760D02*
X52005200Y-35521760D01*
G75*
G02*
X52155200Y-35371760I150000J0D01*
G01*
X53905200Y-35371760D01*
G75*
G02*
X54055200Y-35521760I0J-150000D01*
G01*
X54055200Y-35821760D01*
G75*
G02*
X53905200Y-35971760I-150000J0D01*
G01*
X52155200Y-35971760D01*
G75*
G02*
X52005200Y-35821760I0J150000D01*
G01*
G37*
G04 #@! TD.AperFunction*
G04 #@! TA.AperFunction,SMDPad,CuDef*
G36*
G01*
X52005200Y-34551760D02*
X52005200Y-34251760D01*
G75*
G02*
X52155200Y-34101760I150000J0D01*
G01*
X53905200Y-34101760D01*
G75*
G02*
X54055200Y-34251760I0J-150000D01*
G01*
X54055200Y-34551760D01*
G75*
G02*
X53905200Y-34701760I-150000J0D01*
G01*
X52155200Y-34701760D01*
G75*
G02*
X52005200Y-34551760I0J150000D01*
G01*
G37*
G04 #@! TD.AperFunction*
D13*
X59022800Y-35519360D03*
X59022800Y-38059360D03*
X59022800Y-40599360D03*
X59022800Y-43139360D03*
D12*
X59022800Y-45679360D03*
G04 #@! TA.AperFunction,SMDPad,CuDef*
G36*
G01*
X58652000Y-32250959D02*
X58652000Y-33150961D01*
G75*
G02*
X58402001Y-33400960I-249999J0D01*
G01*
X57751999Y-33400960D01*
G75*
G02*
X57502000Y-33150961I0J249999D01*
G01*
X57502000Y-32250959D01*
G75*
G02*
X57751999Y-32000960I249999J0D01*
G01*
X58402001Y-32000960D01*
G75*
G02*
X58652000Y-32250959I0J-249999D01*
G01*
G37*
G04 #@! TD.AperFunction*
G04 #@! TA.AperFunction,SMDPad,CuDef*
G36*
G01*
X56602000Y-32250959D02*
X56602000Y-33150961D01*
G75*
G02*
X56352001Y-33400960I-249999J0D01*
G01*
X55701999Y-33400960D01*
G75*
G02*
X55452000Y-33150961I0J249999D01*
G01*
X55452000Y-32250959D01*
G75*
G02*
X55701999Y-32000960I249999J0D01*
G01*
X56352001Y-32000960D01*
G75*
G02*
X56602000Y-32250959I0J-249999D01*
G01*
G37*
G04 #@! TD.AperFunction*
D14*
X82086000Y-33842960D03*
X84626000Y-36382960D03*
X82086000Y-38922960D03*
X84626000Y-41462960D03*
X82086000Y-44002960D03*
X84626000Y-46542960D03*
X82086000Y-49082960D03*
X94786000Y-38922960D03*
X94786000Y-44002960D03*
X79546000Y-41462960D03*
D11*
X75990000Y-45780960D03*
D15*
X46507000Y-34395960D03*
X58712000Y-32700960D03*
D16*
X83356000Y-37398960D03*
X77260000Y-41208960D03*
X79546000Y-41462960D03*
D17*
X46507000Y-34395960D02*
X44672000Y-34395960D01*
X58077000Y-32700960D02*
X58712000Y-32700960D01*
X39109200Y-45831760D02*
X43730200Y-45831760D01*
X37813800Y-44536360D02*
X39109200Y-45831760D01*
X46807000Y-34395960D02*
X46507000Y-34395960D01*
X50330200Y-34395960D02*
X46807000Y-34395960D01*
X52667000Y-35665960D02*
X51600200Y-35665960D01*
X51600200Y-35665960D02*
X50330200Y-34395960D01*
X46507000Y-44079960D02*
X46507000Y-34395960D01*
X44755200Y-45831760D02*
X46507000Y-44079960D01*
X43730200Y-45831760D02*
X44755200Y-45831760D01*
X43704800Y-39456360D02*
X43730200Y-39481760D01*
X40353800Y-39456360D02*
X43704800Y-39456360D01*
X40373400Y-36935960D02*
X40353800Y-36916360D01*
X43704800Y-36916360D02*
X43730200Y-36941760D01*
X40353800Y-36916360D02*
X43704800Y-36916360D01*
D18*
X56027000Y-32700960D02*
X56027000Y-33500960D01*
X55142000Y-34385960D02*
X56027000Y-33500960D01*
X55352000Y-32700960D02*
X56027000Y-32700960D01*
X42562600Y-32700960D02*
X55352000Y-32700960D01*
X40353800Y-34376360D02*
X40887200Y-34376360D01*
X40887200Y-34376360D02*
X42562600Y-32700960D01*
X55126200Y-34401760D02*
X53028400Y-34401760D01*
X55142000Y-34385960D02*
X55126200Y-34401760D01*
D17*
X54019000Y-38211760D02*
X53030200Y-38211760D01*
X55429800Y-36800960D02*
X54019000Y-38211760D01*
X57741200Y-36800960D02*
X55429800Y-36800960D01*
X59022800Y-35519360D02*
X57741200Y-36800960D01*
X59022800Y-35519360D02*
X81324000Y-35519360D01*
X81324000Y-35519360D02*
X81476400Y-35519360D01*
X81476400Y-35519360D02*
X83356000Y-37398960D01*
X54120600Y-40751760D02*
X53030200Y-40751760D01*
X55521400Y-39350960D02*
X54120600Y-40751760D01*
X57731200Y-39350960D02*
X59022800Y-38059360D01*
X55521400Y-39350960D02*
X57731200Y-39350960D01*
X80029499Y-36866459D02*
X82086000Y-38922960D01*
X60215701Y-36866459D02*
X80029499Y-36866459D01*
X59022800Y-38059360D02*
X60215701Y-36866459D01*
X39110998Y-35671760D02*
X43730200Y-35671760D01*
X37813800Y-34376360D02*
X39110099Y-35672659D01*
X39110099Y-35672659D02*
X39110998Y-35671760D01*
X39109200Y-38211760D02*
X43730200Y-38211760D01*
X37813800Y-36916360D02*
X39109200Y-38211760D01*
X39109200Y-40751760D02*
X43730200Y-40751760D01*
X37813800Y-39456360D02*
X39109200Y-40751760D01*
X43704800Y-41996360D02*
X43730200Y-42021760D01*
X40353800Y-41996360D02*
X43704800Y-41996360D01*
X39109200Y-43291760D02*
X43730200Y-43291760D01*
X37813800Y-41996360D02*
X39109200Y-43291760D01*
X43704800Y-44536360D02*
X43730200Y-44561760D01*
X40353800Y-44536360D02*
X43704800Y-44536360D01*
X53942800Y-36941760D02*
X53030200Y-36941760D01*
X56178000Y-35519360D02*
X55365200Y-35519360D01*
X55365200Y-35519360D02*
X53942800Y-36941760D01*
X54044400Y-39481760D02*
X53030200Y-39481760D01*
X55445200Y-38080960D02*
X54044400Y-39481760D01*
X54095200Y-42021760D02*
X53030200Y-42021760D01*
X55496000Y-40620960D02*
X54095200Y-42021760D01*
X54069800Y-44561760D02*
X53030200Y-44561760D01*
X55470600Y-43160960D02*
X54069800Y-44561760D01*
X58554495Y-41893861D02*
X76575099Y-41893861D01*
X57308996Y-43139360D02*
X58554495Y-41893861D01*
X56178000Y-43139360D02*
X57308996Y-43139360D01*
X76575099Y-41893861D02*
X77260000Y-41208960D01*
X54120600Y-43291760D02*
X53030200Y-43291760D01*
X55511400Y-41900960D02*
X54120600Y-43291760D01*
X57721200Y-41900960D02*
X59022800Y-40599360D01*
X55511400Y-41900960D02*
X57721200Y-41900960D01*
X77489499Y-39406459D02*
X79546000Y-41462960D01*
X60215701Y-39406459D02*
X77489499Y-39406459D01*
X59022800Y-40599360D02*
X60215701Y-39406459D01*
X57711200Y-44450960D02*
X59022800Y-43139360D01*
X55120400Y-44450960D02*
X57711200Y-44450960D01*
X53030200Y-45831760D02*
X53739600Y-45831760D01*
X53739600Y-45831760D02*
X55120400Y-44450960D01*
X64966400Y-49082960D02*
X82086000Y-49082960D01*
X59022800Y-43139360D02*
X64966400Y-49082960D01*
D19*
X41885822Y-32024182D02*
X41855993Y-32060529D01*
X41028234Y-32888288D01*
X39503800Y-32888288D01*
X39379318Y-32900548D01*
X39259620Y-32936858D01*
X39149306Y-32995823D01*
X39052615Y-33075175D01*
X38973263Y-33171866D01*
X38914298Y-33282180D01*
X38892287Y-33354740D01*
X38760432Y-33222885D01*
X38517211Y-33060370D01*
X38246958Y-32948428D01*
X37960060Y-32891360D01*
X37667540Y-32891360D01*
X37380642Y-32948428D01*
X37110389Y-33060370D01*
X36867168Y-33222885D01*
X36660325Y-33429728D01*
X36497810Y-33672949D01*
X36385868Y-33943202D01*
X36328800Y-34230100D01*
X36328800Y-34522620D01*
X36385868Y-34809518D01*
X36497810Y-35079771D01*
X36660325Y-35322992D01*
X36867168Y-35529835D01*
X37041560Y-35646360D01*
X36867168Y-35762885D01*
X36660325Y-35969728D01*
X36497810Y-36212949D01*
X36385868Y-36483202D01*
X36328800Y-36770100D01*
X36328800Y-37062620D01*
X36385868Y-37349518D01*
X36497810Y-37619771D01*
X36660325Y-37862992D01*
X36867168Y-38069835D01*
X37041560Y-38186360D01*
X36867168Y-38302885D01*
X36660325Y-38509728D01*
X36497810Y-38752949D01*
X36385868Y-39023202D01*
X36328800Y-39310100D01*
X36328800Y-39602620D01*
X36385868Y-39889518D01*
X36497810Y-40159771D01*
X36660325Y-40402992D01*
X36867168Y-40609835D01*
X37041560Y-40726360D01*
X36867168Y-40842885D01*
X36660325Y-41049728D01*
X36497810Y-41292949D01*
X36385868Y-41563202D01*
X36328800Y-41850100D01*
X36328800Y-42142620D01*
X36385868Y-42429518D01*
X36497810Y-42699771D01*
X36660325Y-42942992D01*
X36867168Y-43149835D01*
X37110389Y-43312350D01*
X37380642Y-43424292D01*
X37667540Y-43481360D01*
X37960060Y-43481360D01*
X38102945Y-43452938D01*
X38496806Y-43846799D01*
X38522659Y-43878301D01*
X38556061Y-43905713D01*
X38648357Y-43981459D01*
X38681195Y-43999011D01*
X38791766Y-44058113D01*
X38927491Y-44099284D01*
X38925868Y-44103202D01*
X38868800Y-44390100D01*
X38868800Y-44682620D01*
X38925868Y-44969518D01*
X39037810Y-45239771D01*
X39200325Y-45482992D01*
X39407168Y-45689835D01*
X39581560Y-45806360D01*
X39407168Y-45922885D01*
X39200325Y-46129728D01*
X39083800Y-46304120D01*
X38967275Y-46129728D01*
X38760432Y-45922885D01*
X38517211Y-45760370D01*
X38246958Y-45648428D01*
X37960060Y-45591360D01*
X37667540Y-45591360D01*
X37380642Y-45648428D01*
X37110389Y-45760370D01*
X36867168Y-45922885D01*
X36660325Y-46129728D01*
X36497810Y-46372949D01*
X36385868Y-46643202D01*
X36328800Y-46930100D01*
X36328800Y-47222620D01*
X36385868Y-47509518D01*
X36497810Y-47779771D01*
X36660325Y-48022992D01*
X36867168Y-48229835D01*
X37110389Y-48392350D01*
X37380642Y-48504292D01*
X37667540Y-48561360D01*
X37960060Y-48561360D01*
X38246958Y-48504292D01*
X38517211Y-48392350D01*
X38760432Y-48229835D01*
X38967275Y-48022992D01*
X39083800Y-47848600D01*
X39200325Y-48022992D01*
X39407168Y-48229835D01*
X39650389Y-48392350D01*
X39920642Y-48504292D01*
X40207540Y-48561360D01*
X40500060Y-48561360D01*
X40786958Y-48504292D01*
X41057211Y-48392350D01*
X41300432Y-48229835D01*
X41507275Y-48022992D01*
X41669790Y-47779771D01*
X41781732Y-47509518D01*
X41838800Y-47222620D01*
X41838800Y-46930100D01*
X41781732Y-46643202D01*
X41669790Y-46372949D01*
X41508633Y-46131760D01*
X42067128Y-46131760D01*
X42079388Y-46256242D01*
X42115698Y-46375940D01*
X42174663Y-46486254D01*
X42254015Y-46582945D01*
X42350706Y-46662297D01*
X42461020Y-46721262D01*
X42580718Y-46757572D01*
X42705200Y-46769832D01*
X43444450Y-46766760D01*
X43603200Y-46608010D01*
X43603200Y-45958760D01*
X43857200Y-45958760D01*
X43857200Y-46608010D01*
X44015950Y-46766760D01*
X44755200Y-46769832D01*
X44879682Y-46757572D01*
X44999380Y-46721262D01*
X45109694Y-46662297D01*
X45206385Y-46582945D01*
X45285737Y-46486254D01*
X45344702Y-46375940D01*
X45381012Y-46256242D01*
X45393272Y-46131760D01*
X45390200Y-46117510D01*
X45231450Y-45958760D01*
X43857200Y-45958760D01*
X43603200Y-45958760D01*
X42228950Y-45958760D01*
X42070200Y-46117510D01*
X42067128Y-46131760D01*
X41508633Y-46131760D01*
X41507275Y-46129728D01*
X41300432Y-45922885D01*
X41126040Y-45806360D01*
X41300432Y-45689835D01*
X41507275Y-45482992D01*
X41588213Y-45361860D01*
X42093165Y-45361860D01*
X42079388Y-45407278D01*
X42067128Y-45531760D01*
X42070200Y-45546010D01*
X42228950Y-45704760D01*
X43603200Y-45704760D01*
X43603200Y-45684760D01*
X43857200Y-45684760D01*
X43857200Y-45704760D01*
X45231450Y-45704760D01*
X45390200Y-45546010D01*
X45393272Y-45531760D01*
X45381012Y-45407278D01*
X45344702Y-45287580D01*
X45285737Y-45177266D01*
X45261470Y-45147696D01*
X45333284Y-45013342D01*
X45378129Y-44865505D01*
X45393272Y-44711760D01*
X45393272Y-44411760D01*
X45378129Y-44258015D01*
X45333284Y-44110178D01*
X45260458Y-43973931D01*
X45221746Y-43926760D01*
X45260458Y-43879589D01*
X45333284Y-43743342D01*
X45378129Y-43595505D01*
X45393272Y-43441760D01*
X45393272Y-43141760D01*
X45378129Y-42988015D01*
X45333284Y-42840178D01*
X45260458Y-42703931D01*
X45221746Y-42656760D01*
X45260458Y-42609589D01*
X45333284Y-42473342D01*
X45378129Y-42325505D01*
X45393272Y-42171760D01*
X45393272Y-41871760D01*
X45378129Y-41718015D01*
X45333284Y-41570178D01*
X45260458Y-41433931D01*
X45221746Y-41386760D01*
X45260458Y-41339589D01*
X45333284Y-41203342D01*
X45378129Y-41055505D01*
X45393272Y-40901760D01*
X45393272Y-40601760D01*
X45378129Y-40448015D01*
X45333284Y-40300178D01*
X45260458Y-40163931D01*
X45221746Y-40116760D01*
X45260458Y-40069589D01*
X45333284Y-39933342D01*
X45378129Y-39785505D01*
X45393272Y-39631760D01*
X45393272Y-39331760D01*
X45378129Y-39178015D01*
X45333284Y-39030178D01*
X45260458Y-38893931D01*
X45221746Y-38846760D01*
X45260458Y-38799589D01*
X45333284Y-38663342D01*
X45378129Y-38515505D01*
X45393272Y-38361760D01*
X45393272Y-38061760D01*
X45378129Y-37908015D01*
X45333284Y-37760178D01*
X45260458Y-37623931D01*
X45221746Y-37576760D01*
X45260458Y-37529589D01*
X45333284Y-37393342D01*
X45378129Y-37245505D01*
X45393272Y-37091760D01*
X45393272Y-36791760D01*
X45378129Y-36638015D01*
X45333284Y-36490178D01*
X45260458Y-36353931D01*
X45221746Y-36306760D01*
X45260458Y-36259589D01*
X45333284Y-36123342D01*
X45378129Y-35975505D01*
X45393272Y-35821760D01*
X45393272Y-35521760D01*
X45378129Y-35368015D01*
X45333284Y-35220178D01*
X45261470Y-35085824D01*
X45285737Y-35056254D01*
X45344702Y-34945940D01*
X45381012Y-34826242D01*
X45393272Y-34701760D01*
X45390200Y-34687510D01*
X45231450Y-34528760D01*
X43857200Y-34528760D01*
X43857200Y-34548760D01*
X43603200Y-34548760D01*
X43603200Y-34528760D01*
X43583200Y-34528760D01*
X43583200Y-34274760D01*
X43603200Y-34274760D01*
X43603200Y-34254760D01*
X43857200Y-34254760D01*
X43857200Y-34274760D01*
X45231450Y-34274760D01*
X45390200Y-34116010D01*
X45393272Y-34101760D01*
X45381012Y-33977278D01*
X45344702Y-33857580D01*
X45285737Y-33747266D01*
X45208753Y-33653460D01*
X51647967Y-33653460D01*
X51597949Y-33694509D01*
X51499942Y-33813931D01*
X51427116Y-33950178D01*
X51382271Y-34098015D01*
X51367128Y-34251760D01*
X51367128Y-34551760D01*
X51382271Y-34705505D01*
X51427116Y-34853342D01*
X51498930Y-34987696D01*
X51474663Y-35017266D01*
X51415698Y-35127580D01*
X51379388Y-35247278D01*
X51367128Y-35371760D01*
X51370200Y-35386010D01*
X51528950Y-35544760D01*
X52903200Y-35544760D01*
X52903200Y-35524760D01*
X53157200Y-35524760D01*
X53157200Y-35544760D01*
X53177200Y-35544760D01*
X53177200Y-35798760D01*
X53157200Y-35798760D01*
X53157200Y-35818760D01*
X52903200Y-35818760D01*
X52903200Y-35798760D01*
X51528950Y-35798760D01*
X51370200Y-35957510D01*
X51367128Y-35971760D01*
X51379388Y-36096242D01*
X51415698Y-36215940D01*
X51474663Y-36326254D01*
X51498930Y-36355824D01*
X51427116Y-36490178D01*
X51382271Y-36638015D01*
X51367128Y-36791760D01*
X51367128Y-37091760D01*
X51382271Y-37245505D01*
X51427116Y-37393342D01*
X51499942Y-37529589D01*
X51538654Y-37576760D01*
X51499942Y-37623931D01*
X51427116Y-37760178D01*
X51382271Y-37908015D01*
X51367128Y-38061760D01*
X51367128Y-38361760D01*
X51382271Y-38515505D01*
X51427116Y-38663342D01*
X51499942Y-38799589D01*
X51538654Y-38846760D01*
X51499942Y-38893931D01*
X51427116Y-39030178D01*
X51382271Y-39178015D01*
X51367128Y-39331760D01*
X51367128Y-39631760D01*
X51382271Y-39785505D01*
X51427116Y-39933342D01*
X51499942Y-40069589D01*
X51538654Y-40116760D01*
X51499942Y-40163931D01*
X51427116Y-40300178D01*
X51382271Y-40448015D01*
X51367128Y-40601760D01*
X51367128Y-40901760D01*
X51382271Y-41055505D01*
X51427116Y-41203342D01*
X51499942Y-41339589D01*
X51538654Y-41386760D01*
X51499942Y-41433931D01*
X51427116Y-41570178D01*
X51382271Y-41718015D01*
X51367128Y-41871760D01*
X51367128Y-42171760D01*
X51382271Y-42325505D01*
X51427116Y-42473342D01*
X51499942Y-42609589D01*
X51538654Y-42656760D01*
X51499942Y-42703931D01*
X51427116Y-42840178D01*
X51382271Y-42988015D01*
X51367128Y-43141760D01*
X51367128Y-43441760D01*
X51382271Y-43595505D01*
X51427116Y-43743342D01*
X51499942Y-43879589D01*
X51538654Y-43926760D01*
X51499942Y-43973931D01*
X51427116Y-44110178D01*
X51382271Y-44258015D01*
X51367128Y-44411760D01*
X51367128Y-44711760D01*
X51382271Y-44865505D01*
X51427116Y-45013342D01*
X51499942Y-45149589D01*
X51538654Y-45196760D01*
X51499942Y-45243931D01*
X51427116Y-45380178D01*
X51382271Y-45528015D01*
X51367128Y-45681760D01*
X51367128Y-45981760D01*
X51382271Y-46135505D01*
X51427116Y-46283342D01*
X51499942Y-46419589D01*
X51597949Y-46539011D01*
X51717371Y-46637018D01*
X51853618Y-46709844D01*
X52001455Y-46754689D01*
X52155200Y-46769832D01*
X53905200Y-46769832D01*
X54058945Y-46754689D01*
X54206782Y-46709844D01*
X54343029Y-46637018D01*
X54462451Y-46539011D01*
X54560458Y-46419589D01*
X54633284Y-46283342D01*
X54678129Y-46135505D01*
X54686306Y-46052486D01*
X54742816Y-45995977D01*
X54739928Y-46479360D01*
X54752188Y-46603842D01*
X54788498Y-46723540D01*
X54847463Y-46833854D01*
X54926815Y-46930545D01*
X55023506Y-47009897D01*
X55133820Y-47068862D01*
X55253518Y-47105172D01*
X55378000Y-47117432D01*
X55892250Y-47114360D01*
X56051000Y-46955610D01*
X56051000Y-45806360D01*
X56305000Y-45806360D01*
X56305000Y-46955610D01*
X56463750Y-47114360D01*
X56978000Y-47117432D01*
X57102482Y-47105172D01*
X57222180Y-47068862D01*
X57332494Y-47009897D01*
X57429185Y-46930545D01*
X57508537Y-46833854D01*
X57567502Y-46723540D01*
X57600400Y-46615090D01*
X57633298Y-46723540D01*
X57692263Y-46833854D01*
X57771615Y-46930545D01*
X57868306Y-47009897D01*
X57978620Y-47068862D01*
X58098318Y-47105172D01*
X58222800Y-47117432D01*
X58737050Y-47114360D01*
X58895800Y-46955610D01*
X58895800Y-45806360D01*
X57746550Y-45806360D01*
X57600400Y-45952510D01*
X57454250Y-45806360D01*
X56305000Y-45806360D01*
X56051000Y-45806360D01*
X56031000Y-45806360D01*
X56031000Y-45552360D01*
X56051000Y-45552360D01*
X56051000Y-45532360D01*
X56305000Y-45532360D01*
X56305000Y-45552360D01*
X57454250Y-45552360D01*
X57600400Y-45406210D01*
X57746550Y-45552360D01*
X58895800Y-45552360D01*
X58895800Y-45532360D01*
X59149800Y-45532360D01*
X59149800Y-45552360D01*
X59169800Y-45552360D01*
X59169800Y-45806360D01*
X59149800Y-45806360D01*
X59149800Y-46955610D01*
X59308550Y-47114360D01*
X59822800Y-47117432D01*
X59947282Y-47105172D01*
X60066980Y-47068862D01*
X60177294Y-47009897D01*
X60273985Y-46930545D01*
X60353337Y-46833854D01*
X60412302Y-46723540D01*
X60448612Y-46603842D01*
X60460872Y-46479360D01*
X60457800Y-45965110D01*
X60299052Y-45806362D01*
X60457800Y-45806362D01*
X60457800Y-45741793D01*
X64354011Y-49638005D01*
X64379859Y-49669501D01*
X64411355Y-49695349D01*
X64411358Y-49695352D01*
X64505557Y-49772659D01*
X64648966Y-49849313D01*
X64804574Y-49896516D01*
X64925847Y-49908460D01*
X64925849Y-49908460D01*
X64966400Y-49912454D01*
X65006950Y-49908460D01*
X80957425Y-49908460D01*
X81000880Y-49973495D01*
X81195465Y-50168080D01*
X81424273Y-50320965D01*
X81678510Y-50426274D01*
X81948408Y-50479960D01*
X82223592Y-50479960D01*
X82493490Y-50426274D01*
X82747727Y-50320965D01*
X82976535Y-50168080D01*
X83171120Y-49973495D01*
X83324005Y-49744687D01*
X83429314Y-49490450D01*
X83483000Y-49220552D01*
X83483000Y-48945368D01*
X83429314Y-48675470D01*
X83324005Y-48421233D01*
X83171120Y-48192425D01*
X82976535Y-47997840D01*
X82747727Y-47844955D01*
X82493490Y-47739646D01*
X82223592Y-47685960D01*
X81948408Y-47685960D01*
X81678510Y-47739646D01*
X81424273Y-47844955D01*
X81195465Y-47997840D01*
X81000880Y-48192425D01*
X80957425Y-48257460D01*
X65308334Y-48257460D01*
X60436856Y-43385984D01*
X60457800Y-43280695D01*
X60457800Y-42998025D01*
X60402653Y-42720786D01*
X60402063Y-42719361D01*
X65205059Y-42719361D01*
X65189468Y-42757002D01*
X65132400Y-43043900D01*
X65132400Y-43336420D01*
X65189468Y-43623318D01*
X65301410Y-43893571D01*
X65463925Y-44136792D01*
X65670768Y-44343635D01*
X65845160Y-44460160D01*
X65670768Y-44576685D01*
X65463925Y-44783528D01*
X65301410Y-45026749D01*
X65189468Y-45297002D01*
X65132400Y-45583900D01*
X65132400Y-45876420D01*
X65189468Y-46163318D01*
X65301410Y-46433571D01*
X65463925Y-46676792D01*
X65670768Y-46883635D01*
X65913989Y-47046150D01*
X66184242Y-47158092D01*
X66471140Y-47215160D01*
X66763660Y-47215160D01*
X67050558Y-47158092D01*
X67320811Y-47046150D01*
X67564032Y-46883635D01*
X67770875Y-46676792D01*
X67933390Y-46433571D01*
X68045332Y-46163318D01*
X68102400Y-45876420D01*
X68102400Y-45583900D01*
X68045332Y-45297002D01*
X67933390Y-45026749D01*
X67869386Y-44930960D01*
X74501928Y-44930960D01*
X74501928Y-46630960D01*
X74514188Y-46755442D01*
X74550498Y-46875140D01*
X74609463Y-46985454D01*
X74688815Y-47082145D01*
X74785506Y-47161497D01*
X74895820Y-47220462D01*
X75015518Y-47256772D01*
X75140000Y-47269032D01*
X76840000Y-47269032D01*
X76964482Y-47256772D01*
X77084180Y-47220462D01*
X77194494Y-47161497D01*
X77291185Y-47082145D01*
X77370537Y-46985454D01*
X77429502Y-46875140D01*
X77465812Y-46755442D01*
X77478072Y-46630960D01*
X77478072Y-46405368D01*
X83229000Y-46405368D01*
X83229000Y-46680552D01*
X83282686Y-46950450D01*
X83387995Y-47204687D01*
X83540880Y-47433495D01*
X83735465Y-47628080D01*
X83964273Y-47780965D01*
X84218510Y-47886274D01*
X84488408Y-47939960D01*
X84763592Y-47939960D01*
X85033490Y-47886274D01*
X85287727Y-47780965D01*
X85516535Y-47628080D01*
X85711120Y-47433495D01*
X85864005Y-47204687D01*
X85969314Y-46950450D01*
X86023000Y-46680552D01*
X86023000Y-46405368D01*
X85969314Y-46135470D01*
X85864005Y-45881233D01*
X85711120Y-45652425D01*
X85516535Y-45457840D01*
X85287727Y-45304955D01*
X85033490Y-45199646D01*
X84763592Y-45145960D01*
X84488408Y-45145960D01*
X84218510Y-45199646D01*
X83964273Y-45304955D01*
X83735465Y-45457840D01*
X83540880Y-45652425D01*
X83387995Y-45881233D01*
X83282686Y-46135470D01*
X83229000Y-46405368D01*
X77478072Y-46405368D01*
X77478072Y-44930960D01*
X77465812Y-44806478D01*
X77429502Y-44686780D01*
X77370537Y-44576466D01*
X77291185Y-44479775D01*
X77194494Y-44400423D01*
X77084180Y-44341458D01*
X76964482Y-44305148D01*
X76840000Y-44292888D01*
X75140000Y-44292888D01*
X75015518Y-44305148D01*
X74895820Y-44341458D01*
X74785506Y-44400423D01*
X74688815Y-44479775D01*
X74609463Y-44576466D01*
X74550498Y-44686780D01*
X74514188Y-44806478D01*
X74501928Y-44930960D01*
X67869386Y-44930960D01*
X67770875Y-44783528D01*
X67564032Y-44576685D01*
X67389640Y-44460160D01*
X67564032Y-44343635D01*
X67770875Y-44136792D01*
X67933390Y-43893571D01*
X67945072Y-43865368D01*
X80689000Y-43865368D01*
X80689000Y-44140552D01*
X80742686Y-44410450D01*
X80847995Y-44664687D01*
X81000880Y-44893495D01*
X81195465Y-45088080D01*
X81424273Y-45240965D01*
X81678510Y-45346274D01*
X81948408Y-45399960D01*
X82223592Y-45399960D01*
X82493490Y-45346274D01*
X82747727Y-45240965D01*
X82976535Y-45088080D01*
X83171120Y-44893495D01*
X83324005Y-44664687D01*
X83429314Y-44410450D01*
X83483000Y-44140552D01*
X83483000Y-43865368D01*
X93389000Y-43865368D01*
X93389000Y-44140552D01*
X93442686Y-44410450D01*
X93547995Y-44664687D01*
X93700880Y-44893495D01*
X93895465Y-45088080D01*
X94124273Y-45240965D01*
X94378510Y-45346274D01*
X94648408Y-45399960D01*
X94923592Y-45399960D01*
X95193490Y-45346274D01*
X95447727Y-45240965D01*
X95676535Y-45088080D01*
X95871120Y-44893495D01*
X96024005Y-44664687D01*
X96129314Y-44410450D01*
X96183000Y-44140552D01*
X96183000Y-43865368D01*
X96129314Y-43595470D01*
X96024005Y-43341233D01*
X95871120Y-43112425D01*
X95676535Y-42917840D01*
X95447727Y-42764955D01*
X95193490Y-42659646D01*
X94923592Y-42605960D01*
X94648408Y-42605960D01*
X94378510Y-42659646D01*
X94124273Y-42764955D01*
X93895465Y-42917840D01*
X93700880Y-43112425D01*
X93547995Y-43341233D01*
X93442686Y-43595470D01*
X93389000Y-43865368D01*
X83483000Y-43865368D01*
X83429314Y-43595470D01*
X83324005Y-43341233D01*
X83171120Y-43112425D01*
X82976535Y-42917840D01*
X82747727Y-42764955D01*
X82493490Y-42659646D01*
X82223592Y-42605960D01*
X81948408Y-42605960D01*
X81678510Y-42659646D01*
X81424273Y-42764955D01*
X81195465Y-42917840D01*
X81000880Y-43112425D01*
X80847995Y-43341233D01*
X80742686Y-43595470D01*
X80689000Y-43865368D01*
X67945072Y-43865368D01*
X68045332Y-43623318D01*
X68102400Y-43336420D01*
X68102400Y-43043900D01*
X68045332Y-42757002D01*
X68029741Y-42719361D01*
X76534549Y-42719361D01*
X76575099Y-42723355D01*
X76615649Y-42719361D01*
X76615652Y-42719361D01*
X76736925Y-42707417D01*
X76892533Y-42660214D01*
X77035941Y-42583560D01*
X77161640Y-42480402D01*
X77187497Y-42448895D01*
X77488843Y-42147550D01*
X77541538Y-42137068D01*
X77717194Y-42064309D01*
X77875279Y-41958680D01*
X78009720Y-41824239D01*
X78115349Y-41666154D01*
X78149000Y-41584913D01*
X78149000Y-41600552D01*
X78202686Y-41870450D01*
X78307995Y-42124687D01*
X78460880Y-42353495D01*
X78655465Y-42548080D01*
X78884273Y-42700965D01*
X79138510Y-42806274D01*
X79408408Y-42859960D01*
X79683592Y-42859960D01*
X79953490Y-42806274D01*
X80207727Y-42700965D01*
X80436535Y-42548080D01*
X80556090Y-42428525D01*
X83840040Y-42428525D01*
X83907020Y-42668616D01*
X84156048Y-42785716D01*
X84423135Y-42851983D01*
X84698017Y-42864870D01*
X84970133Y-42823882D01*
X85229023Y-42730596D01*
X85344980Y-42668616D01*
X85411960Y-42428525D01*
X84626000Y-41642565D01*
X83840040Y-42428525D01*
X80556090Y-42428525D01*
X80631120Y-42353495D01*
X80784005Y-42124687D01*
X80889314Y-41870450D01*
X80943000Y-41600552D01*
X80943000Y-41534977D01*
X83224090Y-41534977D01*
X83265078Y-41807093D01*
X83358364Y-42065983D01*
X83420344Y-42181940D01*
X83660435Y-42248920D01*
X84446395Y-41462960D01*
X84805605Y-41462960D01*
X85591565Y-42248920D01*
X85831656Y-42181940D01*
X85948756Y-41932912D01*
X86015023Y-41665825D01*
X86027910Y-41390943D01*
X85986922Y-41118827D01*
X85893636Y-40859937D01*
X85831656Y-40743980D01*
X85591565Y-40677000D01*
X84805605Y-41462960D01*
X84446395Y-41462960D01*
X83660435Y-40677000D01*
X83420344Y-40743980D01*
X83303244Y-40993008D01*
X83236977Y-41260095D01*
X83224090Y-41534977D01*
X80943000Y-41534977D01*
X80943000Y-41325368D01*
X80889314Y-41055470D01*
X80784005Y-40801233D01*
X80631120Y-40572425D01*
X80556090Y-40497395D01*
X83840040Y-40497395D01*
X84626000Y-41283355D01*
X85411960Y-40497395D01*
X85344980Y-40257304D01*
X85095952Y-40140204D01*
X84828865Y-40073937D01*
X84553983Y-40061050D01*
X84281867Y-40102038D01*
X84022977Y-40195324D01*
X83907020Y-40257304D01*
X83840040Y-40497395D01*
X80556090Y-40497395D01*
X80436535Y-40377840D01*
X80207727Y-40224955D01*
X79953490Y-40119646D01*
X79683592Y-40065960D01*
X79408408Y-40065960D01*
X79331693Y-40081220D01*
X78101897Y-38851425D01*
X78076040Y-38819918D01*
X77950341Y-38716760D01*
X77806933Y-38640106D01*
X77651325Y-38592903D01*
X77530052Y-38580959D01*
X77530049Y-38580959D01*
X77489499Y-38576965D01*
X77448949Y-38580959D01*
X68105472Y-38580959D01*
X68105472Y-37691959D01*
X79687567Y-37691959D01*
X80704260Y-38708653D01*
X80689000Y-38785368D01*
X80689000Y-39060552D01*
X80742686Y-39330450D01*
X80847995Y-39584687D01*
X81000880Y-39813495D01*
X81195465Y-40008080D01*
X81424273Y-40160965D01*
X81678510Y-40266274D01*
X81948408Y-40319960D01*
X82223592Y-40319960D01*
X82493490Y-40266274D01*
X82747727Y-40160965D01*
X82976535Y-40008080D01*
X83171120Y-39813495D01*
X83324005Y-39584687D01*
X83429314Y-39330450D01*
X83483000Y-39060552D01*
X83483000Y-38785368D01*
X93389000Y-38785368D01*
X93389000Y-39060552D01*
X93442686Y-39330450D01*
X93547995Y-39584687D01*
X93700880Y-39813495D01*
X93895465Y-40008080D01*
X94124273Y-40160965D01*
X94378510Y-40266274D01*
X94648408Y-40319960D01*
X94923592Y-40319960D01*
X95193490Y-40266274D01*
X95447727Y-40160965D01*
X95676535Y-40008080D01*
X95871120Y-39813495D01*
X96024005Y-39584687D01*
X96129314Y-39330450D01*
X96183000Y-39060552D01*
X96183000Y-38785368D01*
X96129314Y-38515470D01*
X96024005Y-38261233D01*
X95871120Y-38032425D01*
X95676535Y-37837840D01*
X95447727Y-37684955D01*
X95193490Y-37579646D01*
X94923592Y-37525960D01*
X94648408Y-37525960D01*
X94378510Y-37579646D01*
X94124273Y-37684955D01*
X93895465Y-37837840D01*
X93700880Y-38032425D01*
X93547995Y-38261233D01*
X93442686Y-38515470D01*
X93389000Y-38785368D01*
X83483000Y-38785368D01*
X83429314Y-38515470D01*
X83366639Y-38364160D01*
X83451064Y-38364160D01*
X83637538Y-38327068D01*
X83813194Y-38254309D01*
X83971279Y-38148680D01*
X84105720Y-38014239D01*
X84211349Y-37856154D01*
X84261597Y-37734845D01*
X84488408Y-37779960D01*
X84763592Y-37779960D01*
X85033490Y-37726274D01*
X85287727Y-37620965D01*
X85516535Y-37468080D01*
X85711120Y-37273495D01*
X85864005Y-37044687D01*
X85969314Y-36790450D01*
X86023000Y-36520552D01*
X86023000Y-36245368D01*
X85969314Y-35975470D01*
X85864005Y-35721233D01*
X85711120Y-35492425D01*
X85516535Y-35297840D01*
X85287727Y-35144955D01*
X85033490Y-35039646D01*
X84763592Y-34985960D01*
X84488408Y-34985960D01*
X84218510Y-35039646D01*
X83964273Y-35144955D01*
X83735465Y-35297840D01*
X83540880Y-35492425D01*
X83387995Y-35721233D01*
X83282686Y-35975470D01*
X83252367Y-36127894D01*
X82341065Y-35216593D01*
X82493490Y-35186274D01*
X82747727Y-35080965D01*
X82976535Y-34928080D01*
X83171120Y-34733495D01*
X83324005Y-34504687D01*
X83429314Y-34250450D01*
X83483000Y-33980552D01*
X83483000Y-33705368D01*
X83429314Y-33435470D01*
X83324005Y-33181233D01*
X83171120Y-32952425D01*
X82976535Y-32757840D01*
X82747727Y-32604955D01*
X82493490Y-32499646D01*
X82223592Y-32445960D01*
X81948408Y-32445960D01*
X81678510Y-32499646D01*
X81424273Y-32604955D01*
X81195465Y-32757840D01*
X81000880Y-32952425D01*
X80847995Y-33181233D01*
X80742686Y-33435470D01*
X80689000Y-33705368D01*
X80689000Y-33980552D01*
X80742686Y-34250450D01*
X80847995Y-34504687D01*
X80974397Y-34693860D01*
X60197078Y-34693860D01*
X60137437Y-34604601D01*
X59937559Y-34404723D01*
X59741858Y-34273960D01*
X72120953Y-34273960D01*
X72154600Y-34277274D01*
X72188247Y-34273960D01*
X72288883Y-34264048D01*
X72418006Y-34224879D01*
X72537007Y-34161272D01*
X72641311Y-34075671D01*
X72726912Y-33971367D01*
X72790519Y-33852366D01*
X72829688Y-33723243D01*
X72842914Y-33588960D01*
X72839600Y-33555313D01*
X72839600Y-32013360D01*
X74552728Y-32013360D01*
X74552728Y-33651560D01*
X74564988Y-33776042D01*
X74601298Y-33895740D01*
X74660263Y-34006054D01*
X74739615Y-34102745D01*
X74836306Y-34182097D01*
X74946620Y-34241062D01*
X75066318Y-34277372D01*
X75190800Y-34289632D01*
X76890800Y-34289632D01*
X77015282Y-34277372D01*
X77134980Y-34241062D01*
X77245294Y-34182097D01*
X77341985Y-34102745D01*
X77421337Y-34006054D01*
X77480302Y-33895740D01*
X77516612Y-33776042D01*
X77528872Y-33651560D01*
X77528872Y-32013308D01*
X96641001Y-31988837D01*
X96641000Y-53731960D01*
X28211800Y-53731960D01*
X28211800Y-31987960D01*
X41929959Y-31987960D01*
X41885822Y-32024182D01*
G04 #@! TA.AperFunction,Conductor*
D20*
G36*
X41885822Y-32024182D02*
G01*
X41855993Y-32060529D01*
X41028234Y-32888288D01*
X39503800Y-32888288D01*
X39379318Y-32900548D01*
X39259620Y-32936858D01*
X39149306Y-32995823D01*
X39052615Y-33075175D01*
X38973263Y-33171866D01*
X38914298Y-33282180D01*
X38892287Y-33354740D01*
X38760432Y-33222885D01*
X38517211Y-33060370D01*
X38246958Y-32948428D01*
X37960060Y-32891360D01*
X37667540Y-32891360D01*
X37380642Y-32948428D01*
X37110389Y-33060370D01*
X36867168Y-33222885D01*
X36660325Y-33429728D01*
X36497810Y-33672949D01*
X36385868Y-33943202D01*
X36328800Y-34230100D01*
X36328800Y-34522620D01*
X36385868Y-34809518D01*
X36497810Y-35079771D01*
X36660325Y-35322992D01*
X36867168Y-35529835D01*
X37041560Y-35646360D01*
X36867168Y-35762885D01*
X36660325Y-35969728D01*
X36497810Y-36212949D01*
X36385868Y-36483202D01*
X36328800Y-36770100D01*
X36328800Y-37062620D01*
X36385868Y-37349518D01*
X36497810Y-37619771D01*
X36660325Y-37862992D01*
X36867168Y-38069835D01*
X37041560Y-38186360D01*
X36867168Y-38302885D01*
X36660325Y-38509728D01*
X36497810Y-38752949D01*
X36385868Y-39023202D01*
X36328800Y-39310100D01*
X36328800Y-39602620D01*
X36385868Y-39889518D01*
X36497810Y-40159771D01*
X36660325Y-40402992D01*
X36867168Y-40609835D01*
X37041560Y-40726360D01*
X36867168Y-40842885D01*
X36660325Y-41049728D01*
X36497810Y-41292949D01*
X36385868Y-41563202D01*
X36328800Y-41850100D01*
X36328800Y-42142620D01*
X36385868Y-42429518D01*
X36497810Y-42699771D01*
X36660325Y-42942992D01*
X36867168Y-43149835D01*
X37110389Y-43312350D01*
X37380642Y-43424292D01*
X37667540Y-43481360D01*
X37960060Y-43481360D01*
X38102945Y-43452938D01*
X38496806Y-43846799D01*
X38522659Y-43878301D01*
X38556061Y-43905713D01*
X38648357Y-43981459D01*
X38681195Y-43999011D01*
X38791766Y-44058113D01*
X38927491Y-44099284D01*
X38925868Y-44103202D01*
X38868800Y-44390100D01*
X38868800Y-44682620D01*
X38925868Y-44969518D01*
X39037810Y-45239771D01*
X39200325Y-45482992D01*
X39407168Y-45689835D01*
X39581560Y-45806360D01*
X39407168Y-45922885D01*
X39200325Y-46129728D01*
X39083800Y-46304120D01*
X38967275Y-46129728D01*
X38760432Y-45922885D01*
X38517211Y-45760370D01*
X38246958Y-45648428D01*
X37960060Y-45591360D01*
X37667540Y-45591360D01*
X37380642Y-45648428D01*
X37110389Y-45760370D01*
X36867168Y-45922885D01*
X36660325Y-46129728D01*
X36497810Y-46372949D01*
X36385868Y-46643202D01*
X36328800Y-46930100D01*
X36328800Y-47222620D01*
X36385868Y-47509518D01*
X36497810Y-47779771D01*
X36660325Y-48022992D01*
X36867168Y-48229835D01*
X37110389Y-48392350D01*
X37380642Y-48504292D01*
X37667540Y-48561360D01*
X37960060Y-48561360D01*
X38246958Y-48504292D01*
X38517211Y-48392350D01*
X38760432Y-48229835D01*
X38967275Y-48022992D01*
X39083800Y-47848600D01*
X39200325Y-48022992D01*
X39407168Y-48229835D01*
X39650389Y-48392350D01*
X39920642Y-48504292D01*
X40207540Y-48561360D01*
X40500060Y-48561360D01*
X40786958Y-48504292D01*
X41057211Y-48392350D01*
X41300432Y-48229835D01*
X41507275Y-48022992D01*
X41669790Y-47779771D01*
X41781732Y-47509518D01*
X41838800Y-47222620D01*
X41838800Y-46930100D01*
X41781732Y-46643202D01*
X41669790Y-46372949D01*
X41508633Y-46131760D01*
X42067128Y-46131760D01*
X42079388Y-46256242D01*
X42115698Y-46375940D01*
X42174663Y-46486254D01*
X42254015Y-46582945D01*
X42350706Y-46662297D01*
X42461020Y-46721262D01*
X42580718Y-46757572D01*
X42705200Y-46769832D01*
X43444450Y-46766760D01*
X43603200Y-46608010D01*
X43603200Y-45958760D01*
X43857200Y-45958760D01*
X43857200Y-46608010D01*
X44015950Y-46766760D01*
X44755200Y-46769832D01*
X44879682Y-46757572D01*
X44999380Y-46721262D01*
X45109694Y-46662297D01*
X45206385Y-46582945D01*
X45285737Y-46486254D01*
X45344702Y-46375940D01*
X45381012Y-46256242D01*
X45393272Y-46131760D01*
X45390200Y-46117510D01*
X45231450Y-45958760D01*
X43857200Y-45958760D01*
X43603200Y-45958760D01*
X42228950Y-45958760D01*
X42070200Y-46117510D01*
X42067128Y-46131760D01*
X41508633Y-46131760D01*
X41507275Y-46129728D01*
X41300432Y-45922885D01*
X41126040Y-45806360D01*
X41300432Y-45689835D01*
X41507275Y-45482992D01*
X41588213Y-45361860D01*
X42093165Y-45361860D01*
X42079388Y-45407278D01*
X42067128Y-45531760D01*
X42070200Y-45546010D01*
X42228950Y-45704760D01*
X43603200Y-45704760D01*
X43603200Y-45684760D01*
X43857200Y-45684760D01*
X43857200Y-45704760D01*
X45231450Y-45704760D01*
X45390200Y-45546010D01*
X45393272Y-45531760D01*
X45381012Y-45407278D01*
X45344702Y-45287580D01*
X45285737Y-45177266D01*
X45261470Y-45147696D01*
X45333284Y-45013342D01*
X45378129Y-44865505D01*
X45393272Y-44711760D01*
X45393272Y-44411760D01*
X45378129Y-44258015D01*
X45333284Y-44110178D01*
X45260458Y-43973931D01*
X45221746Y-43926760D01*
X45260458Y-43879589D01*
X45333284Y-43743342D01*
X45378129Y-43595505D01*
X45393272Y-43441760D01*
X45393272Y-43141760D01*
X45378129Y-42988015D01*
X45333284Y-42840178D01*
X45260458Y-42703931D01*
X45221746Y-42656760D01*
X45260458Y-42609589D01*
X45333284Y-42473342D01*
X45378129Y-42325505D01*
X45393272Y-42171760D01*
X45393272Y-41871760D01*
X45378129Y-41718015D01*
X45333284Y-41570178D01*
X45260458Y-41433931D01*
X45221746Y-41386760D01*
X45260458Y-41339589D01*
X45333284Y-41203342D01*
X45378129Y-41055505D01*
X45393272Y-40901760D01*
X45393272Y-40601760D01*
X45378129Y-40448015D01*
X45333284Y-40300178D01*
X45260458Y-40163931D01*
X45221746Y-40116760D01*
X45260458Y-40069589D01*
X45333284Y-39933342D01*
X45378129Y-39785505D01*
X45393272Y-39631760D01*
X45393272Y-39331760D01*
X45378129Y-39178015D01*
X45333284Y-39030178D01*
X45260458Y-38893931D01*
X45221746Y-38846760D01*
X45260458Y-38799589D01*
X45333284Y-38663342D01*
X45378129Y-38515505D01*
X45393272Y-38361760D01*
X45393272Y-38061760D01*
X45378129Y-37908015D01*
X45333284Y-37760178D01*
X45260458Y-37623931D01*
X45221746Y-37576760D01*
X45260458Y-37529589D01*
X45333284Y-37393342D01*
X45378129Y-37245505D01*
X45393272Y-37091760D01*
X45393272Y-36791760D01*
X45378129Y-36638015D01*
X45333284Y-36490178D01*
X45260458Y-36353931D01*
X45221746Y-36306760D01*
X45260458Y-36259589D01*
X45333284Y-36123342D01*
X45378129Y-35975505D01*
X45393272Y-35821760D01*
X45393272Y-35521760D01*
X45378129Y-35368015D01*
X45333284Y-35220178D01*
X45261470Y-35085824D01*
X45285737Y-35056254D01*
X45344702Y-34945940D01*
X45381012Y-34826242D01*
X45393272Y-34701760D01*
X45390200Y-34687510D01*
X45231450Y-34528760D01*
X43857200Y-34528760D01*
X43857200Y-34548760D01*
X43603200Y-34548760D01*
X43603200Y-34528760D01*
X43583200Y-34528760D01*
X43583200Y-34274760D01*
X43603200Y-34274760D01*
X43603200Y-34254760D01*
X43857200Y-34254760D01*
X43857200Y-34274760D01*
X45231450Y-34274760D01*
X45390200Y-34116010D01*
X45393272Y-34101760D01*
X45381012Y-33977278D01*
X45344702Y-33857580D01*
X45285737Y-33747266D01*
X45208753Y-33653460D01*
X51647967Y-33653460D01*
X51597949Y-33694509D01*
X51499942Y-33813931D01*
X51427116Y-33950178D01*
X51382271Y-34098015D01*
X51367128Y-34251760D01*
X51367128Y-34551760D01*
X51382271Y-34705505D01*
X51427116Y-34853342D01*
X51498930Y-34987696D01*
X51474663Y-35017266D01*
X51415698Y-35127580D01*
X51379388Y-35247278D01*
X51367128Y-35371760D01*
X51370200Y-35386010D01*
X51528950Y-35544760D01*
X52903200Y-35544760D01*
X52903200Y-35524760D01*
X53157200Y-35524760D01*
X53157200Y-35544760D01*
X53177200Y-35544760D01*
X53177200Y-35798760D01*
X53157200Y-35798760D01*
X53157200Y-35818760D01*
X52903200Y-35818760D01*
X52903200Y-35798760D01*
X51528950Y-35798760D01*
X51370200Y-35957510D01*
X51367128Y-35971760D01*
X51379388Y-36096242D01*
X51415698Y-36215940D01*
X51474663Y-36326254D01*
X51498930Y-36355824D01*
X51427116Y-36490178D01*
X51382271Y-36638015D01*
X51367128Y-36791760D01*
X51367128Y-37091760D01*
X51382271Y-37245505D01*
X51427116Y-37393342D01*
X51499942Y-37529589D01*
X51538654Y-37576760D01*
X51499942Y-37623931D01*
X51427116Y-37760178D01*
X51382271Y-37908015D01*
X51367128Y-38061760D01*
X51367128Y-38361760D01*
X51382271Y-38515505D01*
X51427116Y-38663342D01*
X51499942Y-38799589D01*
X51538654Y-38846760D01*
X51499942Y-38893931D01*
X51427116Y-39030178D01*
X51382271Y-39178015D01*
X51367128Y-39331760D01*
X51367128Y-39631760D01*
X51382271Y-39785505D01*
X51427116Y-39933342D01*
X51499942Y-40069589D01*
X51538654Y-40116760D01*
X51499942Y-40163931D01*
X51427116Y-40300178D01*
X51382271Y-40448015D01*
X51367128Y-40601760D01*
X51367128Y-40901760D01*
X51382271Y-41055505D01*
X51427116Y-41203342D01*
X51499942Y-41339589D01*
X51538654Y-41386760D01*
X51499942Y-41433931D01*
X51427116Y-41570178D01*
X51382271Y-41718015D01*
X51367128Y-41871760D01*
X51367128Y-42171760D01*
X51382271Y-42325505D01*
X51427116Y-42473342D01*
X51499942Y-42609589D01*
X51538654Y-42656760D01*
X51499942Y-42703931D01*
X51427116Y-42840178D01*
X51382271Y-42988015D01*
X51367128Y-43141760D01*
X51367128Y-43441760D01*
X51382271Y-43595505D01*
X51427116Y-43743342D01*
X51499942Y-43879589D01*
X51538654Y-43926760D01*
X51499942Y-43973931D01*
X51427116Y-44110178D01*
X51382271Y-44258015D01*
X51367128Y-44411760D01*
X51367128Y-44711760D01*
X51382271Y-44865505D01*
X51427116Y-45013342D01*
X51499942Y-45149589D01*
X51538654Y-45196760D01*
X51499942Y-45243931D01*
X51427116Y-45380178D01*
X51382271Y-45528015D01*
X51367128Y-45681760D01*
X51367128Y-45981760D01*
X51382271Y-46135505D01*
X51427116Y-46283342D01*
X51499942Y-46419589D01*
X51597949Y-46539011D01*
X51717371Y-46637018D01*
X51853618Y-46709844D01*
X52001455Y-46754689D01*
X52155200Y-46769832D01*
X53905200Y-46769832D01*
X54058945Y-46754689D01*
X54206782Y-46709844D01*
X54343029Y-46637018D01*
X54462451Y-46539011D01*
X54560458Y-46419589D01*
X54633284Y-46283342D01*
X54678129Y-46135505D01*
X54686306Y-46052486D01*
X54742816Y-45995977D01*
X54739928Y-46479360D01*
X54752188Y-46603842D01*
X54788498Y-46723540D01*
X54847463Y-46833854D01*
X54926815Y-46930545D01*
X55023506Y-47009897D01*
X55133820Y-47068862D01*
X55253518Y-47105172D01*
X55378000Y-47117432D01*
X55892250Y-47114360D01*
X56051000Y-46955610D01*
X56051000Y-45806360D01*
X56305000Y-45806360D01*
X56305000Y-46955610D01*
X56463750Y-47114360D01*
X56978000Y-47117432D01*
X57102482Y-47105172D01*
X57222180Y-47068862D01*
X57332494Y-47009897D01*
X57429185Y-46930545D01*
X57508537Y-46833854D01*
X57567502Y-46723540D01*
X57600400Y-46615090D01*
X57633298Y-46723540D01*
X57692263Y-46833854D01*
X57771615Y-46930545D01*
X57868306Y-47009897D01*
X57978620Y-47068862D01*
X58098318Y-47105172D01*
X58222800Y-47117432D01*
X58737050Y-47114360D01*
X58895800Y-46955610D01*
X58895800Y-45806360D01*
X57746550Y-45806360D01*
X57600400Y-45952510D01*
X57454250Y-45806360D01*
X56305000Y-45806360D01*
X56051000Y-45806360D01*
X56031000Y-45806360D01*
X56031000Y-45552360D01*
X56051000Y-45552360D01*
X56051000Y-45532360D01*
X56305000Y-45532360D01*
X56305000Y-45552360D01*
X57454250Y-45552360D01*
X57600400Y-45406210D01*
X57746550Y-45552360D01*
X58895800Y-45552360D01*
X58895800Y-45532360D01*
X59149800Y-45532360D01*
X59149800Y-45552360D01*
X59169800Y-45552360D01*
X59169800Y-45806360D01*
X59149800Y-45806360D01*
X59149800Y-46955610D01*
X59308550Y-47114360D01*
X59822800Y-47117432D01*
X59947282Y-47105172D01*
X60066980Y-47068862D01*
X60177294Y-47009897D01*
X60273985Y-46930545D01*
X60353337Y-46833854D01*
X60412302Y-46723540D01*
X60448612Y-46603842D01*
X60460872Y-46479360D01*
X60457800Y-45965110D01*
X60299052Y-45806362D01*
X60457800Y-45806362D01*
X60457800Y-45741793D01*
X64354011Y-49638005D01*
X64379859Y-49669501D01*
X64411355Y-49695349D01*
X64411358Y-49695352D01*
X64505557Y-49772659D01*
X64648966Y-49849313D01*
X64804574Y-49896516D01*
X64925847Y-49908460D01*
X64925849Y-49908460D01*
X64966400Y-49912454D01*
X65006950Y-49908460D01*
X80957425Y-49908460D01*
X81000880Y-49973495D01*
X81195465Y-50168080D01*
X81424273Y-50320965D01*
X81678510Y-50426274D01*
X81948408Y-50479960D01*
X82223592Y-50479960D01*
X82493490Y-50426274D01*
X82747727Y-50320965D01*
X82976535Y-50168080D01*
X83171120Y-49973495D01*
X83324005Y-49744687D01*
X83429314Y-49490450D01*
X83483000Y-49220552D01*
X83483000Y-48945368D01*
X83429314Y-48675470D01*
X83324005Y-48421233D01*
X83171120Y-48192425D01*
X82976535Y-47997840D01*
X82747727Y-47844955D01*
X82493490Y-47739646D01*
X82223592Y-47685960D01*
X81948408Y-47685960D01*
X81678510Y-47739646D01*
X81424273Y-47844955D01*
X81195465Y-47997840D01*
X81000880Y-48192425D01*
X80957425Y-48257460D01*
X65308334Y-48257460D01*
X60436856Y-43385984D01*
X60457800Y-43280695D01*
X60457800Y-42998025D01*
X60402653Y-42720786D01*
X60402063Y-42719361D01*
X65205059Y-42719361D01*
X65189468Y-42757002D01*
X65132400Y-43043900D01*
X65132400Y-43336420D01*
X65189468Y-43623318D01*
X65301410Y-43893571D01*
X65463925Y-44136792D01*
X65670768Y-44343635D01*
X65845160Y-44460160D01*
X65670768Y-44576685D01*
X65463925Y-44783528D01*
X65301410Y-45026749D01*
X65189468Y-45297002D01*
X65132400Y-45583900D01*
X65132400Y-45876420D01*
X65189468Y-46163318D01*
X65301410Y-46433571D01*
X65463925Y-46676792D01*
X65670768Y-46883635D01*
X65913989Y-47046150D01*
X66184242Y-47158092D01*
X66471140Y-47215160D01*
X66763660Y-47215160D01*
X67050558Y-47158092D01*
X67320811Y-47046150D01*
X67564032Y-46883635D01*
X67770875Y-46676792D01*
X67933390Y-46433571D01*
X68045332Y-46163318D01*
X68102400Y-45876420D01*
X68102400Y-45583900D01*
X68045332Y-45297002D01*
X67933390Y-45026749D01*
X67869386Y-44930960D01*
X74501928Y-44930960D01*
X74501928Y-46630960D01*
X74514188Y-46755442D01*
X74550498Y-46875140D01*
X74609463Y-46985454D01*
X74688815Y-47082145D01*
X74785506Y-47161497D01*
X74895820Y-47220462D01*
X75015518Y-47256772D01*
X75140000Y-47269032D01*
X76840000Y-47269032D01*
X76964482Y-47256772D01*
X77084180Y-47220462D01*
X77194494Y-47161497D01*
X77291185Y-47082145D01*
X77370537Y-46985454D01*
X77429502Y-46875140D01*
X77465812Y-46755442D01*
X77478072Y-46630960D01*
X77478072Y-46405368D01*
X83229000Y-46405368D01*
X83229000Y-46680552D01*
X83282686Y-46950450D01*
X83387995Y-47204687D01*
X83540880Y-47433495D01*
X83735465Y-47628080D01*
X83964273Y-47780965D01*
X84218510Y-47886274D01*
X84488408Y-47939960D01*
X84763592Y-47939960D01*
X85033490Y-47886274D01*
X85287727Y-47780965D01*
X85516535Y-47628080D01*
X85711120Y-47433495D01*
X85864005Y-47204687D01*
X85969314Y-46950450D01*
X86023000Y-46680552D01*
X86023000Y-46405368D01*
X85969314Y-46135470D01*
X85864005Y-45881233D01*
X85711120Y-45652425D01*
X85516535Y-45457840D01*
X85287727Y-45304955D01*
X85033490Y-45199646D01*
X84763592Y-45145960D01*
X84488408Y-45145960D01*
X84218510Y-45199646D01*
X83964273Y-45304955D01*
X83735465Y-45457840D01*
X83540880Y-45652425D01*
X83387995Y-45881233D01*
X83282686Y-46135470D01*
X83229000Y-46405368D01*
X77478072Y-46405368D01*
X77478072Y-44930960D01*
X77465812Y-44806478D01*
X77429502Y-44686780D01*
X77370537Y-44576466D01*
X77291185Y-44479775D01*
X77194494Y-44400423D01*
X77084180Y-44341458D01*
X76964482Y-44305148D01*
X76840000Y-44292888D01*
X75140000Y-44292888D01*
X75015518Y-44305148D01*
X74895820Y-44341458D01*
X74785506Y-44400423D01*
X74688815Y-44479775D01*
X74609463Y-44576466D01*
X74550498Y-44686780D01*
X74514188Y-44806478D01*
X74501928Y-44930960D01*
X67869386Y-44930960D01*
X67770875Y-44783528D01*
X67564032Y-44576685D01*
X67389640Y-44460160D01*
X67564032Y-44343635D01*
X67770875Y-44136792D01*
X67933390Y-43893571D01*
X67945072Y-43865368D01*
X80689000Y-43865368D01*
X80689000Y-44140552D01*
X80742686Y-44410450D01*
X80847995Y-44664687D01*
X81000880Y-44893495D01*
X81195465Y-45088080D01*
X81424273Y-45240965D01*
X81678510Y-45346274D01*
X81948408Y-45399960D01*
X82223592Y-45399960D01*
X82493490Y-45346274D01*
X82747727Y-45240965D01*
X82976535Y-45088080D01*
X83171120Y-44893495D01*
X83324005Y-44664687D01*
X83429314Y-44410450D01*
X83483000Y-44140552D01*
X83483000Y-43865368D01*
X93389000Y-43865368D01*
X93389000Y-44140552D01*
X93442686Y-44410450D01*
X93547995Y-44664687D01*
X93700880Y-44893495D01*
X93895465Y-45088080D01*
X94124273Y-45240965D01*
X94378510Y-45346274D01*
X94648408Y-45399960D01*
X94923592Y-45399960D01*
X95193490Y-45346274D01*
X95447727Y-45240965D01*
X95676535Y-45088080D01*
X95871120Y-44893495D01*
X96024005Y-44664687D01*
X96129314Y-44410450D01*
X96183000Y-44140552D01*
X96183000Y-43865368D01*
X96129314Y-43595470D01*
X96024005Y-43341233D01*
X95871120Y-43112425D01*
X95676535Y-42917840D01*
X95447727Y-42764955D01*
X95193490Y-42659646D01*
X94923592Y-42605960D01*
X94648408Y-42605960D01*
X94378510Y-42659646D01*
X94124273Y-42764955D01*
X93895465Y-42917840D01*
X93700880Y-43112425D01*
X93547995Y-43341233D01*
X93442686Y-43595470D01*
X93389000Y-43865368D01*
X83483000Y-43865368D01*
X83429314Y-43595470D01*
X83324005Y-43341233D01*
X83171120Y-43112425D01*
X82976535Y-42917840D01*
X82747727Y-42764955D01*
X82493490Y-42659646D01*
X82223592Y-42605960D01*
X81948408Y-42605960D01*
X81678510Y-42659646D01*
X81424273Y-42764955D01*
X81195465Y-42917840D01*
X81000880Y-43112425D01*
X80847995Y-43341233D01*
X80742686Y-43595470D01*
X80689000Y-43865368D01*
X67945072Y-43865368D01*
X68045332Y-43623318D01*
X68102400Y-43336420D01*
X68102400Y-43043900D01*
X68045332Y-42757002D01*
X68029741Y-42719361D01*
X76534549Y-42719361D01*
X76575099Y-42723355D01*
X76615649Y-42719361D01*
X76615652Y-42719361D01*
X76736925Y-42707417D01*
X76892533Y-42660214D01*
X77035941Y-42583560D01*
X77161640Y-42480402D01*
X77187497Y-42448895D01*
X77488843Y-42147550D01*
X77541538Y-42137068D01*
X77717194Y-42064309D01*
X77875279Y-41958680D01*
X78009720Y-41824239D01*
X78115349Y-41666154D01*
X78149000Y-41584913D01*
X78149000Y-41600552D01*
X78202686Y-41870450D01*
X78307995Y-42124687D01*
X78460880Y-42353495D01*
X78655465Y-42548080D01*
X78884273Y-42700965D01*
X79138510Y-42806274D01*
X79408408Y-42859960D01*
X79683592Y-42859960D01*
X79953490Y-42806274D01*
X80207727Y-42700965D01*
X80436535Y-42548080D01*
X80556090Y-42428525D01*
X83840040Y-42428525D01*
X83907020Y-42668616D01*
X84156048Y-42785716D01*
X84423135Y-42851983D01*
X84698017Y-42864870D01*
X84970133Y-42823882D01*
X85229023Y-42730596D01*
X85344980Y-42668616D01*
X85411960Y-42428525D01*
X84626000Y-41642565D01*
X83840040Y-42428525D01*
X80556090Y-42428525D01*
X80631120Y-42353495D01*
X80784005Y-42124687D01*
X80889314Y-41870450D01*
X80943000Y-41600552D01*
X80943000Y-41534977D01*
X83224090Y-41534977D01*
X83265078Y-41807093D01*
X83358364Y-42065983D01*
X83420344Y-42181940D01*
X83660435Y-42248920D01*
X84446395Y-41462960D01*
X84805605Y-41462960D01*
X85591565Y-42248920D01*
X85831656Y-42181940D01*
X85948756Y-41932912D01*
X86015023Y-41665825D01*
X86027910Y-41390943D01*
X85986922Y-41118827D01*
X85893636Y-40859937D01*
X85831656Y-40743980D01*
X85591565Y-40677000D01*
X84805605Y-41462960D01*
X84446395Y-41462960D01*
X83660435Y-40677000D01*
X83420344Y-40743980D01*
X83303244Y-40993008D01*
X83236977Y-41260095D01*
X83224090Y-41534977D01*
X80943000Y-41534977D01*
X80943000Y-41325368D01*
X80889314Y-41055470D01*
X80784005Y-40801233D01*
X80631120Y-40572425D01*
X80556090Y-40497395D01*
X83840040Y-40497395D01*
X84626000Y-41283355D01*
X85411960Y-40497395D01*
X85344980Y-40257304D01*
X85095952Y-40140204D01*
X84828865Y-40073937D01*
X84553983Y-40061050D01*
X84281867Y-40102038D01*
X84022977Y-40195324D01*
X83907020Y-40257304D01*
X83840040Y-40497395D01*
X80556090Y-40497395D01*
X80436535Y-40377840D01*
X80207727Y-40224955D01*
X79953490Y-40119646D01*
X79683592Y-40065960D01*
X79408408Y-40065960D01*
X79331693Y-40081220D01*
X78101897Y-38851425D01*
X78076040Y-38819918D01*
X77950341Y-38716760D01*
X77806933Y-38640106D01*
X77651325Y-38592903D01*
X77530052Y-38580959D01*
X77530049Y-38580959D01*
X77489499Y-38576965D01*
X77448949Y-38580959D01*
X68105472Y-38580959D01*
X68105472Y-37691959D01*
X79687567Y-37691959D01*
X80704260Y-38708653D01*
X80689000Y-38785368D01*
X80689000Y-39060552D01*
X80742686Y-39330450D01*
X80847995Y-39584687D01*
X81000880Y-39813495D01*
X81195465Y-40008080D01*
X81424273Y-40160965D01*
X81678510Y-40266274D01*
X81948408Y-40319960D01*
X82223592Y-40319960D01*
X82493490Y-40266274D01*
X82747727Y-40160965D01*
X82976535Y-40008080D01*
X83171120Y-39813495D01*
X83324005Y-39584687D01*
X83429314Y-39330450D01*
X83483000Y-39060552D01*
X83483000Y-38785368D01*
X93389000Y-38785368D01*
X93389000Y-39060552D01*
X93442686Y-39330450D01*
X93547995Y-39584687D01*
X93700880Y-39813495D01*
X93895465Y-40008080D01*
X94124273Y-40160965D01*
X94378510Y-40266274D01*
X94648408Y-40319960D01*
X94923592Y-40319960D01*
X95193490Y-40266274D01*
X95447727Y-40160965D01*
X95676535Y-40008080D01*
X95871120Y-39813495D01*
X96024005Y-39584687D01*
X96129314Y-39330450D01*
X96183000Y-39060552D01*
X96183000Y-38785368D01*
X96129314Y-38515470D01*
X96024005Y-38261233D01*
X95871120Y-38032425D01*
X95676535Y-37837840D01*
X95447727Y-37684955D01*
X95193490Y-37579646D01*
X94923592Y-37525960D01*
X94648408Y-37525960D01*
X94378510Y-37579646D01*
X94124273Y-37684955D01*
X93895465Y-37837840D01*
X93700880Y-38032425D01*
X93547995Y-38261233D01*
X93442686Y-38515470D01*
X93389000Y-38785368D01*
X83483000Y-38785368D01*
X83429314Y-38515470D01*
X83366639Y-38364160D01*
X83451064Y-38364160D01*
X83637538Y-38327068D01*
X83813194Y-38254309D01*
X83971279Y-38148680D01*
X84105720Y-38014239D01*
X84211349Y-37856154D01*
X84261597Y-37734845D01*
X84488408Y-37779960D01*
X84763592Y-37779960D01*
X85033490Y-37726274D01*
X85287727Y-37620965D01*
X85516535Y-37468080D01*
X85711120Y-37273495D01*
X85864005Y-37044687D01*
X85969314Y-36790450D01*
X86023000Y-36520552D01*
X86023000Y-36245368D01*
X85969314Y-35975470D01*
X85864005Y-35721233D01*
X85711120Y-35492425D01*
X85516535Y-35297840D01*
X85287727Y-35144955D01*
X85033490Y-35039646D01*
X84763592Y-34985960D01*
X84488408Y-34985960D01*
X84218510Y-35039646D01*
X83964273Y-35144955D01*
X83735465Y-35297840D01*
X83540880Y-35492425D01*
X83387995Y-35721233D01*
X83282686Y-35975470D01*
X83252367Y-36127894D01*
X82341065Y-35216593D01*
X82493490Y-35186274D01*
X82747727Y-35080965D01*
X82976535Y-34928080D01*
X83171120Y-34733495D01*
X83324005Y-34504687D01*
X83429314Y-34250450D01*
X83483000Y-33980552D01*
X83483000Y-33705368D01*
X83429314Y-33435470D01*
X83324005Y-33181233D01*
X83171120Y-32952425D01*
X82976535Y-32757840D01*
X82747727Y-32604955D01*
X82493490Y-32499646D01*
X82223592Y-32445960D01*
X81948408Y-32445960D01*
X81678510Y-32499646D01*
X81424273Y-32604955D01*
X81195465Y-32757840D01*
X81000880Y-32952425D01*
X80847995Y-33181233D01*
X80742686Y-33435470D01*
X80689000Y-33705368D01*
X80689000Y-33980552D01*
X80742686Y-34250450D01*
X80847995Y-34504687D01*
X80974397Y-34693860D01*
X60197078Y-34693860D01*
X60137437Y-34604601D01*
X59937559Y-34404723D01*
X59741858Y-34273960D01*
X72120953Y-34273960D01*
X72154600Y-34277274D01*
X72188247Y-34273960D01*
X72288883Y-34264048D01*
X72418006Y-34224879D01*
X72537007Y-34161272D01*
X72641311Y-34075671D01*
X72726912Y-33971367D01*
X72790519Y-33852366D01*
X72829688Y-33723243D01*
X72842914Y-33588960D01*
X72839600Y-33555313D01*
X72839600Y-32013360D01*
X74552728Y-32013360D01*
X74552728Y-33651560D01*
X74564988Y-33776042D01*
X74601298Y-33895740D01*
X74660263Y-34006054D01*
X74739615Y-34102745D01*
X74836306Y-34182097D01*
X74946620Y-34241062D01*
X75066318Y-34277372D01*
X75190800Y-34289632D01*
X76890800Y-34289632D01*
X77015282Y-34277372D01*
X77134980Y-34241062D01*
X77245294Y-34182097D01*
X77341985Y-34102745D01*
X77421337Y-34006054D01*
X77480302Y-33895740D01*
X77516612Y-33776042D01*
X77528872Y-33651560D01*
X77528872Y-32013308D01*
X96641001Y-31988837D01*
X96641000Y-53731960D01*
X28211800Y-53731960D01*
X28211800Y-31987960D01*
X41929959Y-31987960D01*
X41885822Y-32024182D01*
G37*
G04 #@! TD.AperFunction*
D19*
X58204000Y-32573960D02*
X58224000Y-32573960D01*
X58224000Y-32827960D01*
X58204000Y-32827960D01*
X58204000Y-33877210D01*
X58362750Y-34035960D01*
X58652000Y-34039032D01*
X58776482Y-34026772D01*
X58896180Y-33990462D01*
X58915072Y-33980364D01*
X58993289Y-34075671D01*
X59003876Y-34084360D01*
X58881465Y-34084360D01*
X58604226Y-34139507D01*
X58343073Y-34247680D01*
X58108041Y-34404723D01*
X57908163Y-34604601D01*
X57751120Y-34839633D01*
X57642947Y-35100786D01*
X57600400Y-35314681D01*
X57557853Y-35100786D01*
X57449680Y-34839633D01*
X57292637Y-34604601D01*
X57092759Y-34404723D01*
X56857727Y-34247680D01*
X56698778Y-34181841D01*
X56703778Y-34177738D01*
X56822806Y-34032701D01*
X56911252Y-33867229D01*
X56924144Y-33824731D01*
X56979962Y-33778922D01*
X56985342Y-33772366D01*
X57050815Y-33852145D01*
X57147506Y-33931497D01*
X57257820Y-33990462D01*
X57377518Y-34026772D01*
X57502000Y-34039032D01*
X57791250Y-34035960D01*
X57950000Y-33877210D01*
X57950000Y-32827960D01*
X57930000Y-32827960D01*
X57930000Y-32573960D01*
X57950000Y-32573960D01*
X57950000Y-32553960D01*
X58204000Y-32553960D01*
X58204000Y-32573960D01*
G04 #@! TA.AperFunction,Conductor*
D20*
G36*
X58204000Y-32573960D02*
G01*
X58224000Y-32573960D01*
X58224000Y-32827960D01*
X58204000Y-32827960D01*
X58204000Y-33877210D01*
X58362750Y-34035960D01*
X58652000Y-34039032D01*
X58776482Y-34026772D01*
X58896180Y-33990462D01*
X58915072Y-33980364D01*
X58993289Y-34075671D01*
X59003876Y-34084360D01*
X58881465Y-34084360D01*
X58604226Y-34139507D01*
X58343073Y-34247680D01*
X58108041Y-34404723D01*
X57908163Y-34604601D01*
X57751120Y-34839633D01*
X57642947Y-35100786D01*
X57600400Y-35314681D01*
X57557853Y-35100786D01*
X57449680Y-34839633D01*
X57292637Y-34604601D01*
X57092759Y-34404723D01*
X56857727Y-34247680D01*
X56698778Y-34181841D01*
X56703778Y-34177738D01*
X56822806Y-34032701D01*
X56911252Y-33867229D01*
X56924144Y-33824731D01*
X56979962Y-33778922D01*
X56985342Y-33772366D01*
X57050815Y-33852145D01*
X57147506Y-33931497D01*
X57257820Y-33990462D01*
X57377518Y-34026772D01*
X57502000Y-34039032D01*
X57791250Y-34035960D01*
X57950000Y-33877210D01*
X57950000Y-32827960D01*
X57930000Y-32827960D01*
X57930000Y-32573960D01*
X57950000Y-32573960D01*
X57950000Y-32553960D01*
X58204000Y-32553960D01*
X58204000Y-32573960D01*
G37*
G04 #@! TD.AperFunction*
M02*
