G04 #@! TF.GenerationSoftware,KiCad,Pcbnew,(5.1.12)-1*
G04 #@! TF.CreationDate,2021-12-03T20:04:06+01:00*
G04 #@! TF.ProjectId,buffer,62756666-6572-42e6-9b69-6361645f7063,rev?*
G04 #@! TF.SameCoordinates,Original*
G04 #@! TF.FileFunction,Soldermask,Bot*
G04 #@! TF.FilePolarity,Negative*
%FSLAX46Y46*%
G04 Gerber Fmt 4.6, Leading zero omitted, Abs format (unit mm)*
G04 Created by KiCad (PCBNEW (5.1.12)-1) date 2021-12-03 20:04:06*
%MOMM*%
%LPD*%
G01*
G04 APERTURE LIST*
%ADD10O,2.000000X2.000000*%
%ADD11O,1.900000X1.900000*%
G04 APERTURE END LIST*
D10*
X79546000Y-41462960D03*
X94786000Y-44002960D03*
X94786000Y-38922960D03*
X82086000Y-49082960D03*
X84626000Y-46542960D03*
X82086000Y-44002960D03*
X84626000Y-41462960D03*
X82086000Y-38922960D03*
X84626000Y-36382960D03*
X82086000Y-33842960D03*
X66617400Y-45730160D03*
X66617400Y-43190160D03*
X66617400Y-40650160D03*
G36*
G01*
X65617400Y-38960160D02*
X65617400Y-37260160D01*
G75*
G02*
X65767400Y-37110160I150000J0D01*
G01*
X67467400Y-37110160D01*
G75*
G02*
X67617400Y-37260160I0J-150000D01*
G01*
X67617400Y-38960160D01*
G75*
G02*
X67467400Y-39110160I-150000J0D01*
G01*
X65767400Y-39110160D01*
G75*
G02*
X65617400Y-38960160I0J150000D01*
G01*
G37*
G36*
G01*
X56978000Y-46629360D02*
X55378000Y-46629360D01*
G75*
G02*
X55228000Y-46479360I0J150000D01*
G01*
X55228000Y-44879360D01*
G75*
G02*
X55378000Y-44729360I150000J0D01*
G01*
X56978000Y-44729360D01*
G75*
G02*
X57128000Y-44879360I0J-150000D01*
G01*
X57128000Y-46479360D01*
G75*
G02*
X56978000Y-46629360I-150000J0D01*
G01*
G37*
D11*
X56178000Y-43139360D03*
X56178000Y-40599360D03*
X56178000Y-38059360D03*
X56178000Y-35519360D03*
G36*
G01*
X39353800Y-35226360D02*
X39353800Y-33526360D01*
G75*
G02*
X39503800Y-33376360I150000J0D01*
G01*
X41203800Y-33376360D01*
G75*
G02*
X41353800Y-33526360I0J-150000D01*
G01*
X41353800Y-35226360D01*
G75*
G02*
X41203800Y-35376360I-150000J0D01*
G01*
X39503800Y-35376360D01*
G75*
G02*
X39353800Y-35226360I0J150000D01*
G01*
G37*
D10*
X37813800Y-34376360D03*
X40353800Y-36916360D03*
X37813800Y-36916360D03*
X40353800Y-39456360D03*
X37813800Y-39456360D03*
X40353800Y-41996360D03*
X37813800Y-41996360D03*
X40353800Y-44536360D03*
X37813800Y-44536360D03*
X40353800Y-47076360D03*
X37813800Y-47076360D03*
G36*
G01*
X75190800Y-31801560D02*
X76890800Y-31801560D01*
G75*
G02*
X77040800Y-31951560I0J-150000D01*
G01*
X77040800Y-33651560D01*
G75*
G02*
X76890800Y-33801560I-150000J0D01*
G01*
X75190800Y-33801560D01*
G75*
G02*
X75040800Y-33651560I0J150000D01*
G01*
X75040800Y-31951560D01*
G75*
G02*
X75190800Y-31801560I150000J0D01*
G01*
G37*
D11*
X59022800Y-35519360D03*
X59022800Y-38059360D03*
X59022800Y-40599360D03*
X59022800Y-43139360D03*
G36*
G01*
X59822800Y-46629360D02*
X58222800Y-46629360D01*
G75*
G02*
X58072800Y-46479360I0J150000D01*
G01*
X58072800Y-44879360D01*
G75*
G02*
X58222800Y-44729360I150000J0D01*
G01*
X59822800Y-44729360D01*
G75*
G02*
X59972800Y-44879360I0J-150000D01*
G01*
X59972800Y-46479360D01*
G75*
G02*
X59822800Y-46629360I-150000J0D01*
G01*
G37*
G36*
G01*
X75140000Y-44780960D02*
X76840000Y-44780960D01*
G75*
G02*
X76990000Y-44930960I0J-150000D01*
G01*
X76990000Y-46630960D01*
G75*
G02*
X76840000Y-46780960I-150000J0D01*
G01*
X75140000Y-46780960D01*
G75*
G02*
X74990000Y-46630960I0J150000D01*
G01*
X74990000Y-44930960D01*
G75*
G02*
X75140000Y-44780960I150000J0D01*
G01*
G37*
M02*
