G04 #@! TF.GenerationSoftware,KiCad,Pcbnew,(5.1.12)-1*
G04 #@! TF.CreationDate,2021-11-21T19:42:23+01:00*
G04 #@! TF.ProjectId,buffer,62756666-6572-42e6-9b69-6361645f7063,rev?*
G04 #@! TF.SameCoordinates,Original*
G04 #@! TF.FileFunction,Legend,Bot*
G04 #@! TF.FilePolarity,Positive*
%FSLAX46Y46*%
G04 Gerber Fmt 4.6, Leading zero omitted, Abs format (unit mm)*
G04 Created by KiCad (PCBNEW (5.1.12)-1) date 2021-11-21 19:42:23*
%MOMM*%
%LPD*%
G01*
G04 APERTURE LIST*
%ADD10C,0.120000*%
%ADD11C,0.100000*%
%ADD12C,0.150000*%
G04 APERTURE END LIST*
D10*
X40925219Y-48390864D02*
X40391885Y-49190864D01*
X40391885Y-48390864D02*
X40925219Y-49190864D01*
X40125219Y-48467055D02*
X40087123Y-48428960D01*
X40010933Y-48390864D01*
X39820457Y-48390864D01*
X39744266Y-48428960D01*
X39706171Y-48467055D01*
X39668076Y-48543245D01*
X39668076Y-48619436D01*
X39706171Y-48733721D01*
X40163314Y-49190864D01*
X39668076Y-49190864D01*
X38385219Y-48390864D02*
X37851885Y-49190864D01*
X37851885Y-48390864D02*
X38385219Y-49190864D01*
X37128076Y-49190864D02*
X37585219Y-49190864D01*
X37356647Y-49190864D02*
X37356647Y-48390864D01*
X37432838Y-48505150D01*
X37509028Y-48581340D01*
X37585219Y-48619436D01*
D11*
X43317657Y-45145245D02*
X43317657Y-45345245D01*
X43003371Y-45345245D02*
X43603371Y-45345245D01*
X43603371Y-45059531D01*
X43003371Y-44830960D02*
X43403371Y-44830960D01*
X43603371Y-44830960D02*
X43574800Y-44859531D01*
X43546228Y-44830960D01*
X43574800Y-44802388D01*
X43603371Y-44830960D01*
X43546228Y-44830960D01*
X43403371Y-44630960D02*
X43403371Y-44402388D01*
X43603371Y-44545245D02*
X43089085Y-44545245D01*
X43031942Y-44516674D01*
X43003371Y-44459531D01*
X43003371Y-44402388D01*
X43003371Y-43430960D02*
X43003371Y-43773817D01*
X43003371Y-43602388D02*
X43603371Y-43602388D01*
X43517657Y-43659531D01*
X43460514Y-43716674D01*
X43431942Y-43773817D01*
X43603371Y-43059531D02*
X43603371Y-43002388D01*
X43574800Y-42945245D01*
X43546228Y-42916674D01*
X43489085Y-42888102D01*
X43374800Y-42859531D01*
X43231942Y-42859531D01*
X43117657Y-42888102D01*
X43060514Y-42916674D01*
X43031942Y-42945245D01*
X43003371Y-43002388D01*
X43003371Y-43059531D01*
X43031942Y-43116674D01*
X43060514Y-43145245D01*
X43117657Y-43173817D01*
X43231942Y-43202388D01*
X43374800Y-43202388D01*
X43489085Y-43173817D01*
X43546228Y-43145245D01*
X43574800Y-43116674D01*
X43603371Y-43059531D01*
X43403371Y-42202388D02*
X43003371Y-42088102D01*
X43289085Y-41973817D01*
X43003371Y-41859531D01*
X43403371Y-41745245D01*
X43003371Y-41259531D02*
X43317657Y-41259531D01*
X43374800Y-41288102D01*
X43403371Y-41345245D01*
X43403371Y-41459531D01*
X43374800Y-41516674D01*
X43031942Y-41259531D02*
X43003371Y-41316674D01*
X43003371Y-41459531D01*
X43031942Y-41516674D01*
X43089085Y-41545245D01*
X43146228Y-41545245D01*
X43203371Y-41516674D01*
X43231942Y-41459531D01*
X43231942Y-41316674D01*
X43260514Y-41259531D01*
X43403371Y-41030960D02*
X43003371Y-40888102D01*
X43403371Y-40745245D02*
X43003371Y-40888102D01*
X42860514Y-40945245D01*
X42831942Y-40973817D01*
X42803371Y-41030960D01*
X43031942Y-39802388D02*
X43003371Y-39859531D01*
X43003371Y-39973817D01*
X43031942Y-40030960D01*
X43060514Y-40059531D01*
X43117657Y-40088102D01*
X43289085Y-40088102D01*
X43346228Y-40059531D01*
X43374800Y-40030960D01*
X43403371Y-39973817D01*
X43403371Y-39859531D01*
X43374800Y-39802388D01*
X43003371Y-39459531D02*
X43031942Y-39516674D01*
X43060514Y-39545245D01*
X43117657Y-39573817D01*
X43289085Y-39573817D01*
X43346228Y-39545245D01*
X43374800Y-39516674D01*
X43403371Y-39459531D01*
X43403371Y-39373817D01*
X43374800Y-39316674D01*
X43346228Y-39288102D01*
X43289085Y-39259531D01*
X43117657Y-39259531D01*
X43060514Y-39288102D01*
X43031942Y-39316674D01*
X43003371Y-39373817D01*
X43003371Y-39459531D01*
X43403371Y-39002388D02*
X43003371Y-39002388D01*
X43346228Y-39002388D02*
X43374800Y-38973817D01*
X43403371Y-38916674D01*
X43403371Y-38830960D01*
X43374800Y-38773817D01*
X43317657Y-38745245D01*
X43003371Y-38745245D01*
X43403371Y-38459531D02*
X43003371Y-38459531D01*
X43346228Y-38459531D02*
X43374800Y-38430960D01*
X43403371Y-38373817D01*
X43403371Y-38288102D01*
X43374800Y-38230960D01*
X43317657Y-38202388D01*
X43003371Y-38202388D01*
X43031942Y-37688102D02*
X43003371Y-37745245D01*
X43003371Y-37859531D01*
X43031942Y-37916674D01*
X43089085Y-37945245D01*
X43317657Y-37945245D01*
X43374800Y-37916674D01*
X43403371Y-37859531D01*
X43403371Y-37745245D01*
X43374800Y-37688102D01*
X43317657Y-37659531D01*
X43260514Y-37659531D01*
X43203371Y-37945245D01*
X43031942Y-37145245D02*
X43003371Y-37202388D01*
X43003371Y-37316674D01*
X43031942Y-37373817D01*
X43060514Y-37402388D01*
X43117657Y-37430960D01*
X43289085Y-37430960D01*
X43346228Y-37402388D01*
X43374800Y-37373817D01*
X43403371Y-37316674D01*
X43403371Y-37202388D01*
X43374800Y-37145245D01*
X43403371Y-36973817D02*
X43403371Y-36745245D01*
X43603371Y-36888102D02*
X43089085Y-36888102D01*
X43031942Y-36859531D01*
X43003371Y-36802388D01*
X43003371Y-36745245D01*
X43003371Y-36459531D02*
X43031942Y-36516674D01*
X43060514Y-36545245D01*
X43117657Y-36573817D01*
X43289085Y-36573817D01*
X43346228Y-36545245D01*
X43374800Y-36516674D01*
X43403371Y-36459531D01*
X43403371Y-36373817D01*
X43374800Y-36316674D01*
X43346228Y-36288102D01*
X43289085Y-36259531D01*
X43117657Y-36259531D01*
X43060514Y-36288102D01*
X43031942Y-36316674D01*
X43003371Y-36373817D01*
X43003371Y-36459531D01*
X43003371Y-36002388D02*
X43403371Y-36002388D01*
X43289085Y-36002388D02*
X43346228Y-35973817D01*
X43374800Y-35945245D01*
X43403371Y-35888102D01*
X43403371Y-35830960D01*
X43003371Y-35173817D02*
X43603371Y-35173817D01*
X43003371Y-34916674D02*
X43317657Y-34916674D01*
X43374800Y-34945245D01*
X43403371Y-35002388D01*
X43403371Y-35088102D01*
X43374800Y-35145245D01*
X43346228Y-35173817D01*
X43031942Y-34402388D02*
X43003371Y-34459531D01*
X43003371Y-34573817D01*
X43031942Y-34630960D01*
X43089085Y-34659531D01*
X43317657Y-34659531D01*
X43374800Y-34630960D01*
X43403371Y-34573817D01*
X43403371Y-34459531D01*
X43374800Y-34402388D01*
X43317657Y-34373817D01*
X43260514Y-34373817D01*
X43203371Y-34659531D01*
X43003371Y-34116674D02*
X43403371Y-34116674D01*
X43289085Y-34116674D02*
X43346228Y-34088102D01*
X43374800Y-34059531D01*
X43403371Y-34002388D01*
X43403371Y-33945245D01*
X43031942Y-33516674D02*
X43003371Y-33573817D01*
X43003371Y-33688102D01*
X43031942Y-33745245D01*
X43089085Y-33773817D01*
X43317657Y-33773817D01*
X43374800Y-33745245D01*
X43403371Y-33688102D01*
X43403371Y-33573817D01*
X43374800Y-33516674D01*
X43317657Y-33488102D01*
X43260514Y-33488102D01*
X43203371Y-33773817D01*
D12*
X42462000Y-34300160D02*
X41700000Y-34300160D01*
X42462000Y-44561760D02*
X42462000Y-34300160D01*
X41649200Y-44561760D02*
X42462000Y-44561760D01*
D10*
X65320657Y-52022964D02*
X65587323Y-51642012D01*
X65777800Y-52022964D02*
X65777800Y-51222964D01*
X65473038Y-51222964D01*
X65396847Y-51261060D01*
X65358752Y-51299155D01*
X65320657Y-51375345D01*
X65320657Y-51489631D01*
X65358752Y-51565821D01*
X65396847Y-51603917D01*
X65473038Y-51642012D01*
X65777800Y-51642012D01*
X64863514Y-52022964D02*
X64939704Y-51984869D01*
X64977800Y-51946774D01*
X65015895Y-51870583D01*
X65015895Y-51642012D01*
X64977800Y-51565821D01*
X64939704Y-51527726D01*
X64863514Y-51489631D01*
X64749228Y-51489631D01*
X64673038Y-51527726D01*
X64634942Y-51565821D01*
X64596847Y-51642012D01*
X64596847Y-51870583D01*
X64634942Y-51946774D01*
X64673038Y-51984869D01*
X64749228Y-52022964D01*
X64863514Y-52022964D01*
X64139704Y-52022964D02*
X64215895Y-51984869D01*
X64253990Y-51908679D01*
X64253990Y-51222964D01*
X63492085Y-52022964D02*
X63492085Y-51603917D01*
X63530180Y-51527726D01*
X63606371Y-51489631D01*
X63758752Y-51489631D01*
X63834942Y-51527726D01*
X63492085Y-51984869D02*
X63568276Y-52022964D01*
X63758752Y-52022964D01*
X63834942Y-51984869D01*
X63873038Y-51908679D01*
X63873038Y-51832488D01*
X63834942Y-51756298D01*
X63758752Y-51718202D01*
X63568276Y-51718202D01*
X63492085Y-51680107D01*
X63111133Y-51489631D02*
X63111133Y-52022964D01*
X63111133Y-51565821D02*
X63073038Y-51527726D01*
X62996847Y-51489631D01*
X62882561Y-51489631D01*
X62806371Y-51527726D01*
X62768276Y-51603917D01*
X62768276Y-52022964D01*
X62044466Y-52022964D02*
X62044466Y-51222964D01*
X62044466Y-51984869D02*
X62120657Y-52022964D01*
X62273038Y-52022964D01*
X62349228Y-51984869D01*
X62387323Y-51946774D01*
X62425419Y-51870583D01*
X62425419Y-51642012D01*
X62387323Y-51565821D01*
X62349228Y-51527726D01*
X62273038Y-51489631D01*
X62120657Y-51489631D01*
X62044466Y-51527726D01*
X60596847Y-52022964D02*
X60863514Y-51642012D01*
X61053990Y-52022964D02*
X61053990Y-51222964D01*
X60749228Y-51222964D01*
X60673038Y-51261060D01*
X60634942Y-51299155D01*
X60596847Y-51375345D01*
X60596847Y-51489631D01*
X60634942Y-51565821D01*
X60673038Y-51603917D01*
X60749228Y-51642012D01*
X61053990Y-51642012D01*
X59834942Y-51261060D02*
X59911133Y-51222964D01*
X60025419Y-51222964D01*
X60139704Y-51261060D01*
X60215895Y-51337250D01*
X60253990Y-51413440D01*
X60292085Y-51565821D01*
X60292085Y-51680107D01*
X60253990Y-51832488D01*
X60215895Y-51908679D01*
X60139704Y-51984869D01*
X60025419Y-52022964D01*
X59949228Y-52022964D01*
X59834942Y-51984869D01*
X59796847Y-51946774D01*
X59796847Y-51680107D01*
X59949228Y-51680107D01*
X59187323Y-51603917D02*
X59073038Y-51642012D01*
X59034942Y-51680107D01*
X58996847Y-51756298D01*
X58996847Y-51870583D01*
X59034942Y-51946774D01*
X59073038Y-51984869D01*
X59149228Y-52022964D01*
X59453990Y-52022964D01*
X59453990Y-51222964D01*
X59187323Y-51222964D01*
X59111133Y-51261060D01*
X59073038Y-51299155D01*
X59034942Y-51375345D01*
X59034942Y-51451536D01*
X59073038Y-51527726D01*
X59111133Y-51565821D01*
X59187323Y-51603917D01*
X59453990Y-51603917D01*
X58044466Y-52022964D02*
X58044466Y-51222964D01*
X57853990Y-51222964D01*
X57739704Y-51261060D01*
X57663514Y-51337250D01*
X57625419Y-51413440D01*
X57587323Y-51565821D01*
X57587323Y-51680107D01*
X57625419Y-51832488D01*
X57663514Y-51908679D01*
X57739704Y-51984869D01*
X57853990Y-52022964D01*
X58044466Y-52022964D01*
X57244466Y-52022964D02*
X57244466Y-51222964D01*
X56863514Y-52022964D02*
X56863514Y-51222964D01*
X56406371Y-52022964D01*
X56406371Y-51222964D01*
X55911133Y-51565821D02*
X55987323Y-51527726D01*
X56025419Y-51489631D01*
X56063514Y-51413440D01*
X56063514Y-51375345D01*
X56025419Y-51299155D01*
X55987323Y-51261060D01*
X55911133Y-51222964D01*
X55758752Y-51222964D01*
X55682561Y-51261060D01*
X55644466Y-51299155D01*
X55606371Y-51375345D01*
X55606371Y-51413440D01*
X55644466Y-51489631D01*
X55682561Y-51527726D01*
X55758752Y-51565821D01*
X55911133Y-51565821D01*
X55987323Y-51603917D01*
X56025419Y-51642012D01*
X56063514Y-51718202D01*
X56063514Y-51870583D01*
X56025419Y-51946774D01*
X55987323Y-51984869D01*
X55911133Y-52022964D01*
X55758752Y-52022964D01*
X55682561Y-51984869D01*
X55644466Y-51946774D01*
X55606371Y-51870583D01*
X55606371Y-51718202D01*
X55644466Y-51642012D01*
X55682561Y-51603917D01*
X55758752Y-51565821D01*
X54653990Y-52022964D02*
X54653990Y-51222964D01*
X54653990Y-51527726D02*
X54577800Y-51489631D01*
X54425419Y-51489631D01*
X54349228Y-51527726D01*
X54311133Y-51565821D01*
X54273038Y-51642012D01*
X54273038Y-51870583D01*
X54311133Y-51946774D01*
X54349228Y-51984869D01*
X54425419Y-52022964D01*
X54577800Y-52022964D01*
X54653990Y-51984869D01*
X53587323Y-51489631D02*
X53587323Y-52022964D01*
X53930180Y-51489631D02*
X53930180Y-51908679D01*
X53892085Y-51984869D01*
X53815895Y-52022964D01*
X53701609Y-52022964D01*
X53625419Y-51984869D01*
X53587323Y-51946774D01*
X53320657Y-51489631D02*
X53015895Y-51489631D01*
X53206371Y-52022964D02*
X53206371Y-51337250D01*
X53168276Y-51261060D01*
X53092085Y-51222964D01*
X53015895Y-51222964D01*
X52863514Y-51489631D02*
X52558752Y-51489631D01*
X52749228Y-52022964D02*
X52749228Y-51337250D01*
X52711133Y-51261060D01*
X52634942Y-51222964D01*
X52558752Y-51222964D01*
X51987323Y-51984869D02*
X52063514Y-52022964D01*
X52215895Y-52022964D01*
X52292085Y-51984869D01*
X52330180Y-51908679D01*
X52330180Y-51603917D01*
X52292085Y-51527726D01*
X52215895Y-51489631D01*
X52063514Y-51489631D01*
X51987323Y-51527726D01*
X51949228Y-51603917D01*
X51949228Y-51680107D01*
X52330180Y-51756298D01*
X51606371Y-52022964D02*
X51606371Y-51489631D01*
X51606371Y-51642012D02*
X51568276Y-51565821D01*
X51530180Y-51527726D01*
X51453990Y-51489631D01*
X51377800Y-51489631D01*
X50615895Y-51489631D02*
X50311133Y-51489631D01*
X50501609Y-52022964D02*
X50501609Y-51337250D01*
X50463514Y-51261060D01*
X50387323Y-51222964D01*
X50311133Y-51222964D01*
X49930180Y-52022964D02*
X50006371Y-51984869D01*
X50044466Y-51946774D01*
X50082561Y-51870583D01*
X50082561Y-51642012D01*
X50044466Y-51565821D01*
X50006371Y-51527726D01*
X49930180Y-51489631D01*
X49815895Y-51489631D01*
X49739704Y-51527726D01*
X49701609Y-51565821D01*
X49663514Y-51642012D01*
X49663514Y-51870583D01*
X49701609Y-51946774D01*
X49739704Y-51984869D01*
X49815895Y-52022964D01*
X49930180Y-52022964D01*
X49320657Y-52022964D02*
X49320657Y-51489631D01*
X49320657Y-51642012D02*
X49282561Y-51565821D01*
X49244466Y-51527726D01*
X49168276Y-51489631D01*
X49092085Y-51489631D01*
X47758752Y-52022964D02*
X48025419Y-51642012D01*
X48215895Y-52022964D02*
X48215895Y-51222964D01*
X47911133Y-51222964D01*
X47834942Y-51261060D01*
X47796847Y-51299155D01*
X47758752Y-51375345D01*
X47758752Y-51489631D01*
X47796847Y-51565821D01*
X47834942Y-51603917D01*
X47911133Y-51642012D01*
X48215895Y-51642012D01*
X46996847Y-51261060D02*
X47073038Y-51222964D01*
X47187323Y-51222964D01*
X47301609Y-51261060D01*
X47377800Y-51337250D01*
X47415895Y-51413440D01*
X47453990Y-51565821D01*
X47453990Y-51680107D01*
X47415895Y-51832488D01*
X47377800Y-51908679D01*
X47301609Y-51984869D01*
X47187323Y-52022964D01*
X47111133Y-52022964D01*
X46996847Y-51984869D01*
X46958752Y-51946774D01*
X46958752Y-51680107D01*
X47111133Y-51680107D01*
X46349228Y-51603917D02*
X46234942Y-51642012D01*
X46196847Y-51680107D01*
X46158752Y-51756298D01*
X46158752Y-51870583D01*
X46196847Y-51946774D01*
X46234942Y-51984869D01*
X46311133Y-52022964D01*
X46615895Y-52022964D01*
X46615895Y-51222964D01*
X46349228Y-51222964D01*
X46273038Y-51261060D01*
X46234942Y-51299155D01*
X46196847Y-51375345D01*
X46196847Y-51451536D01*
X46234942Y-51527726D01*
X46273038Y-51565821D01*
X46349228Y-51603917D01*
X46615895Y-51603917D01*
X45930180Y-51489631D02*
X45625419Y-51489631D01*
X45815895Y-51222964D02*
X45815895Y-51908679D01*
X45777800Y-51984869D01*
X45701609Y-52022964D01*
X45625419Y-52022964D01*
X45244466Y-52022964D02*
X45320657Y-51984869D01*
X45358752Y-51946774D01*
X45396847Y-51870583D01*
X45396847Y-51642012D01*
X45358752Y-51565821D01*
X45320657Y-51527726D01*
X45244466Y-51489631D01*
X45130180Y-51489631D01*
X45053990Y-51527726D01*
X45015895Y-51565821D01*
X44977800Y-51642012D01*
X44977800Y-51870583D01*
X45015895Y-51946774D01*
X45053990Y-51984869D01*
X45130180Y-52022964D01*
X45244466Y-52022964D01*
X44634942Y-52022964D02*
X44634942Y-51222964D01*
X44634942Y-51603917D02*
X44177800Y-51603917D01*
X44177800Y-52022964D02*
X44177800Y-51222964D01*
X43796847Y-52022964D02*
X43796847Y-51222964D01*
X43606371Y-51222964D01*
X43492085Y-51261060D01*
X43415895Y-51337250D01*
X43377800Y-51413440D01*
X43339704Y-51565821D01*
X43339704Y-51680107D01*
X43377800Y-51832488D01*
X43415895Y-51908679D01*
X43492085Y-51984869D01*
X43606371Y-52022964D01*
X43796847Y-52022964D01*
X69066671Y-53686664D02*
X69066671Y-52886664D01*
X69066671Y-53191426D02*
X68990480Y-53153331D01*
X68838100Y-53153331D01*
X68761909Y-53191426D01*
X68723814Y-53229521D01*
X68685719Y-53305712D01*
X68685719Y-53534283D01*
X68723814Y-53610474D01*
X68761909Y-53648569D01*
X68838100Y-53686664D01*
X68990480Y-53686664D01*
X69066671Y-53648569D01*
X68000004Y-53686664D02*
X68000004Y-53267617D01*
X68038100Y-53191426D01*
X68114290Y-53153331D01*
X68266671Y-53153331D01*
X68342861Y-53191426D01*
X68000004Y-53648569D02*
X68076195Y-53686664D01*
X68266671Y-53686664D01*
X68342861Y-53648569D01*
X68380957Y-53572379D01*
X68380957Y-53496188D01*
X68342861Y-53419998D01*
X68266671Y-53381902D01*
X68076195Y-53381902D01*
X68000004Y-53343807D01*
X67657147Y-53648569D02*
X67580957Y-53686664D01*
X67428576Y-53686664D01*
X67352385Y-53648569D01*
X67314290Y-53572379D01*
X67314290Y-53534283D01*
X67352385Y-53458093D01*
X67428576Y-53419998D01*
X67542861Y-53419998D01*
X67619052Y-53381902D01*
X67657147Y-53305712D01*
X67657147Y-53267617D01*
X67619052Y-53191426D01*
X67542861Y-53153331D01*
X67428576Y-53153331D01*
X67352385Y-53191426D01*
X66666671Y-53648569D02*
X66742861Y-53686664D01*
X66895242Y-53686664D01*
X66971433Y-53648569D01*
X67009528Y-53572379D01*
X67009528Y-53267617D01*
X66971433Y-53191426D01*
X66895242Y-53153331D01*
X66742861Y-53153331D01*
X66666671Y-53191426D01*
X66628576Y-53267617D01*
X66628576Y-53343807D01*
X67009528Y-53419998D01*
X65942861Y-53686664D02*
X65942861Y-52886664D01*
X65942861Y-53648569D02*
X66019052Y-53686664D01*
X66171433Y-53686664D01*
X66247623Y-53648569D01*
X66285719Y-53610474D01*
X66323814Y-53534283D01*
X66323814Y-53305712D01*
X66285719Y-53229521D01*
X66247623Y-53191426D01*
X66171433Y-53153331D01*
X66019052Y-53153331D01*
X65942861Y-53191426D01*
X64838100Y-53686664D02*
X64914290Y-53648569D01*
X64952385Y-53610474D01*
X64990480Y-53534283D01*
X64990480Y-53305712D01*
X64952385Y-53229521D01*
X64914290Y-53191426D01*
X64838100Y-53153331D01*
X64723814Y-53153331D01*
X64647623Y-53191426D01*
X64609528Y-53229521D01*
X64571433Y-53305712D01*
X64571433Y-53534283D01*
X64609528Y-53610474D01*
X64647623Y-53648569D01*
X64723814Y-53686664D01*
X64838100Y-53686664D01*
X64228576Y-53153331D02*
X64228576Y-53686664D01*
X64228576Y-53229521D02*
X64190480Y-53191426D01*
X64114290Y-53153331D01*
X64000004Y-53153331D01*
X63923814Y-53191426D01*
X63885719Y-53267617D01*
X63885719Y-53686664D01*
X62895242Y-53686664D02*
X62895242Y-52886664D01*
X62590480Y-52886664D01*
X62514290Y-52924760D01*
X62476195Y-52962855D01*
X62438100Y-53039045D01*
X62438100Y-53153331D01*
X62476195Y-53229521D01*
X62514290Y-53267617D01*
X62590480Y-53305712D01*
X62895242Y-53305712D01*
X61638100Y-53610474D02*
X61676195Y-53648569D01*
X61790480Y-53686664D01*
X61866671Y-53686664D01*
X61980957Y-53648569D01*
X62057147Y-53572379D01*
X62095242Y-53496188D01*
X62133338Y-53343807D01*
X62133338Y-53229521D01*
X62095242Y-53077140D01*
X62057147Y-53000950D01*
X61980957Y-52924760D01*
X61866671Y-52886664D01*
X61790480Y-52886664D01*
X61676195Y-52924760D01*
X61638100Y-52962855D01*
X60685719Y-53686664D02*
X60685719Y-52886664D01*
X60685719Y-53191426D02*
X60609528Y-53153331D01*
X60457147Y-53153331D01*
X60380957Y-53191426D01*
X60342861Y-53229521D01*
X60304766Y-53305712D01*
X60304766Y-53534283D01*
X60342861Y-53610474D01*
X60380957Y-53648569D01*
X60457147Y-53686664D01*
X60609528Y-53686664D01*
X60685719Y-53648569D01*
X59619052Y-53153331D02*
X59619052Y-53686664D01*
X59961909Y-53153331D02*
X59961909Y-53572379D01*
X59923814Y-53648569D01*
X59847623Y-53686664D01*
X59733338Y-53686664D01*
X59657147Y-53648569D01*
X59619052Y-53610474D01*
X59352385Y-53153331D02*
X59047623Y-53153331D01*
X59238100Y-53686664D02*
X59238100Y-53000950D01*
X59200004Y-52924760D01*
X59123814Y-52886664D01*
X59047623Y-52886664D01*
X58895242Y-53153331D02*
X58590480Y-53153331D01*
X58780957Y-53686664D02*
X58780957Y-53000950D01*
X58742861Y-52924760D01*
X58666671Y-52886664D01*
X58590480Y-52886664D01*
X58019052Y-53648569D02*
X58095242Y-53686664D01*
X58247623Y-53686664D01*
X58323814Y-53648569D01*
X58361909Y-53572379D01*
X58361909Y-53267617D01*
X58323814Y-53191426D01*
X58247623Y-53153331D01*
X58095242Y-53153331D01*
X58019052Y-53191426D01*
X57980957Y-53267617D01*
X57980957Y-53343807D01*
X58361909Y-53419998D01*
X57638100Y-53686664D02*
X57638100Y-53153331D01*
X57638100Y-53305712D02*
X57600004Y-53229521D01*
X57561909Y-53191426D01*
X57485719Y-53153331D01*
X57409528Y-53153331D01*
X56533338Y-53686664D02*
X56533338Y-52886664D01*
X56533338Y-53191426D02*
X56457147Y-53153331D01*
X56304766Y-53153331D01*
X56228576Y-53191426D01*
X56190480Y-53229521D01*
X56152385Y-53305712D01*
X56152385Y-53534283D01*
X56190480Y-53610474D01*
X56228576Y-53648569D01*
X56304766Y-53686664D01*
X56457147Y-53686664D01*
X56533338Y-53648569D01*
X55695242Y-53686664D02*
X55771433Y-53648569D01*
X55809528Y-53610474D01*
X55847623Y-53534283D01*
X55847623Y-53305712D01*
X55809528Y-53229521D01*
X55771433Y-53191426D01*
X55695242Y-53153331D01*
X55580957Y-53153331D01*
X55504766Y-53191426D01*
X55466671Y-53229521D01*
X55428576Y-53305712D01*
X55428576Y-53534283D01*
X55466671Y-53610474D01*
X55504766Y-53648569D01*
X55580957Y-53686664D01*
X55695242Y-53686664D01*
X54742861Y-53686664D02*
X54742861Y-53267617D01*
X54780957Y-53191426D01*
X54857147Y-53153331D01*
X55009528Y-53153331D01*
X55085719Y-53191426D01*
X54742861Y-53648569D02*
X54819052Y-53686664D01*
X55009528Y-53686664D01*
X55085719Y-53648569D01*
X55123814Y-53572379D01*
X55123814Y-53496188D01*
X55085719Y-53419998D01*
X55009528Y-53381902D01*
X54819052Y-53381902D01*
X54742861Y-53343807D01*
X54361909Y-53686664D02*
X54361909Y-53153331D01*
X54361909Y-53305712D02*
X54323814Y-53229521D01*
X54285719Y-53191426D01*
X54209528Y-53153331D01*
X54133338Y-53153331D01*
X53523814Y-53686664D02*
X53523814Y-52886664D01*
X53523814Y-53648569D02*
X53600004Y-53686664D01*
X53752385Y-53686664D01*
X53828576Y-53648569D01*
X53866671Y-53610474D01*
X53904766Y-53534283D01*
X53904766Y-53305712D01*
X53866671Y-53229521D01*
X53828576Y-53191426D01*
X53752385Y-53153331D01*
X53600004Y-53153331D01*
X53523814Y-53191426D01*
X53104766Y-53648569D02*
X53104766Y-53686664D01*
X53142861Y-53762855D01*
X53180957Y-53800950D01*
X52152385Y-53686664D02*
X52152385Y-52886664D01*
X51809528Y-53648569D02*
X51733338Y-53686664D01*
X51580957Y-53686664D01*
X51504766Y-53648569D01*
X51466671Y-53572379D01*
X51466671Y-53534283D01*
X51504766Y-53458093D01*
X51580957Y-53419998D01*
X51695242Y-53419998D01*
X51771433Y-53381902D01*
X51809528Y-53305712D01*
X51809528Y-53267617D01*
X51771433Y-53191426D01*
X51695242Y-53153331D01*
X51580957Y-53153331D01*
X51504766Y-53191426D01*
X51161909Y-53648569D02*
X51085719Y-53686664D01*
X50933338Y-53686664D01*
X50857147Y-53648569D01*
X50819052Y-53572379D01*
X50819052Y-53534283D01*
X50857147Y-53458093D01*
X50933338Y-53419998D01*
X51047623Y-53419998D01*
X51123814Y-53381902D01*
X51161909Y-53305712D01*
X51161909Y-53267617D01*
X51123814Y-53191426D01*
X51047623Y-53153331D01*
X50933338Y-53153331D01*
X50857147Y-53191426D01*
X50133338Y-53153331D02*
X50133338Y-53686664D01*
X50476195Y-53153331D02*
X50476195Y-53572379D01*
X50438100Y-53648569D01*
X50361909Y-53686664D01*
X50247623Y-53686664D01*
X50171433Y-53648569D01*
X50133338Y-53610474D01*
X49447623Y-53648569D02*
X49523814Y-53686664D01*
X49676195Y-53686664D01*
X49752385Y-53648569D01*
X49790480Y-53572379D01*
X49790480Y-53267617D01*
X49752385Y-53191426D01*
X49676195Y-53153331D01*
X49523814Y-53153331D01*
X49447623Y-53191426D01*
X49409528Y-53267617D01*
X49409528Y-53343807D01*
X49790480Y-53419998D01*
X48495242Y-52962855D02*
X48457147Y-52924760D01*
X48380957Y-52886664D01*
X48190480Y-52886664D01*
X48114290Y-52924760D01*
X48076195Y-52962855D01*
X48038100Y-53039045D01*
X48038100Y-53115236D01*
X48076195Y-53229521D01*
X48533338Y-53686664D01*
X48038100Y-53686664D01*
X46438100Y-53077140D02*
X46514290Y-53039045D01*
X46666671Y-53039045D01*
X46742861Y-53077140D01*
X46819052Y-53153331D01*
X46857147Y-53229521D01*
X46857147Y-53381902D01*
X46819052Y-53458093D01*
X46742861Y-53534283D01*
X46666671Y-53572379D01*
X46514290Y-53572379D01*
X46438100Y-53534283D01*
X46590480Y-52772379D02*
X46780957Y-52810474D01*
X46971433Y-52924760D01*
X47085719Y-53115236D01*
X47123814Y-53305712D01*
X47085719Y-53496188D01*
X46971433Y-53686664D01*
X46780957Y-53800950D01*
X46590480Y-53839045D01*
X46400004Y-53800950D01*
X46209528Y-53686664D01*
X46095242Y-53496188D01*
X46057147Y-53305712D01*
X46095242Y-53115236D01*
X46209528Y-52924760D01*
X46400004Y-52810474D01*
X46590480Y-52772379D01*
X45752385Y-52962855D02*
X45714290Y-52924760D01*
X45638099Y-52886664D01*
X45447623Y-52886664D01*
X45371433Y-52924760D01*
X45333338Y-52962855D01*
X45295242Y-53039045D01*
X45295242Y-53115236D01*
X45333338Y-53229521D01*
X45790480Y-53686664D01*
X45295242Y-53686664D01*
X44800004Y-52886664D02*
X44723814Y-52886664D01*
X44647623Y-52924760D01*
X44609528Y-52962855D01*
X44571433Y-53039045D01*
X44533338Y-53191426D01*
X44533338Y-53381902D01*
X44571433Y-53534283D01*
X44609528Y-53610474D01*
X44647623Y-53648569D01*
X44723814Y-53686664D01*
X44800004Y-53686664D01*
X44876195Y-53648569D01*
X44914290Y-53610474D01*
X44952385Y-53534283D01*
X44990480Y-53381902D01*
X44990480Y-53191426D01*
X44952385Y-53039045D01*
X44914290Y-52962855D01*
X44876195Y-52924760D01*
X44800004Y-52886664D01*
X44228576Y-52962855D02*
X44190480Y-52924760D01*
X44114290Y-52886664D01*
X43923814Y-52886664D01*
X43847623Y-52924760D01*
X43809528Y-52962855D01*
X43771433Y-53039045D01*
X43771433Y-53115236D01*
X43809528Y-53229521D01*
X44266671Y-53686664D01*
X43771433Y-53686664D01*
X43276195Y-52886664D02*
X43200004Y-52886664D01*
X43123814Y-52924760D01*
X43085719Y-52962855D01*
X43047623Y-53039045D01*
X43009528Y-53191426D01*
X43009528Y-53381902D01*
X43047623Y-53534283D01*
X43085719Y-53610474D01*
X43123814Y-53648569D01*
X43200004Y-53686664D01*
X43276195Y-53686664D01*
X43352385Y-53648569D01*
X43390480Y-53610474D01*
X43428576Y-53534283D01*
X43466671Y-53381902D01*
X43466671Y-53191426D01*
X43428576Y-53039045D01*
X43390480Y-52962855D01*
X43352385Y-52924760D01*
X43276195Y-52886664D01*
X42057147Y-53686664D02*
X42057147Y-52886664D01*
X41333338Y-53686664D02*
X41333338Y-53267617D01*
X41371433Y-53191426D01*
X41447623Y-53153331D01*
X41600004Y-53153331D01*
X41676195Y-53191426D01*
X41333338Y-53648569D02*
X41409528Y-53686664D01*
X41600004Y-53686664D01*
X41676195Y-53648569D01*
X41714290Y-53572379D01*
X41714290Y-53496188D01*
X41676195Y-53419998D01*
X41600004Y-53381902D01*
X41409528Y-53381902D01*
X41333338Y-53343807D01*
X40952385Y-53153331D02*
X40952385Y-53686664D01*
X40952385Y-53229521D02*
X40914290Y-53191426D01*
X40838099Y-53153331D01*
X40723814Y-53153331D01*
X40647623Y-53191426D01*
X40609528Y-53267617D01*
X40609528Y-53686664D01*
X39961909Y-53267617D02*
X39847623Y-53305712D01*
X39809528Y-53343807D01*
X39771433Y-53419998D01*
X39771433Y-53534283D01*
X39809528Y-53610474D01*
X39847623Y-53648569D01*
X39923814Y-53686664D01*
X40228576Y-53686664D01*
X40228576Y-52886664D01*
X39961909Y-52886664D01*
X39885719Y-52924760D01*
X39847623Y-52962855D01*
X39809528Y-53039045D01*
X39809528Y-53115236D01*
X39847623Y-53191426D01*
X39885719Y-53229521D01*
X39961909Y-53267617D01*
X40228576Y-53267617D01*
X77370800Y-31471560D02*
X77370800Y-34131560D01*
X77310800Y-31471560D02*
X77370800Y-31471560D01*
X77310800Y-34131560D02*
X77370800Y-34131560D01*
X77310800Y-31471560D02*
X77310800Y-34131560D01*
X76040800Y-31471560D02*
X74710800Y-31471560D01*
X74710800Y-31471560D02*
X74710800Y-32801560D01*
X74660000Y-44450960D02*
X74660000Y-45780960D01*
X75990000Y-44450960D02*
X74660000Y-44450960D01*
X77260000Y-44450960D02*
X77260000Y-47110960D01*
X77260000Y-47110960D02*
X77320000Y-47110960D01*
X77260000Y-44450960D02*
X77320000Y-44450960D01*
X77320000Y-44450960D02*
X77320000Y-47110960D01*
D12*
X74308780Y-32012664D02*
X73308780Y-32012664D01*
X73308780Y-32393617D01*
X73356400Y-32488855D01*
X73404019Y-32536474D01*
X73499257Y-32584093D01*
X73642114Y-32584093D01*
X73737352Y-32536474D01*
X73784971Y-32488855D01*
X73832590Y-32393617D01*
X73832590Y-32012664D01*
X73308780Y-32917426D02*
X73308780Y-33584093D01*
X74308780Y-33155521D01*
X74112380Y-45042864D02*
X73112380Y-45042864D01*
X73112380Y-45423817D01*
X73160000Y-45519055D01*
X73207619Y-45566674D01*
X73302857Y-45614293D01*
X73445714Y-45614293D01*
X73540952Y-45566674D01*
X73588571Y-45519055D01*
X73636190Y-45423817D01*
X73636190Y-45042864D01*
X73112380Y-46471436D02*
X73112380Y-46280960D01*
X73160000Y-46185721D01*
X73207619Y-46138102D01*
X73350476Y-46042864D01*
X73540952Y-45995245D01*
X73921904Y-45995245D01*
X74017142Y-46042864D01*
X74064761Y-46090483D01*
X74112380Y-46185721D01*
X74112380Y-46376198D01*
X74064761Y-46471436D01*
X74017142Y-46519055D01*
X73921904Y-46566674D01*
X73683809Y-46566674D01*
X73588571Y-46519055D01*
X73540952Y-46471436D01*
X73493333Y-46376198D01*
X73493333Y-46185721D01*
X73540952Y-46090483D01*
X73588571Y-46042864D01*
X73683809Y-45995245D01*
M02*
