M48
; DRILL file {KiCad (5.1.12)-1} date 11/21/21 19:42:27
; FORMAT={-:-/ absolute / inch / decimal}
; #@! TF.CreationDate,2021-11-21T19:42:27+01:00
; #@! TF.GenerationSoftware,Kicad,Pcbnew,(5.1.12)-1
; #@! TF.FileFunction,Plated,1,2,PTH
FMAT,2
INCH
T1C0.0120
T2C0.0150
T3C0.0300
T4C0.0315
T5C0.0394
%
G90
G05
T1
X3.0417Y-1.6224
X3.1317Y-1.6324
X3.2817Y-1.4724
T2
X1.831Y-1.3542
X2.3115Y-1.2874
T3
X3.1317Y-1.6324
X3.2317Y-1.3324
X3.2317Y-1.5324
X3.2317Y-1.7324
X3.2317Y-1.9324
X3.3317Y-1.4324
X3.3317Y-1.6324
X3.3317Y-1.8324
X3.7317Y-1.5324
X3.7317Y-1.7324
T4
X2.2117Y-1.3984
X2.2117Y-1.4984
X2.2117Y-1.5984
X2.2117Y-1.6984
X2.2117Y-1.7984
X2.3237Y-1.3984
X2.3237Y-1.4984
X2.3237Y-1.5984
X2.3237Y-1.6984
X2.3237Y-1.7984
T5
X1.4887Y-1.3534
X1.4887Y-1.4534
X1.4887Y-1.5534
X1.4887Y-1.6534
X1.4887Y-1.7534
X1.4887Y-1.8534
X1.5887Y-1.3534
X1.5887Y-1.4534
X1.5887Y-1.5534
X1.5887Y-1.6534
X1.5887Y-1.7534
X1.5887Y-1.8534
X2.6227Y-1.5004
X2.6227Y-1.6004
X2.6227Y-1.7004
X2.6227Y-1.8004
X2.9917Y-1.8024
X2.9937Y-1.2914
T0
M30
