G04 #@! TF.GenerationSoftware,KiCad,Pcbnew,(5.1.12)-1*
G04 #@! TF.CreationDate,2021-11-21T19:42:23+01:00*
G04 #@! TF.ProjectId,buffer,62756666-6572-42e6-9b69-6361645f7063,rev?*
G04 #@! TF.SameCoordinates,Original*
G04 #@! TF.FileFunction,Copper,L2,Bot*
G04 #@! TF.FilePolarity,Positive*
%FSLAX46Y46*%
G04 Gerber Fmt 4.6, Leading zero omitted, Abs format (unit mm)*
G04 Created by KiCad (PCBNEW (5.1.12)-1) date 2021-11-21 19:42:23*
%MOMM*%
%LPD*%
G01*
G04 APERTURE LIST*
G04 #@! TA.AperFunction,ComponentPad*
%ADD10O,1.700000X1.700000*%
G04 #@! TD*
G04 #@! TA.AperFunction,ComponentPad*
%ADD11R,1.700000X1.700000*%
G04 #@! TD*
G04 #@! TA.AperFunction,ComponentPad*
%ADD12R,1.600000X1.600000*%
G04 #@! TD*
G04 #@! TA.AperFunction,ComponentPad*
%ADD13O,1.600000X1.600000*%
G04 #@! TD*
G04 #@! TA.AperFunction,ComponentPad*
%ADD14C,1.524000*%
G04 #@! TD*
G04 #@! TA.AperFunction,ViaPad*
%ADD15C,0.762000*%
G04 #@! TD*
G04 #@! TA.AperFunction,ViaPad*
%ADD16C,0.660400*%
G04 #@! TD*
G04 #@! TA.AperFunction,Conductor*
%ADD17C,0.381000*%
G04 #@! TD*
G04 #@! TA.AperFunction,Conductor*
%ADD18C,0.254000*%
G04 #@! TD*
G04 #@! TA.AperFunction,Conductor*
%ADD19C,0.100000*%
G04 #@! TD*
G04 APERTURE END LIST*
D10*
X66617400Y-45730160D03*
X66617400Y-43190160D03*
X66617400Y-40650160D03*
D11*
X66617400Y-38110160D03*
D12*
X56178000Y-45679360D03*
D13*
X56178000Y-43139360D03*
X56178000Y-40599360D03*
X56178000Y-38059360D03*
X56178000Y-35519360D03*
D11*
X40353800Y-34376360D03*
D10*
X37813800Y-34376360D03*
X40353800Y-36916360D03*
X37813800Y-36916360D03*
X40353800Y-39456360D03*
X37813800Y-39456360D03*
X40353800Y-41996360D03*
X37813800Y-41996360D03*
X40353800Y-44536360D03*
X37813800Y-44536360D03*
X40353800Y-47076360D03*
X37813800Y-47076360D03*
D11*
X76040800Y-32801560D03*
D13*
X59022800Y-35519360D03*
X59022800Y-38059360D03*
X59022800Y-40599360D03*
X59022800Y-43139360D03*
D12*
X59022800Y-45679360D03*
D14*
X82086000Y-33842960D03*
X84626000Y-36382960D03*
X82086000Y-38922960D03*
X84626000Y-41462960D03*
X82086000Y-44002960D03*
X84626000Y-46542960D03*
X82086000Y-49082960D03*
X94786000Y-38922960D03*
X94786000Y-44002960D03*
X79546000Y-41462960D03*
D11*
X75990000Y-45780960D03*
D15*
X46507000Y-34395960D03*
X58712000Y-32700960D03*
D16*
X83356000Y-37398960D03*
X77260000Y-41208960D03*
X79546000Y-41462960D03*
D17*
X48202000Y-32700960D02*
X58712000Y-32700960D01*
X46507000Y-34395960D02*
X48202000Y-32700960D01*
X56178000Y-45679360D02*
X59022800Y-45679360D01*
X83369275Y-42719685D02*
X82086000Y-44002960D01*
X83356000Y-42706410D02*
X83369275Y-42719685D01*
X83356000Y-37398960D02*
X83356000Y-42706410D01*
X37813800Y-41996360D02*
X38513122Y-41996360D01*
X82086000Y-36382960D02*
X82086000Y-33842960D01*
X77260000Y-41208960D02*
X82086000Y-36382960D01*
D18*
X58795001Y-32793303D02*
X58795000Y-32793313D01*
X58795000Y-33555313D01*
X58791686Y-33588960D01*
X58804912Y-33723243D01*
X58844081Y-33852366D01*
X58907688Y-33971367D01*
X58993289Y-34075671D01*
X59003876Y-34084360D01*
X58881465Y-34084360D01*
X58604226Y-34139507D01*
X58343073Y-34247680D01*
X58108041Y-34404723D01*
X57908163Y-34604601D01*
X57751120Y-34839633D01*
X57642947Y-35100786D01*
X57600400Y-35314681D01*
X57557853Y-35100786D01*
X57449680Y-34839633D01*
X57292637Y-34604601D01*
X57092759Y-34404723D01*
X56857727Y-34247680D01*
X56596574Y-34139507D01*
X56319335Y-34084360D01*
X56036665Y-34084360D01*
X55759426Y-34139507D01*
X55498273Y-34247680D01*
X55263241Y-34404723D01*
X55063363Y-34604601D01*
X54906320Y-34839633D01*
X54798147Y-35100786D01*
X54743000Y-35378025D01*
X54743000Y-35660695D01*
X54798147Y-35937934D01*
X54906320Y-36199087D01*
X55063363Y-36434119D01*
X55263241Y-36633997D01*
X55495759Y-36789360D01*
X55263241Y-36944723D01*
X55063363Y-37144601D01*
X54906320Y-37379633D01*
X54798147Y-37640786D01*
X54743000Y-37918025D01*
X54743000Y-38200695D01*
X54798147Y-38477934D01*
X54906320Y-38739087D01*
X55063363Y-38974119D01*
X55263241Y-39173997D01*
X55495759Y-39329360D01*
X55263241Y-39484723D01*
X55063363Y-39684601D01*
X54906320Y-39919633D01*
X54798147Y-40180786D01*
X54743000Y-40458025D01*
X54743000Y-40740695D01*
X54798147Y-41017934D01*
X54906320Y-41279087D01*
X55063363Y-41514119D01*
X55263241Y-41713997D01*
X55495759Y-41869360D01*
X55263241Y-42024723D01*
X55063363Y-42224601D01*
X54906320Y-42459633D01*
X54798147Y-42720786D01*
X54743000Y-42998025D01*
X54743000Y-43280695D01*
X54798147Y-43557934D01*
X54906320Y-43819087D01*
X55063363Y-44054119D01*
X55261961Y-44252717D01*
X55253518Y-44253548D01*
X55133820Y-44289858D01*
X55023506Y-44348823D01*
X54926815Y-44428175D01*
X54847463Y-44524866D01*
X54788498Y-44635180D01*
X54752188Y-44754878D01*
X54739928Y-44879360D01*
X54743000Y-45393610D01*
X54901750Y-45552360D01*
X56051000Y-45552360D01*
X56051000Y-45532360D01*
X56305000Y-45532360D01*
X56305000Y-45552360D01*
X57454250Y-45552360D01*
X57600400Y-45406210D01*
X57746550Y-45552360D01*
X58895800Y-45552360D01*
X58895800Y-45532360D01*
X59149800Y-45532360D01*
X59149800Y-45552360D01*
X60299050Y-45552360D01*
X60457800Y-45393610D01*
X60460872Y-44879360D01*
X60448612Y-44754878D01*
X60412302Y-44635180D01*
X60353337Y-44524866D01*
X60273985Y-44428175D01*
X60177294Y-44348823D01*
X60066980Y-44289858D01*
X59947282Y-44253548D01*
X59938839Y-44252717D01*
X60137437Y-44054119D01*
X60294480Y-43819087D01*
X60402653Y-43557934D01*
X60457800Y-43280695D01*
X60457800Y-42998025D01*
X60402653Y-42720786D01*
X60294480Y-42459633D01*
X60137437Y-42224601D01*
X59937559Y-42024723D01*
X59705041Y-41869360D01*
X59937559Y-41713997D01*
X60137437Y-41514119D01*
X60294480Y-41279087D01*
X60402653Y-41017934D01*
X60457800Y-40740695D01*
X60457800Y-40458025D01*
X60402653Y-40180786D01*
X60294480Y-39919633D01*
X60137437Y-39684601D01*
X59937559Y-39484723D01*
X59705041Y-39329360D01*
X59937559Y-39173997D01*
X60137437Y-38974119D01*
X60294480Y-38739087D01*
X60402653Y-38477934D01*
X60457800Y-38200695D01*
X60457800Y-37918025D01*
X60402653Y-37640786D01*
X60294480Y-37379633D01*
X60214651Y-37260160D01*
X65129328Y-37260160D01*
X65129328Y-38960160D01*
X65141588Y-39084642D01*
X65177898Y-39204340D01*
X65236863Y-39314654D01*
X65316215Y-39411345D01*
X65412906Y-39490697D01*
X65523220Y-39549662D01*
X65595780Y-39571673D01*
X65463925Y-39703528D01*
X65301410Y-39946749D01*
X65189468Y-40217002D01*
X65132400Y-40503900D01*
X65132400Y-40796420D01*
X65189468Y-41083318D01*
X65301410Y-41353571D01*
X65463925Y-41596792D01*
X65670768Y-41803635D01*
X65845160Y-41920160D01*
X65670768Y-42036685D01*
X65463925Y-42243528D01*
X65301410Y-42486749D01*
X65189468Y-42757002D01*
X65132400Y-43043900D01*
X65132400Y-43336420D01*
X65189468Y-43623318D01*
X65301410Y-43893571D01*
X65463925Y-44136792D01*
X65670768Y-44343635D01*
X65845160Y-44460160D01*
X65670768Y-44576685D01*
X65463925Y-44783528D01*
X65301410Y-45026749D01*
X65189468Y-45297002D01*
X65132400Y-45583900D01*
X65132400Y-45876420D01*
X65189468Y-46163318D01*
X65301410Y-46433571D01*
X65463925Y-46676792D01*
X65670768Y-46883635D01*
X65913989Y-47046150D01*
X66184242Y-47158092D01*
X66471140Y-47215160D01*
X66763660Y-47215160D01*
X67050558Y-47158092D01*
X67320811Y-47046150D01*
X67564032Y-46883635D01*
X67770875Y-46676792D01*
X67933390Y-46433571D01*
X68045332Y-46163318D01*
X68102400Y-45876420D01*
X68102400Y-45583900D01*
X68045332Y-45297002D01*
X67933390Y-45026749D01*
X67869386Y-44930960D01*
X74501928Y-44930960D01*
X74501928Y-46630960D01*
X74514188Y-46755442D01*
X74550498Y-46875140D01*
X74609463Y-46985454D01*
X74688815Y-47082145D01*
X74785506Y-47161497D01*
X74895820Y-47220462D01*
X75015518Y-47256772D01*
X75140000Y-47269032D01*
X76840000Y-47269032D01*
X76964482Y-47256772D01*
X77084180Y-47220462D01*
X77194494Y-47161497D01*
X77291185Y-47082145D01*
X77370537Y-46985454D01*
X77429502Y-46875140D01*
X77465812Y-46755442D01*
X77478072Y-46630960D01*
X77478072Y-46405368D01*
X83229000Y-46405368D01*
X83229000Y-46680552D01*
X83282686Y-46950450D01*
X83387995Y-47204687D01*
X83540880Y-47433495D01*
X83735465Y-47628080D01*
X83964273Y-47780965D01*
X84218510Y-47886274D01*
X84488408Y-47939960D01*
X84763592Y-47939960D01*
X85033490Y-47886274D01*
X85287727Y-47780965D01*
X85516535Y-47628080D01*
X85711120Y-47433495D01*
X85864005Y-47204687D01*
X85969314Y-46950450D01*
X86023000Y-46680552D01*
X86023000Y-46405368D01*
X85969314Y-46135470D01*
X85864005Y-45881233D01*
X85711120Y-45652425D01*
X85516535Y-45457840D01*
X85287727Y-45304955D01*
X85033490Y-45199646D01*
X84763592Y-45145960D01*
X84488408Y-45145960D01*
X84218510Y-45199646D01*
X83964273Y-45304955D01*
X83735465Y-45457840D01*
X83540880Y-45652425D01*
X83387995Y-45881233D01*
X83282686Y-46135470D01*
X83229000Y-46405368D01*
X77478072Y-46405368D01*
X77478072Y-44930960D01*
X77465812Y-44806478D01*
X77429502Y-44686780D01*
X77370537Y-44576466D01*
X77291185Y-44479775D01*
X77194494Y-44400423D01*
X77084180Y-44341458D01*
X76964482Y-44305148D01*
X76840000Y-44292888D01*
X75140000Y-44292888D01*
X75015518Y-44305148D01*
X74895820Y-44341458D01*
X74785506Y-44400423D01*
X74688815Y-44479775D01*
X74609463Y-44576466D01*
X74550498Y-44686780D01*
X74514188Y-44806478D01*
X74501928Y-44930960D01*
X67869386Y-44930960D01*
X67770875Y-44783528D01*
X67564032Y-44576685D01*
X67389640Y-44460160D01*
X67564032Y-44343635D01*
X67770875Y-44136792D01*
X67933390Y-43893571D01*
X68045332Y-43623318D01*
X68102400Y-43336420D01*
X68102400Y-43043900D01*
X68045332Y-42757002D01*
X67933390Y-42486749D01*
X67770875Y-42243528D01*
X67564032Y-42036685D01*
X67389640Y-41920160D01*
X67564032Y-41803635D01*
X67770875Y-41596792D01*
X67933390Y-41353571D01*
X68032666Y-41113896D01*
X76294800Y-41113896D01*
X76294800Y-41304024D01*
X76331892Y-41490498D01*
X76404651Y-41666154D01*
X76510280Y-41824239D01*
X76644721Y-41958680D01*
X76802806Y-42064309D01*
X76978462Y-42137068D01*
X77164936Y-42174160D01*
X77355064Y-42174160D01*
X77541538Y-42137068D01*
X77717194Y-42064309D01*
X77875279Y-41958680D01*
X78009720Y-41824239D01*
X78115349Y-41666154D01*
X78149000Y-41584913D01*
X78149000Y-41600552D01*
X78202686Y-41870450D01*
X78307995Y-42124687D01*
X78460880Y-42353495D01*
X78655465Y-42548080D01*
X78884273Y-42700965D01*
X79138510Y-42806274D01*
X79408408Y-42859960D01*
X79683592Y-42859960D01*
X79953490Y-42806274D01*
X80207727Y-42700965D01*
X80436535Y-42548080D01*
X80631120Y-42353495D01*
X80784005Y-42124687D01*
X80889314Y-41870450D01*
X80943000Y-41600552D01*
X80943000Y-41325368D01*
X80889314Y-41055470D01*
X80784005Y-40801233D01*
X80631120Y-40572425D01*
X80436535Y-40377840D01*
X80207727Y-40224955D01*
X79953490Y-40119646D01*
X79683592Y-40065960D01*
X79570433Y-40065960D01*
X80689000Y-38947393D01*
X80689000Y-39060552D01*
X80742686Y-39330450D01*
X80847995Y-39584687D01*
X81000880Y-39813495D01*
X81195465Y-40008080D01*
X81424273Y-40160965D01*
X81678510Y-40266274D01*
X81948408Y-40319960D01*
X82223592Y-40319960D01*
X82493490Y-40266274D01*
X82530501Y-40250944D01*
X82530501Y-42391025D01*
X82300307Y-42621220D01*
X82223592Y-42605960D01*
X81948408Y-42605960D01*
X81678510Y-42659646D01*
X81424273Y-42764955D01*
X81195465Y-42917840D01*
X81000880Y-43112425D01*
X80847995Y-43341233D01*
X80742686Y-43595470D01*
X80689000Y-43865368D01*
X80689000Y-44140552D01*
X80742686Y-44410450D01*
X80847995Y-44664687D01*
X81000880Y-44893495D01*
X81195465Y-45088080D01*
X81424273Y-45240965D01*
X81678510Y-45346274D01*
X81948408Y-45399960D01*
X82223592Y-45399960D01*
X82493490Y-45346274D01*
X82747727Y-45240965D01*
X82976535Y-45088080D01*
X83171120Y-44893495D01*
X83324005Y-44664687D01*
X83429314Y-44410450D01*
X83483000Y-44140552D01*
X83483000Y-43865368D01*
X93389000Y-43865368D01*
X93389000Y-44140552D01*
X93442686Y-44410450D01*
X93547995Y-44664687D01*
X93700880Y-44893495D01*
X93895465Y-45088080D01*
X94124273Y-45240965D01*
X94378510Y-45346274D01*
X94648408Y-45399960D01*
X94923592Y-45399960D01*
X95193490Y-45346274D01*
X95447727Y-45240965D01*
X95676535Y-45088080D01*
X95871120Y-44893495D01*
X96024005Y-44664687D01*
X96129314Y-44410450D01*
X96183000Y-44140552D01*
X96183000Y-43865368D01*
X96129314Y-43595470D01*
X96024005Y-43341233D01*
X95871120Y-43112425D01*
X95676535Y-42917840D01*
X95447727Y-42764955D01*
X95193490Y-42659646D01*
X94923592Y-42605960D01*
X94648408Y-42605960D01*
X94378510Y-42659646D01*
X94124273Y-42764955D01*
X93895465Y-42917840D01*
X93700880Y-43112425D01*
X93547995Y-43341233D01*
X93442686Y-43595470D01*
X93389000Y-43865368D01*
X83483000Y-43865368D01*
X83467740Y-43788653D01*
X83924320Y-43332074D01*
X83955816Y-43306226D01*
X83981664Y-43274730D01*
X83981667Y-43274727D01*
X84058974Y-43180528D01*
X84135628Y-43037119D01*
X84182830Y-42881512D01*
X84191401Y-42794488D01*
X84423135Y-42851983D01*
X84698017Y-42864870D01*
X84970133Y-42823882D01*
X85229023Y-42730596D01*
X85344980Y-42668616D01*
X85411960Y-42428525D01*
X84626000Y-41642565D01*
X84611858Y-41656708D01*
X84432253Y-41477103D01*
X84446395Y-41462960D01*
X84805605Y-41462960D01*
X85591565Y-42248920D01*
X85831656Y-42181940D01*
X85948756Y-41932912D01*
X86015023Y-41665825D01*
X86027910Y-41390943D01*
X85986922Y-41118827D01*
X85893636Y-40859937D01*
X85831656Y-40743980D01*
X85591565Y-40677000D01*
X84805605Y-41462960D01*
X84446395Y-41462960D01*
X84432253Y-41448818D01*
X84611858Y-41269213D01*
X84626000Y-41283355D01*
X85411960Y-40497395D01*
X85344980Y-40257304D01*
X85095952Y-40140204D01*
X84828865Y-40073937D01*
X84553983Y-40061050D01*
X84281867Y-40102038D01*
X84181500Y-40138203D01*
X84181500Y-38785368D01*
X93389000Y-38785368D01*
X93389000Y-39060552D01*
X93442686Y-39330450D01*
X93547995Y-39584687D01*
X93700880Y-39813495D01*
X93895465Y-40008080D01*
X94124273Y-40160965D01*
X94378510Y-40266274D01*
X94648408Y-40319960D01*
X94923592Y-40319960D01*
X95193490Y-40266274D01*
X95447727Y-40160965D01*
X95676535Y-40008080D01*
X95871120Y-39813495D01*
X96024005Y-39584687D01*
X96129314Y-39330450D01*
X96183000Y-39060552D01*
X96183000Y-38785368D01*
X96129314Y-38515470D01*
X96024005Y-38261233D01*
X95871120Y-38032425D01*
X95676535Y-37837840D01*
X95447727Y-37684955D01*
X95193490Y-37579646D01*
X94923592Y-37525960D01*
X94648408Y-37525960D01*
X94378510Y-37579646D01*
X94124273Y-37684955D01*
X93895465Y-37837840D01*
X93700880Y-38032425D01*
X93547995Y-38261233D01*
X93442686Y-38515470D01*
X93389000Y-38785368D01*
X84181500Y-38785368D01*
X84181500Y-37900826D01*
X84211349Y-37856154D01*
X84261597Y-37734845D01*
X84488408Y-37779960D01*
X84763592Y-37779960D01*
X85033490Y-37726274D01*
X85287727Y-37620965D01*
X85516535Y-37468080D01*
X85711120Y-37273495D01*
X85864005Y-37044687D01*
X85969314Y-36790450D01*
X86023000Y-36520552D01*
X86023000Y-36245368D01*
X85969314Y-35975470D01*
X85864005Y-35721233D01*
X85711120Y-35492425D01*
X85516535Y-35297840D01*
X85287727Y-35144955D01*
X85033490Y-35039646D01*
X84763592Y-34985960D01*
X84488408Y-34985960D01*
X84218510Y-35039646D01*
X83964273Y-35144955D01*
X83735465Y-35297840D01*
X83540880Y-35492425D01*
X83387995Y-35721233D01*
X83282686Y-35975470D01*
X83229000Y-36245368D01*
X83229000Y-36440112D01*
X83074462Y-36470852D01*
X82899709Y-36543237D01*
X82911500Y-36423513D01*
X82911500Y-36423511D01*
X82915494Y-36382960D01*
X82911500Y-36342410D01*
X82911500Y-34971535D01*
X82976535Y-34928080D01*
X83171120Y-34733495D01*
X83324005Y-34504687D01*
X83429314Y-34250450D01*
X83483000Y-33980552D01*
X83483000Y-33705368D01*
X83429314Y-33435470D01*
X83324005Y-33181233D01*
X83171120Y-32952425D01*
X82976535Y-32757840D01*
X82747727Y-32604955D01*
X82493490Y-32499646D01*
X82223592Y-32445960D01*
X81948408Y-32445960D01*
X81678510Y-32499646D01*
X81424273Y-32604955D01*
X81195465Y-32757840D01*
X81000880Y-32952425D01*
X80847995Y-33181233D01*
X80742686Y-33435470D01*
X80689000Y-33705368D01*
X80689000Y-33980552D01*
X80742686Y-34250450D01*
X80847995Y-34504687D01*
X81000880Y-34733495D01*
X81195465Y-34928080D01*
X81260501Y-34971535D01*
X81260500Y-36041026D01*
X77031158Y-40270370D01*
X76978462Y-40280852D01*
X76802806Y-40353611D01*
X76644721Y-40459240D01*
X76510280Y-40593681D01*
X76404651Y-40751766D01*
X76331892Y-40927422D01*
X76294800Y-41113896D01*
X68032666Y-41113896D01*
X68045332Y-41083318D01*
X68102400Y-40796420D01*
X68102400Y-40503900D01*
X68045332Y-40217002D01*
X67933390Y-39946749D01*
X67770875Y-39703528D01*
X67639020Y-39571673D01*
X67711580Y-39549662D01*
X67821894Y-39490697D01*
X67918585Y-39411345D01*
X67997937Y-39314654D01*
X68056902Y-39204340D01*
X68093212Y-39084642D01*
X68105472Y-38960160D01*
X68105472Y-37260160D01*
X68093212Y-37135678D01*
X68056902Y-37015980D01*
X67997937Y-36905666D01*
X67918585Y-36808975D01*
X67821894Y-36729623D01*
X67711580Y-36670658D01*
X67591882Y-36634348D01*
X67467400Y-36622088D01*
X65767400Y-36622088D01*
X65642918Y-36634348D01*
X65523220Y-36670658D01*
X65412906Y-36729623D01*
X65316215Y-36808975D01*
X65236863Y-36905666D01*
X65177898Y-37015980D01*
X65141588Y-37135678D01*
X65129328Y-37260160D01*
X60214651Y-37260160D01*
X60137437Y-37144601D01*
X59937559Y-36944723D01*
X59705041Y-36789360D01*
X59937559Y-36633997D01*
X60137437Y-36434119D01*
X60294480Y-36199087D01*
X60402653Y-35937934D01*
X60457800Y-35660695D01*
X60457800Y-35378025D01*
X60402653Y-35100786D01*
X60294480Y-34839633D01*
X60137437Y-34604601D01*
X59937559Y-34404723D01*
X59741858Y-34273960D01*
X72120953Y-34273960D01*
X72154600Y-34277274D01*
X72188247Y-34273960D01*
X72288883Y-34264048D01*
X72418006Y-34224879D01*
X72537007Y-34161272D01*
X72641311Y-34075671D01*
X72726912Y-33971367D01*
X72790519Y-33852366D01*
X72829688Y-33723243D01*
X72842914Y-33588960D01*
X72839600Y-33555313D01*
X72839600Y-32013360D01*
X74552728Y-32013360D01*
X74552728Y-33651560D01*
X74564988Y-33776042D01*
X74601298Y-33895740D01*
X74660263Y-34006054D01*
X74739615Y-34102745D01*
X74836306Y-34182097D01*
X74946620Y-34241062D01*
X75066318Y-34277372D01*
X75190800Y-34289632D01*
X76890800Y-34289632D01*
X77015282Y-34277372D01*
X77134980Y-34241062D01*
X77245294Y-34182097D01*
X77341985Y-34102745D01*
X77421337Y-34006054D01*
X77480302Y-33895740D01*
X77516612Y-33776042D01*
X77528872Y-33651560D01*
X77528872Y-32013308D01*
X96641001Y-31988837D01*
X96641000Y-53731960D01*
X28211800Y-53731960D01*
X28211800Y-48945368D01*
X80689000Y-48945368D01*
X80689000Y-49220552D01*
X80742686Y-49490450D01*
X80847995Y-49744687D01*
X81000880Y-49973495D01*
X81195465Y-50168080D01*
X81424273Y-50320965D01*
X81678510Y-50426274D01*
X81948408Y-50479960D01*
X82223592Y-50479960D01*
X82493490Y-50426274D01*
X82747727Y-50320965D01*
X82976535Y-50168080D01*
X83171120Y-49973495D01*
X83324005Y-49744687D01*
X83429314Y-49490450D01*
X83483000Y-49220552D01*
X83483000Y-48945368D01*
X83429314Y-48675470D01*
X83324005Y-48421233D01*
X83171120Y-48192425D01*
X82976535Y-47997840D01*
X82747727Y-47844955D01*
X82493490Y-47739646D01*
X82223592Y-47685960D01*
X81948408Y-47685960D01*
X81678510Y-47739646D01*
X81424273Y-47844955D01*
X81195465Y-47997840D01*
X81000880Y-48192425D01*
X80847995Y-48421233D01*
X80742686Y-48675470D01*
X80689000Y-48945368D01*
X28211800Y-48945368D01*
X28211800Y-34230100D01*
X36328800Y-34230100D01*
X36328800Y-34522620D01*
X36385868Y-34809518D01*
X36497810Y-35079771D01*
X36660325Y-35322992D01*
X36867168Y-35529835D01*
X37041560Y-35646360D01*
X36867168Y-35762885D01*
X36660325Y-35969728D01*
X36497810Y-36212949D01*
X36385868Y-36483202D01*
X36328800Y-36770100D01*
X36328800Y-37062620D01*
X36385868Y-37349518D01*
X36497810Y-37619771D01*
X36660325Y-37862992D01*
X36867168Y-38069835D01*
X37041560Y-38186360D01*
X36867168Y-38302885D01*
X36660325Y-38509728D01*
X36497810Y-38752949D01*
X36385868Y-39023202D01*
X36328800Y-39310100D01*
X36328800Y-39602620D01*
X36385868Y-39889518D01*
X36497810Y-40159771D01*
X36660325Y-40402992D01*
X36867168Y-40609835D01*
X37041560Y-40726360D01*
X36867168Y-40842885D01*
X36660325Y-41049728D01*
X36497810Y-41292949D01*
X36385868Y-41563202D01*
X36328800Y-41850100D01*
X36328800Y-42142620D01*
X36385868Y-42429518D01*
X36497810Y-42699771D01*
X36660325Y-42942992D01*
X36867168Y-43149835D01*
X37110389Y-43312350D01*
X37380642Y-43424292D01*
X37667540Y-43481360D01*
X37960060Y-43481360D01*
X38246958Y-43424292D01*
X38517211Y-43312350D01*
X38760432Y-43149835D01*
X38967275Y-42942992D01*
X39083800Y-42768600D01*
X39200325Y-42942992D01*
X39407168Y-43149835D01*
X39581560Y-43266360D01*
X39407168Y-43382885D01*
X39200325Y-43589728D01*
X39037810Y-43832949D01*
X38925868Y-44103202D01*
X38868800Y-44390100D01*
X38868800Y-44682620D01*
X38925868Y-44969518D01*
X39037810Y-45239771D01*
X39200325Y-45482992D01*
X39407168Y-45689835D01*
X39581560Y-45806360D01*
X39407168Y-45922885D01*
X39200325Y-46129728D01*
X39083800Y-46304120D01*
X38967275Y-46129728D01*
X38760432Y-45922885D01*
X38517211Y-45760370D01*
X38246958Y-45648428D01*
X37960060Y-45591360D01*
X37667540Y-45591360D01*
X37380642Y-45648428D01*
X37110389Y-45760370D01*
X36867168Y-45922885D01*
X36660325Y-46129728D01*
X36497810Y-46372949D01*
X36385868Y-46643202D01*
X36328800Y-46930100D01*
X36328800Y-47222620D01*
X36385868Y-47509518D01*
X36497810Y-47779771D01*
X36660325Y-48022992D01*
X36867168Y-48229835D01*
X37110389Y-48392350D01*
X37380642Y-48504292D01*
X37667540Y-48561360D01*
X37960060Y-48561360D01*
X38246958Y-48504292D01*
X38517211Y-48392350D01*
X38760432Y-48229835D01*
X38967275Y-48022992D01*
X39083800Y-47848600D01*
X39200325Y-48022992D01*
X39407168Y-48229835D01*
X39650389Y-48392350D01*
X39920642Y-48504292D01*
X40207540Y-48561360D01*
X40500060Y-48561360D01*
X40786958Y-48504292D01*
X41057211Y-48392350D01*
X41300432Y-48229835D01*
X41507275Y-48022992D01*
X41669790Y-47779771D01*
X41781732Y-47509518D01*
X41838800Y-47222620D01*
X41838800Y-46930100D01*
X41781732Y-46643202D01*
X41713867Y-46479360D01*
X54739928Y-46479360D01*
X54752188Y-46603842D01*
X54788498Y-46723540D01*
X54847463Y-46833854D01*
X54926815Y-46930545D01*
X55023506Y-47009897D01*
X55133820Y-47068862D01*
X55253518Y-47105172D01*
X55378000Y-47117432D01*
X55892250Y-47114360D01*
X56051000Y-46955610D01*
X56051000Y-45806360D01*
X56305000Y-45806360D01*
X56305000Y-46955610D01*
X56463750Y-47114360D01*
X56978000Y-47117432D01*
X57102482Y-47105172D01*
X57222180Y-47068862D01*
X57332494Y-47009897D01*
X57429185Y-46930545D01*
X57508537Y-46833854D01*
X57567502Y-46723540D01*
X57600400Y-46615090D01*
X57633298Y-46723540D01*
X57692263Y-46833854D01*
X57771615Y-46930545D01*
X57868306Y-47009897D01*
X57978620Y-47068862D01*
X58098318Y-47105172D01*
X58222800Y-47117432D01*
X58737050Y-47114360D01*
X58895800Y-46955610D01*
X58895800Y-45806360D01*
X59149800Y-45806360D01*
X59149800Y-46955610D01*
X59308550Y-47114360D01*
X59822800Y-47117432D01*
X59947282Y-47105172D01*
X60066980Y-47068862D01*
X60177294Y-47009897D01*
X60273985Y-46930545D01*
X60353337Y-46833854D01*
X60412302Y-46723540D01*
X60448612Y-46603842D01*
X60460872Y-46479360D01*
X60457800Y-45965110D01*
X60299050Y-45806360D01*
X59149800Y-45806360D01*
X58895800Y-45806360D01*
X57746550Y-45806360D01*
X57600400Y-45952510D01*
X57454250Y-45806360D01*
X56305000Y-45806360D01*
X56051000Y-45806360D01*
X54901750Y-45806360D01*
X54743000Y-45965110D01*
X54739928Y-46479360D01*
X41713867Y-46479360D01*
X41669790Y-46372949D01*
X41507275Y-46129728D01*
X41300432Y-45922885D01*
X41126040Y-45806360D01*
X41300432Y-45689835D01*
X41507275Y-45482992D01*
X41669790Y-45239771D01*
X41781732Y-44969518D01*
X41838800Y-44682620D01*
X41838800Y-44390100D01*
X41781732Y-44103202D01*
X41669790Y-43832949D01*
X41507275Y-43589728D01*
X41300432Y-43382885D01*
X41126040Y-43266360D01*
X41300432Y-43149835D01*
X41507275Y-42942992D01*
X41669790Y-42699771D01*
X41781732Y-42429518D01*
X41838800Y-42142620D01*
X41838800Y-41850100D01*
X41781732Y-41563202D01*
X41669790Y-41292949D01*
X41507275Y-41049728D01*
X41300432Y-40842885D01*
X41126040Y-40726360D01*
X41300432Y-40609835D01*
X41507275Y-40402992D01*
X41669790Y-40159771D01*
X41781732Y-39889518D01*
X41838800Y-39602620D01*
X41838800Y-39310100D01*
X41781732Y-39023202D01*
X41669790Y-38752949D01*
X41507275Y-38509728D01*
X41300432Y-38302885D01*
X41126040Y-38186360D01*
X41300432Y-38069835D01*
X41507275Y-37862992D01*
X41669790Y-37619771D01*
X41781732Y-37349518D01*
X41838800Y-37062620D01*
X41838800Y-36770100D01*
X41781732Y-36483202D01*
X41669790Y-36212949D01*
X41507275Y-35969728D01*
X41375420Y-35837873D01*
X41447980Y-35815862D01*
X41558294Y-35756897D01*
X41654985Y-35677545D01*
X41734337Y-35580854D01*
X41793302Y-35470540D01*
X41829612Y-35350842D01*
X41841872Y-35226360D01*
X41841872Y-33526360D01*
X41829612Y-33401878D01*
X41793302Y-33282180D01*
X41734337Y-33171866D01*
X41654985Y-33075175D01*
X41558294Y-32995823D01*
X41447980Y-32936858D01*
X41328282Y-32900548D01*
X41203800Y-32888288D01*
X39503800Y-32888288D01*
X39379318Y-32900548D01*
X39259620Y-32936858D01*
X39149306Y-32995823D01*
X39052615Y-33075175D01*
X38973263Y-33171866D01*
X38914298Y-33282180D01*
X38892287Y-33354740D01*
X38760432Y-33222885D01*
X38517211Y-33060370D01*
X38246958Y-32948428D01*
X37960060Y-32891360D01*
X37667540Y-32891360D01*
X37380642Y-32948428D01*
X37110389Y-33060370D01*
X36867168Y-33222885D01*
X36660325Y-33429728D01*
X36497810Y-33672949D01*
X36385868Y-33943202D01*
X36328800Y-34230100D01*
X28211800Y-34230100D01*
X28211800Y-31987960D01*
X58795000Y-31987960D01*
X58795001Y-32793303D01*
G04 #@! TA.AperFunction,Conductor*
D19*
G36*
X58795001Y-32793303D02*
G01*
X58795000Y-32793313D01*
X58795000Y-33555313D01*
X58791686Y-33588960D01*
X58804912Y-33723243D01*
X58844081Y-33852366D01*
X58907688Y-33971367D01*
X58993289Y-34075671D01*
X59003876Y-34084360D01*
X58881465Y-34084360D01*
X58604226Y-34139507D01*
X58343073Y-34247680D01*
X58108041Y-34404723D01*
X57908163Y-34604601D01*
X57751120Y-34839633D01*
X57642947Y-35100786D01*
X57600400Y-35314681D01*
X57557853Y-35100786D01*
X57449680Y-34839633D01*
X57292637Y-34604601D01*
X57092759Y-34404723D01*
X56857727Y-34247680D01*
X56596574Y-34139507D01*
X56319335Y-34084360D01*
X56036665Y-34084360D01*
X55759426Y-34139507D01*
X55498273Y-34247680D01*
X55263241Y-34404723D01*
X55063363Y-34604601D01*
X54906320Y-34839633D01*
X54798147Y-35100786D01*
X54743000Y-35378025D01*
X54743000Y-35660695D01*
X54798147Y-35937934D01*
X54906320Y-36199087D01*
X55063363Y-36434119D01*
X55263241Y-36633997D01*
X55495759Y-36789360D01*
X55263241Y-36944723D01*
X55063363Y-37144601D01*
X54906320Y-37379633D01*
X54798147Y-37640786D01*
X54743000Y-37918025D01*
X54743000Y-38200695D01*
X54798147Y-38477934D01*
X54906320Y-38739087D01*
X55063363Y-38974119D01*
X55263241Y-39173997D01*
X55495759Y-39329360D01*
X55263241Y-39484723D01*
X55063363Y-39684601D01*
X54906320Y-39919633D01*
X54798147Y-40180786D01*
X54743000Y-40458025D01*
X54743000Y-40740695D01*
X54798147Y-41017934D01*
X54906320Y-41279087D01*
X55063363Y-41514119D01*
X55263241Y-41713997D01*
X55495759Y-41869360D01*
X55263241Y-42024723D01*
X55063363Y-42224601D01*
X54906320Y-42459633D01*
X54798147Y-42720786D01*
X54743000Y-42998025D01*
X54743000Y-43280695D01*
X54798147Y-43557934D01*
X54906320Y-43819087D01*
X55063363Y-44054119D01*
X55261961Y-44252717D01*
X55253518Y-44253548D01*
X55133820Y-44289858D01*
X55023506Y-44348823D01*
X54926815Y-44428175D01*
X54847463Y-44524866D01*
X54788498Y-44635180D01*
X54752188Y-44754878D01*
X54739928Y-44879360D01*
X54743000Y-45393610D01*
X54901750Y-45552360D01*
X56051000Y-45552360D01*
X56051000Y-45532360D01*
X56305000Y-45532360D01*
X56305000Y-45552360D01*
X57454250Y-45552360D01*
X57600400Y-45406210D01*
X57746550Y-45552360D01*
X58895800Y-45552360D01*
X58895800Y-45532360D01*
X59149800Y-45532360D01*
X59149800Y-45552360D01*
X60299050Y-45552360D01*
X60457800Y-45393610D01*
X60460872Y-44879360D01*
X60448612Y-44754878D01*
X60412302Y-44635180D01*
X60353337Y-44524866D01*
X60273985Y-44428175D01*
X60177294Y-44348823D01*
X60066980Y-44289858D01*
X59947282Y-44253548D01*
X59938839Y-44252717D01*
X60137437Y-44054119D01*
X60294480Y-43819087D01*
X60402653Y-43557934D01*
X60457800Y-43280695D01*
X60457800Y-42998025D01*
X60402653Y-42720786D01*
X60294480Y-42459633D01*
X60137437Y-42224601D01*
X59937559Y-42024723D01*
X59705041Y-41869360D01*
X59937559Y-41713997D01*
X60137437Y-41514119D01*
X60294480Y-41279087D01*
X60402653Y-41017934D01*
X60457800Y-40740695D01*
X60457800Y-40458025D01*
X60402653Y-40180786D01*
X60294480Y-39919633D01*
X60137437Y-39684601D01*
X59937559Y-39484723D01*
X59705041Y-39329360D01*
X59937559Y-39173997D01*
X60137437Y-38974119D01*
X60294480Y-38739087D01*
X60402653Y-38477934D01*
X60457800Y-38200695D01*
X60457800Y-37918025D01*
X60402653Y-37640786D01*
X60294480Y-37379633D01*
X60214651Y-37260160D01*
X65129328Y-37260160D01*
X65129328Y-38960160D01*
X65141588Y-39084642D01*
X65177898Y-39204340D01*
X65236863Y-39314654D01*
X65316215Y-39411345D01*
X65412906Y-39490697D01*
X65523220Y-39549662D01*
X65595780Y-39571673D01*
X65463925Y-39703528D01*
X65301410Y-39946749D01*
X65189468Y-40217002D01*
X65132400Y-40503900D01*
X65132400Y-40796420D01*
X65189468Y-41083318D01*
X65301410Y-41353571D01*
X65463925Y-41596792D01*
X65670768Y-41803635D01*
X65845160Y-41920160D01*
X65670768Y-42036685D01*
X65463925Y-42243528D01*
X65301410Y-42486749D01*
X65189468Y-42757002D01*
X65132400Y-43043900D01*
X65132400Y-43336420D01*
X65189468Y-43623318D01*
X65301410Y-43893571D01*
X65463925Y-44136792D01*
X65670768Y-44343635D01*
X65845160Y-44460160D01*
X65670768Y-44576685D01*
X65463925Y-44783528D01*
X65301410Y-45026749D01*
X65189468Y-45297002D01*
X65132400Y-45583900D01*
X65132400Y-45876420D01*
X65189468Y-46163318D01*
X65301410Y-46433571D01*
X65463925Y-46676792D01*
X65670768Y-46883635D01*
X65913989Y-47046150D01*
X66184242Y-47158092D01*
X66471140Y-47215160D01*
X66763660Y-47215160D01*
X67050558Y-47158092D01*
X67320811Y-47046150D01*
X67564032Y-46883635D01*
X67770875Y-46676792D01*
X67933390Y-46433571D01*
X68045332Y-46163318D01*
X68102400Y-45876420D01*
X68102400Y-45583900D01*
X68045332Y-45297002D01*
X67933390Y-45026749D01*
X67869386Y-44930960D01*
X74501928Y-44930960D01*
X74501928Y-46630960D01*
X74514188Y-46755442D01*
X74550498Y-46875140D01*
X74609463Y-46985454D01*
X74688815Y-47082145D01*
X74785506Y-47161497D01*
X74895820Y-47220462D01*
X75015518Y-47256772D01*
X75140000Y-47269032D01*
X76840000Y-47269032D01*
X76964482Y-47256772D01*
X77084180Y-47220462D01*
X77194494Y-47161497D01*
X77291185Y-47082145D01*
X77370537Y-46985454D01*
X77429502Y-46875140D01*
X77465812Y-46755442D01*
X77478072Y-46630960D01*
X77478072Y-46405368D01*
X83229000Y-46405368D01*
X83229000Y-46680552D01*
X83282686Y-46950450D01*
X83387995Y-47204687D01*
X83540880Y-47433495D01*
X83735465Y-47628080D01*
X83964273Y-47780965D01*
X84218510Y-47886274D01*
X84488408Y-47939960D01*
X84763592Y-47939960D01*
X85033490Y-47886274D01*
X85287727Y-47780965D01*
X85516535Y-47628080D01*
X85711120Y-47433495D01*
X85864005Y-47204687D01*
X85969314Y-46950450D01*
X86023000Y-46680552D01*
X86023000Y-46405368D01*
X85969314Y-46135470D01*
X85864005Y-45881233D01*
X85711120Y-45652425D01*
X85516535Y-45457840D01*
X85287727Y-45304955D01*
X85033490Y-45199646D01*
X84763592Y-45145960D01*
X84488408Y-45145960D01*
X84218510Y-45199646D01*
X83964273Y-45304955D01*
X83735465Y-45457840D01*
X83540880Y-45652425D01*
X83387995Y-45881233D01*
X83282686Y-46135470D01*
X83229000Y-46405368D01*
X77478072Y-46405368D01*
X77478072Y-44930960D01*
X77465812Y-44806478D01*
X77429502Y-44686780D01*
X77370537Y-44576466D01*
X77291185Y-44479775D01*
X77194494Y-44400423D01*
X77084180Y-44341458D01*
X76964482Y-44305148D01*
X76840000Y-44292888D01*
X75140000Y-44292888D01*
X75015518Y-44305148D01*
X74895820Y-44341458D01*
X74785506Y-44400423D01*
X74688815Y-44479775D01*
X74609463Y-44576466D01*
X74550498Y-44686780D01*
X74514188Y-44806478D01*
X74501928Y-44930960D01*
X67869386Y-44930960D01*
X67770875Y-44783528D01*
X67564032Y-44576685D01*
X67389640Y-44460160D01*
X67564032Y-44343635D01*
X67770875Y-44136792D01*
X67933390Y-43893571D01*
X68045332Y-43623318D01*
X68102400Y-43336420D01*
X68102400Y-43043900D01*
X68045332Y-42757002D01*
X67933390Y-42486749D01*
X67770875Y-42243528D01*
X67564032Y-42036685D01*
X67389640Y-41920160D01*
X67564032Y-41803635D01*
X67770875Y-41596792D01*
X67933390Y-41353571D01*
X68032666Y-41113896D01*
X76294800Y-41113896D01*
X76294800Y-41304024D01*
X76331892Y-41490498D01*
X76404651Y-41666154D01*
X76510280Y-41824239D01*
X76644721Y-41958680D01*
X76802806Y-42064309D01*
X76978462Y-42137068D01*
X77164936Y-42174160D01*
X77355064Y-42174160D01*
X77541538Y-42137068D01*
X77717194Y-42064309D01*
X77875279Y-41958680D01*
X78009720Y-41824239D01*
X78115349Y-41666154D01*
X78149000Y-41584913D01*
X78149000Y-41600552D01*
X78202686Y-41870450D01*
X78307995Y-42124687D01*
X78460880Y-42353495D01*
X78655465Y-42548080D01*
X78884273Y-42700965D01*
X79138510Y-42806274D01*
X79408408Y-42859960D01*
X79683592Y-42859960D01*
X79953490Y-42806274D01*
X80207727Y-42700965D01*
X80436535Y-42548080D01*
X80631120Y-42353495D01*
X80784005Y-42124687D01*
X80889314Y-41870450D01*
X80943000Y-41600552D01*
X80943000Y-41325368D01*
X80889314Y-41055470D01*
X80784005Y-40801233D01*
X80631120Y-40572425D01*
X80436535Y-40377840D01*
X80207727Y-40224955D01*
X79953490Y-40119646D01*
X79683592Y-40065960D01*
X79570433Y-40065960D01*
X80689000Y-38947393D01*
X80689000Y-39060552D01*
X80742686Y-39330450D01*
X80847995Y-39584687D01*
X81000880Y-39813495D01*
X81195465Y-40008080D01*
X81424273Y-40160965D01*
X81678510Y-40266274D01*
X81948408Y-40319960D01*
X82223592Y-40319960D01*
X82493490Y-40266274D01*
X82530501Y-40250944D01*
X82530501Y-42391025D01*
X82300307Y-42621220D01*
X82223592Y-42605960D01*
X81948408Y-42605960D01*
X81678510Y-42659646D01*
X81424273Y-42764955D01*
X81195465Y-42917840D01*
X81000880Y-43112425D01*
X80847995Y-43341233D01*
X80742686Y-43595470D01*
X80689000Y-43865368D01*
X80689000Y-44140552D01*
X80742686Y-44410450D01*
X80847995Y-44664687D01*
X81000880Y-44893495D01*
X81195465Y-45088080D01*
X81424273Y-45240965D01*
X81678510Y-45346274D01*
X81948408Y-45399960D01*
X82223592Y-45399960D01*
X82493490Y-45346274D01*
X82747727Y-45240965D01*
X82976535Y-45088080D01*
X83171120Y-44893495D01*
X83324005Y-44664687D01*
X83429314Y-44410450D01*
X83483000Y-44140552D01*
X83483000Y-43865368D01*
X93389000Y-43865368D01*
X93389000Y-44140552D01*
X93442686Y-44410450D01*
X93547995Y-44664687D01*
X93700880Y-44893495D01*
X93895465Y-45088080D01*
X94124273Y-45240965D01*
X94378510Y-45346274D01*
X94648408Y-45399960D01*
X94923592Y-45399960D01*
X95193490Y-45346274D01*
X95447727Y-45240965D01*
X95676535Y-45088080D01*
X95871120Y-44893495D01*
X96024005Y-44664687D01*
X96129314Y-44410450D01*
X96183000Y-44140552D01*
X96183000Y-43865368D01*
X96129314Y-43595470D01*
X96024005Y-43341233D01*
X95871120Y-43112425D01*
X95676535Y-42917840D01*
X95447727Y-42764955D01*
X95193490Y-42659646D01*
X94923592Y-42605960D01*
X94648408Y-42605960D01*
X94378510Y-42659646D01*
X94124273Y-42764955D01*
X93895465Y-42917840D01*
X93700880Y-43112425D01*
X93547995Y-43341233D01*
X93442686Y-43595470D01*
X93389000Y-43865368D01*
X83483000Y-43865368D01*
X83467740Y-43788653D01*
X83924320Y-43332074D01*
X83955816Y-43306226D01*
X83981664Y-43274730D01*
X83981667Y-43274727D01*
X84058974Y-43180528D01*
X84135628Y-43037119D01*
X84182830Y-42881512D01*
X84191401Y-42794488D01*
X84423135Y-42851983D01*
X84698017Y-42864870D01*
X84970133Y-42823882D01*
X85229023Y-42730596D01*
X85344980Y-42668616D01*
X85411960Y-42428525D01*
X84626000Y-41642565D01*
X84611858Y-41656708D01*
X84432253Y-41477103D01*
X84446395Y-41462960D01*
X84805605Y-41462960D01*
X85591565Y-42248920D01*
X85831656Y-42181940D01*
X85948756Y-41932912D01*
X86015023Y-41665825D01*
X86027910Y-41390943D01*
X85986922Y-41118827D01*
X85893636Y-40859937D01*
X85831656Y-40743980D01*
X85591565Y-40677000D01*
X84805605Y-41462960D01*
X84446395Y-41462960D01*
X84432253Y-41448818D01*
X84611858Y-41269213D01*
X84626000Y-41283355D01*
X85411960Y-40497395D01*
X85344980Y-40257304D01*
X85095952Y-40140204D01*
X84828865Y-40073937D01*
X84553983Y-40061050D01*
X84281867Y-40102038D01*
X84181500Y-40138203D01*
X84181500Y-38785368D01*
X93389000Y-38785368D01*
X93389000Y-39060552D01*
X93442686Y-39330450D01*
X93547995Y-39584687D01*
X93700880Y-39813495D01*
X93895465Y-40008080D01*
X94124273Y-40160965D01*
X94378510Y-40266274D01*
X94648408Y-40319960D01*
X94923592Y-40319960D01*
X95193490Y-40266274D01*
X95447727Y-40160965D01*
X95676535Y-40008080D01*
X95871120Y-39813495D01*
X96024005Y-39584687D01*
X96129314Y-39330450D01*
X96183000Y-39060552D01*
X96183000Y-38785368D01*
X96129314Y-38515470D01*
X96024005Y-38261233D01*
X95871120Y-38032425D01*
X95676535Y-37837840D01*
X95447727Y-37684955D01*
X95193490Y-37579646D01*
X94923592Y-37525960D01*
X94648408Y-37525960D01*
X94378510Y-37579646D01*
X94124273Y-37684955D01*
X93895465Y-37837840D01*
X93700880Y-38032425D01*
X93547995Y-38261233D01*
X93442686Y-38515470D01*
X93389000Y-38785368D01*
X84181500Y-38785368D01*
X84181500Y-37900826D01*
X84211349Y-37856154D01*
X84261597Y-37734845D01*
X84488408Y-37779960D01*
X84763592Y-37779960D01*
X85033490Y-37726274D01*
X85287727Y-37620965D01*
X85516535Y-37468080D01*
X85711120Y-37273495D01*
X85864005Y-37044687D01*
X85969314Y-36790450D01*
X86023000Y-36520552D01*
X86023000Y-36245368D01*
X85969314Y-35975470D01*
X85864005Y-35721233D01*
X85711120Y-35492425D01*
X85516535Y-35297840D01*
X85287727Y-35144955D01*
X85033490Y-35039646D01*
X84763592Y-34985960D01*
X84488408Y-34985960D01*
X84218510Y-35039646D01*
X83964273Y-35144955D01*
X83735465Y-35297840D01*
X83540880Y-35492425D01*
X83387995Y-35721233D01*
X83282686Y-35975470D01*
X83229000Y-36245368D01*
X83229000Y-36440112D01*
X83074462Y-36470852D01*
X82899709Y-36543237D01*
X82911500Y-36423513D01*
X82911500Y-36423511D01*
X82915494Y-36382960D01*
X82911500Y-36342410D01*
X82911500Y-34971535D01*
X82976535Y-34928080D01*
X83171120Y-34733495D01*
X83324005Y-34504687D01*
X83429314Y-34250450D01*
X83483000Y-33980552D01*
X83483000Y-33705368D01*
X83429314Y-33435470D01*
X83324005Y-33181233D01*
X83171120Y-32952425D01*
X82976535Y-32757840D01*
X82747727Y-32604955D01*
X82493490Y-32499646D01*
X82223592Y-32445960D01*
X81948408Y-32445960D01*
X81678510Y-32499646D01*
X81424273Y-32604955D01*
X81195465Y-32757840D01*
X81000880Y-32952425D01*
X80847995Y-33181233D01*
X80742686Y-33435470D01*
X80689000Y-33705368D01*
X80689000Y-33980552D01*
X80742686Y-34250450D01*
X80847995Y-34504687D01*
X81000880Y-34733495D01*
X81195465Y-34928080D01*
X81260501Y-34971535D01*
X81260500Y-36041026D01*
X77031158Y-40270370D01*
X76978462Y-40280852D01*
X76802806Y-40353611D01*
X76644721Y-40459240D01*
X76510280Y-40593681D01*
X76404651Y-40751766D01*
X76331892Y-40927422D01*
X76294800Y-41113896D01*
X68032666Y-41113896D01*
X68045332Y-41083318D01*
X68102400Y-40796420D01*
X68102400Y-40503900D01*
X68045332Y-40217002D01*
X67933390Y-39946749D01*
X67770875Y-39703528D01*
X67639020Y-39571673D01*
X67711580Y-39549662D01*
X67821894Y-39490697D01*
X67918585Y-39411345D01*
X67997937Y-39314654D01*
X68056902Y-39204340D01*
X68093212Y-39084642D01*
X68105472Y-38960160D01*
X68105472Y-37260160D01*
X68093212Y-37135678D01*
X68056902Y-37015980D01*
X67997937Y-36905666D01*
X67918585Y-36808975D01*
X67821894Y-36729623D01*
X67711580Y-36670658D01*
X67591882Y-36634348D01*
X67467400Y-36622088D01*
X65767400Y-36622088D01*
X65642918Y-36634348D01*
X65523220Y-36670658D01*
X65412906Y-36729623D01*
X65316215Y-36808975D01*
X65236863Y-36905666D01*
X65177898Y-37015980D01*
X65141588Y-37135678D01*
X65129328Y-37260160D01*
X60214651Y-37260160D01*
X60137437Y-37144601D01*
X59937559Y-36944723D01*
X59705041Y-36789360D01*
X59937559Y-36633997D01*
X60137437Y-36434119D01*
X60294480Y-36199087D01*
X60402653Y-35937934D01*
X60457800Y-35660695D01*
X60457800Y-35378025D01*
X60402653Y-35100786D01*
X60294480Y-34839633D01*
X60137437Y-34604601D01*
X59937559Y-34404723D01*
X59741858Y-34273960D01*
X72120953Y-34273960D01*
X72154600Y-34277274D01*
X72188247Y-34273960D01*
X72288883Y-34264048D01*
X72418006Y-34224879D01*
X72537007Y-34161272D01*
X72641311Y-34075671D01*
X72726912Y-33971367D01*
X72790519Y-33852366D01*
X72829688Y-33723243D01*
X72842914Y-33588960D01*
X72839600Y-33555313D01*
X72839600Y-32013360D01*
X74552728Y-32013360D01*
X74552728Y-33651560D01*
X74564988Y-33776042D01*
X74601298Y-33895740D01*
X74660263Y-34006054D01*
X74739615Y-34102745D01*
X74836306Y-34182097D01*
X74946620Y-34241062D01*
X75066318Y-34277372D01*
X75190800Y-34289632D01*
X76890800Y-34289632D01*
X77015282Y-34277372D01*
X77134980Y-34241062D01*
X77245294Y-34182097D01*
X77341985Y-34102745D01*
X77421337Y-34006054D01*
X77480302Y-33895740D01*
X77516612Y-33776042D01*
X77528872Y-33651560D01*
X77528872Y-32013308D01*
X96641001Y-31988837D01*
X96641000Y-53731960D01*
X28211800Y-53731960D01*
X28211800Y-48945368D01*
X80689000Y-48945368D01*
X80689000Y-49220552D01*
X80742686Y-49490450D01*
X80847995Y-49744687D01*
X81000880Y-49973495D01*
X81195465Y-50168080D01*
X81424273Y-50320965D01*
X81678510Y-50426274D01*
X81948408Y-50479960D01*
X82223592Y-50479960D01*
X82493490Y-50426274D01*
X82747727Y-50320965D01*
X82976535Y-50168080D01*
X83171120Y-49973495D01*
X83324005Y-49744687D01*
X83429314Y-49490450D01*
X83483000Y-49220552D01*
X83483000Y-48945368D01*
X83429314Y-48675470D01*
X83324005Y-48421233D01*
X83171120Y-48192425D01*
X82976535Y-47997840D01*
X82747727Y-47844955D01*
X82493490Y-47739646D01*
X82223592Y-47685960D01*
X81948408Y-47685960D01*
X81678510Y-47739646D01*
X81424273Y-47844955D01*
X81195465Y-47997840D01*
X81000880Y-48192425D01*
X80847995Y-48421233D01*
X80742686Y-48675470D01*
X80689000Y-48945368D01*
X28211800Y-48945368D01*
X28211800Y-34230100D01*
X36328800Y-34230100D01*
X36328800Y-34522620D01*
X36385868Y-34809518D01*
X36497810Y-35079771D01*
X36660325Y-35322992D01*
X36867168Y-35529835D01*
X37041560Y-35646360D01*
X36867168Y-35762885D01*
X36660325Y-35969728D01*
X36497810Y-36212949D01*
X36385868Y-36483202D01*
X36328800Y-36770100D01*
X36328800Y-37062620D01*
X36385868Y-37349518D01*
X36497810Y-37619771D01*
X36660325Y-37862992D01*
X36867168Y-38069835D01*
X37041560Y-38186360D01*
X36867168Y-38302885D01*
X36660325Y-38509728D01*
X36497810Y-38752949D01*
X36385868Y-39023202D01*
X36328800Y-39310100D01*
X36328800Y-39602620D01*
X36385868Y-39889518D01*
X36497810Y-40159771D01*
X36660325Y-40402992D01*
X36867168Y-40609835D01*
X37041560Y-40726360D01*
X36867168Y-40842885D01*
X36660325Y-41049728D01*
X36497810Y-41292949D01*
X36385868Y-41563202D01*
X36328800Y-41850100D01*
X36328800Y-42142620D01*
X36385868Y-42429518D01*
X36497810Y-42699771D01*
X36660325Y-42942992D01*
X36867168Y-43149835D01*
X37110389Y-43312350D01*
X37380642Y-43424292D01*
X37667540Y-43481360D01*
X37960060Y-43481360D01*
X38246958Y-43424292D01*
X38517211Y-43312350D01*
X38760432Y-43149835D01*
X38967275Y-42942992D01*
X39083800Y-42768600D01*
X39200325Y-42942992D01*
X39407168Y-43149835D01*
X39581560Y-43266360D01*
X39407168Y-43382885D01*
X39200325Y-43589728D01*
X39037810Y-43832949D01*
X38925868Y-44103202D01*
X38868800Y-44390100D01*
X38868800Y-44682620D01*
X38925868Y-44969518D01*
X39037810Y-45239771D01*
X39200325Y-45482992D01*
X39407168Y-45689835D01*
X39581560Y-45806360D01*
X39407168Y-45922885D01*
X39200325Y-46129728D01*
X39083800Y-46304120D01*
X38967275Y-46129728D01*
X38760432Y-45922885D01*
X38517211Y-45760370D01*
X38246958Y-45648428D01*
X37960060Y-45591360D01*
X37667540Y-45591360D01*
X37380642Y-45648428D01*
X37110389Y-45760370D01*
X36867168Y-45922885D01*
X36660325Y-46129728D01*
X36497810Y-46372949D01*
X36385868Y-46643202D01*
X36328800Y-46930100D01*
X36328800Y-47222620D01*
X36385868Y-47509518D01*
X36497810Y-47779771D01*
X36660325Y-48022992D01*
X36867168Y-48229835D01*
X37110389Y-48392350D01*
X37380642Y-48504292D01*
X37667540Y-48561360D01*
X37960060Y-48561360D01*
X38246958Y-48504292D01*
X38517211Y-48392350D01*
X38760432Y-48229835D01*
X38967275Y-48022992D01*
X39083800Y-47848600D01*
X39200325Y-48022992D01*
X39407168Y-48229835D01*
X39650389Y-48392350D01*
X39920642Y-48504292D01*
X40207540Y-48561360D01*
X40500060Y-48561360D01*
X40786958Y-48504292D01*
X41057211Y-48392350D01*
X41300432Y-48229835D01*
X41507275Y-48022992D01*
X41669790Y-47779771D01*
X41781732Y-47509518D01*
X41838800Y-47222620D01*
X41838800Y-46930100D01*
X41781732Y-46643202D01*
X41713867Y-46479360D01*
X54739928Y-46479360D01*
X54752188Y-46603842D01*
X54788498Y-46723540D01*
X54847463Y-46833854D01*
X54926815Y-46930545D01*
X55023506Y-47009897D01*
X55133820Y-47068862D01*
X55253518Y-47105172D01*
X55378000Y-47117432D01*
X55892250Y-47114360D01*
X56051000Y-46955610D01*
X56051000Y-45806360D01*
X56305000Y-45806360D01*
X56305000Y-46955610D01*
X56463750Y-47114360D01*
X56978000Y-47117432D01*
X57102482Y-47105172D01*
X57222180Y-47068862D01*
X57332494Y-47009897D01*
X57429185Y-46930545D01*
X57508537Y-46833854D01*
X57567502Y-46723540D01*
X57600400Y-46615090D01*
X57633298Y-46723540D01*
X57692263Y-46833854D01*
X57771615Y-46930545D01*
X57868306Y-47009897D01*
X57978620Y-47068862D01*
X58098318Y-47105172D01*
X58222800Y-47117432D01*
X58737050Y-47114360D01*
X58895800Y-46955610D01*
X58895800Y-45806360D01*
X59149800Y-45806360D01*
X59149800Y-46955610D01*
X59308550Y-47114360D01*
X59822800Y-47117432D01*
X59947282Y-47105172D01*
X60066980Y-47068862D01*
X60177294Y-47009897D01*
X60273985Y-46930545D01*
X60353337Y-46833854D01*
X60412302Y-46723540D01*
X60448612Y-46603842D01*
X60460872Y-46479360D01*
X60457800Y-45965110D01*
X60299050Y-45806360D01*
X59149800Y-45806360D01*
X58895800Y-45806360D01*
X57746550Y-45806360D01*
X57600400Y-45952510D01*
X57454250Y-45806360D01*
X56305000Y-45806360D01*
X56051000Y-45806360D01*
X54901750Y-45806360D01*
X54743000Y-45965110D01*
X54739928Y-46479360D01*
X41713867Y-46479360D01*
X41669790Y-46372949D01*
X41507275Y-46129728D01*
X41300432Y-45922885D01*
X41126040Y-45806360D01*
X41300432Y-45689835D01*
X41507275Y-45482992D01*
X41669790Y-45239771D01*
X41781732Y-44969518D01*
X41838800Y-44682620D01*
X41838800Y-44390100D01*
X41781732Y-44103202D01*
X41669790Y-43832949D01*
X41507275Y-43589728D01*
X41300432Y-43382885D01*
X41126040Y-43266360D01*
X41300432Y-43149835D01*
X41507275Y-42942992D01*
X41669790Y-42699771D01*
X41781732Y-42429518D01*
X41838800Y-42142620D01*
X41838800Y-41850100D01*
X41781732Y-41563202D01*
X41669790Y-41292949D01*
X41507275Y-41049728D01*
X41300432Y-40842885D01*
X41126040Y-40726360D01*
X41300432Y-40609835D01*
X41507275Y-40402992D01*
X41669790Y-40159771D01*
X41781732Y-39889518D01*
X41838800Y-39602620D01*
X41838800Y-39310100D01*
X41781732Y-39023202D01*
X41669790Y-38752949D01*
X41507275Y-38509728D01*
X41300432Y-38302885D01*
X41126040Y-38186360D01*
X41300432Y-38069835D01*
X41507275Y-37862992D01*
X41669790Y-37619771D01*
X41781732Y-37349518D01*
X41838800Y-37062620D01*
X41838800Y-36770100D01*
X41781732Y-36483202D01*
X41669790Y-36212949D01*
X41507275Y-35969728D01*
X41375420Y-35837873D01*
X41447980Y-35815862D01*
X41558294Y-35756897D01*
X41654985Y-35677545D01*
X41734337Y-35580854D01*
X41793302Y-35470540D01*
X41829612Y-35350842D01*
X41841872Y-35226360D01*
X41841872Y-33526360D01*
X41829612Y-33401878D01*
X41793302Y-33282180D01*
X41734337Y-33171866D01*
X41654985Y-33075175D01*
X41558294Y-32995823D01*
X41447980Y-32936858D01*
X41328282Y-32900548D01*
X41203800Y-32888288D01*
X39503800Y-32888288D01*
X39379318Y-32900548D01*
X39259620Y-32936858D01*
X39149306Y-32995823D01*
X39052615Y-33075175D01*
X38973263Y-33171866D01*
X38914298Y-33282180D01*
X38892287Y-33354740D01*
X38760432Y-33222885D01*
X38517211Y-33060370D01*
X38246958Y-32948428D01*
X37960060Y-32891360D01*
X37667540Y-32891360D01*
X37380642Y-32948428D01*
X37110389Y-33060370D01*
X36867168Y-33222885D01*
X36660325Y-33429728D01*
X36497810Y-33672949D01*
X36385868Y-33943202D01*
X36328800Y-34230100D01*
X28211800Y-34230100D01*
X28211800Y-31987960D01*
X58795000Y-31987960D01*
X58795001Y-32793303D01*
G37*
G04 #@! TD.AperFunction*
M02*
