%TF.GenerationSoftware,KiCad,Pcbnew,(5.1.10)-1*%
%TF.CreationDate,2021-11-06T11:37:03+01:00*%
%TF.ProjectId,msx-mouse-adapter,6d73782d-6d6f-4757-9365-2d6164617074,rev?*%
%TF.SameCoordinates,Original*%
%TF.FileFunction,Copper,L1,Top*%
%TF.FilePolarity,Positive*%
%FSLAX46Y46*%
G04 Gerber Fmt 4.6, Leading zero omitted, Abs format (unit mm)*
G04 Created by KiCad (PCBNEW (5.1.10)-1) date 2021-11-06 11:37:03*
%MOMM*%
%LPD*%
G01*
G04 APERTURE LIST*
%TA.AperFunction,ComponentPad*%
%ADD10C,3.000000*%
%TD*%
%TA.AperFunction,ComponentPad*%
%ADD11R,1.500000X1.600000*%
%TD*%
%TA.AperFunction,ComponentPad*%
%ADD12C,1.600000*%
%TD*%
%TA.AperFunction,ComponentPad*%
%ADD13R,1.700000X1.700000*%
%TD*%
%TA.AperFunction,ComponentPad*%
%ADD14O,1.700000X1.700000*%
%TD*%
%TA.AperFunction,ComponentPad*%
%ADD15C,4.000000*%
%TD*%
%TA.AperFunction,ComponentPad*%
%ADD16R,1.600000X1.600000*%
%TD*%
%TA.AperFunction,ViaPad*%
%ADD17C,0.800000*%
%TD*%
%TA.AperFunction,Conductor*%
%ADD18C,0.750000*%
%TD*%
%TA.AperFunction,Conductor*%
%ADD19C,0.500000*%
%TD*%
%TA.AperFunction,Conductor*%
%ADD20C,0.250000*%
%TD*%
%TA.AperFunction,Conductor*%
%ADD21C,1.000000*%
%TD*%
%TA.AperFunction,Conductor*%
%ADD22C,0.254000*%
%TD*%
%TA.AperFunction,Conductor*%
%ADD23C,0.100000*%
%TD*%
G04 APERTURE END LIST*
D10*
%TO.P,J2,5*%
%TO.N,Net-(J2-Pad5)*%
X146982000Y-55902000D03*
X146982000Y-42762000D03*
D11*
%TO.P,J2,1*%
%TO.N,+5V*%
X144272000Y-52832000D03*
D12*
%TO.P,J2,2*%
%TO.N,/D10_PWM*%
X144272000Y-50332000D03*
%TO.P,J2,3*%
%TO.N,/D11_MOSI*%
X144272000Y-48332000D03*
%TO.P,J2,4*%
%TO.N,GND*%
X144272000Y-45832000D03*
%TD*%
D13*
%TO.P,J3,1*%
%TO.N,/D12_MISO*%
X143256000Y-61722000D03*
D14*
%TO.P,J3,2*%
%TO.N,+5V*%
X143256000Y-64262000D03*
%TO.P,J3,3*%
%TO.N,/D13_SCK*%
X140716000Y-61722000D03*
%TO.P,J3,4*%
%TO.N,/D11_MOSI*%
X140716000Y-64262000D03*
%TO.P,J3,5*%
%TO.N,/RESET*%
X138176000Y-61722000D03*
%TO.P,J3,6*%
%TO.N,GND*%
X138176000Y-64262000D03*
%TD*%
D12*
%TO.P,J1,2*%
%TO.N,/D3_PWM*%
X128905000Y-53110000D03*
%TO.P,J1,8*%
%TO.N,/D8*%
X126065000Y-48955000D03*
%TO.P,J1,9*%
%TO.N,GND*%
X126065000Y-46185000D03*
D15*
%TO.P,J1,0*%
%TO.N,N/C*%
X128605000Y-37840000D03*
X128605000Y-62840000D03*
D12*
%TO.P,J1,5*%
%TO.N,+5V*%
X128905000Y-44800000D03*
%TO.P,J1,4*%
%TO.N,/D5_PWM*%
X128905000Y-47570000D03*
%TO.P,J1,7*%
%TO.N,/ButtonRight*%
X126065000Y-51725000D03*
D16*
%TO.P,J1,1*%
%TO.N,/D2*%
X128905000Y-55880000D03*
D12*
%TO.P,J1,3*%
%TO.N,/D4*%
X128905000Y-50340000D03*
%TO.P,J1,6*%
%TO.N,/ButtonLeft*%
X126065000Y-54495000D03*
%TD*%
D17*
%TO.N,GND*%
X136398000Y-38100000D03*
X137922000Y-38100000D03*
X133350000Y-52070000D03*
X134112000Y-35560000D03*
X152654000Y-60198000D03*
%TO.N,+5V*%
X123698000Y-45974000D03*
X125476000Y-59436000D03*
X144681001Y-57559001D03*
X135382000Y-52070000D03*
X133096000Y-59436000D03*
X139192000Y-52070000D03*
X136906000Y-59436000D03*
X131064000Y-40640000D03*
X131826000Y-36830000D03*
%TO.N,/D2*%
X137160000Y-44958000D03*
X137160000Y-52832000D03*
%TO.N,/D3_PWM*%
X134869347Y-38358653D03*
X122174000Y-51816000D03*
%TO.N,/D4*%
X128265818Y-40417784D03*
X133340694Y-37855306D03*
X132370999Y-39914999D03*
%TO.N,/D5_PWM*%
X130810000Y-45720000D03*
X138938000Y-41148000D03*
%TO.N,/ButtonLeft*%
X140208000Y-41910000D03*
X136905999Y-54356000D03*
%TO.N,/ButtonRight*%
X133350000Y-48006000D03*
X135382000Y-45974000D03*
X140462000Y-44450000D03*
X143764000Y-43942000D03*
%TO.N,/D8*%
X137379999Y-43542000D03*
X131064000Y-49022000D03*
%TO.N,/D10_PWM*%
X139700000Y-46228000D03*
X140589000Y-49657000D03*
%TO.N,/D11_MOSI*%
X142039001Y-49607000D03*
%TO.N,/D12_MISO*%
X142511314Y-47607000D03*
%TO.N,/D13_SCK*%
X144780000Y-37592000D03*
X145796000Y-53848000D03*
X141261000Y-58461000D03*
X141290279Y-48944113D03*
%TO.N,/RESET*%
X135128000Y-43688000D03*
%TO.N,Net-(C2-Pad1)*%
X148844000Y-45466000D03*
X148082000Y-38354000D03*
%TO.N,Net-(C3-Pad1)*%
X155702000Y-40640000D03*
X155702000Y-45720000D03*
%TD*%
D18*
%TO.N,+5V*%
X123698000Y-45974000D02*
X123698000Y-57658000D01*
X123698000Y-57658000D02*
X125476000Y-59436000D01*
X144681001Y-53241001D02*
X144272000Y-52832000D01*
X143256000Y-64262000D02*
X144681001Y-62836999D01*
X144681001Y-57559001D02*
X144681001Y-53241001D01*
X144681001Y-62836999D02*
X144681001Y-57559001D01*
D19*
X135382000Y-57150000D02*
X133096000Y-59436000D01*
X135382000Y-52070000D02*
X135382000Y-57150000D01*
X139192000Y-52070000D02*
X139192000Y-57150000D01*
X139192000Y-57150000D02*
X136906000Y-59436000D01*
X131064000Y-37592000D02*
X131826000Y-36830000D01*
X131064000Y-40640000D02*
X131064000Y-37592000D01*
D20*
%TO.N,/D2*%
X137160000Y-44958000D02*
X137160000Y-52832000D01*
%TO.N,/D3_PWM*%
X122174000Y-40829998D02*
X122174000Y-51816000D01*
X127488999Y-35514999D02*
X122174000Y-40829998D01*
X132025693Y-35514999D02*
X127488999Y-35514999D01*
X134869347Y-38358653D02*
X132025693Y-35514999D01*
%TO.N,/D4*%
X127190001Y-41493601D02*
X127190001Y-49212001D01*
X128265818Y-40417784D02*
X127190001Y-41493601D01*
X128318000Y-50340000D02*
X128905000Y-50340000D01*
X127190001Y-49212001D02*
X128318000Y-50340000D01*
X133340694Y-38945304D02*
X132370999Y-39914999D01*
X133340694Y-37855306D02*
X133340694Y-38945304D01*
%TO.N,/D5_PWM*%
X130810000Y-45720000D02*
X134620000Y-41910000D01*
X138176000Y-41910000D02*
X138938000Y-41148000D01*
X134620000Y-41910000D02*
X138176000Y-41910000D01*
%TO.N,/ButtonLeft*%
X137885001Y-44232999D02*
X137885001Y-53303001D01*
X140208000Y-41910000D02*
X137885001Y-44232999D01*
X136905999Y-54282003D02*
X136905999Y-54356000D01*
X137885001Y-53303001D02*
X136905999Y-54282003D01*
%TO.N,/ButtonRight*%
X133350000Y-48006000D02*
X135455999Y-45900001D01*
X135455999Y-45900001D02*
X135382000Y-45974000D01*
X143256000Y-44450000D02*
X143764000Y-43942000D01*
X140462000Y-44450000D02*
X143256000Y-44450000D01*
%TO.N,/D8*%
X136800998Y-42962999D02*
X137379999Y-43542000D01*
X134779999Y-42962999D02*
X136800998Y-42962999D01*
X131893000Y-45849998D02*
X134779999Y-42962999D01*
X131893000Y-48193000D02*
X131064000Y-49022000D01*
X131893000Y-45849998D02*
X131893000Y-48193000D01*
D21*
%TO.N,Net-(J2-Pad5)*%
X146982000Y-42762000D02*
X146982000Y-55902000D01*
D20*
%TO.N,/D10_PWM*%
X139700000Y-48768000D02*
X139700000Y-46228000D01*
X140589000Y-49657000D02*
X139700000Y-48768000D01*
X140716000Y-49784000D02*
X140589000Y-49657000D01*
%TO.N,/D11_MOSI*%
X141986000Y-62992000D02*
X140716000Y-64262000D01*
X141986000Y-49784000D02*
X141986000Y-62992000D01*
X141986000Y-49660001D02*
X142039001Y-49607000D01*
X141986000Y-49784000D02*
X141986000Y-49660001D01*
%TO.N,/D12_MISO*%
X142911313Y-61377313D02*
X143256000Y-61722000D01*
X142911313Y-48006999D02*
X142911313Y-61377313D01*
X142511314Y-47607000D02*
X142911313Y-48006999D01*
%TO.N,/D13_SCK*%
X145796000Y-45722999D02*
X145796000Y-53848000D01*
X144780000Y-44706999D02*
X145796000Y-45722999D01*
X144780000Y-37592000D02*
X144780000Y-44706999D01*
X141314001Y-58407999D02*
X141261000Y-58461000D01*
X141314001Y-49308999D02*
X141314001Y-58407999D01*
X141290279Y-49285277D02*
X141314001Y-49308999D01*
X141290279Y-48944113D02*
X141290279Y-49285277D01*
X141261000Y-61177000D02*
X140716000Y-61722000D01*
X141261000Y-58461000D02*
X141261000Y-61177000D01*
%TO.N,/RESET*%
X136180999Y-44740999D02*
X135128000Y-43688000D01*
X136180999Y-60929080D02*
X136180999Y-44740999D01*
X136973919Y-61722000D02*
X136180999Y-60929080D01*
X138176000Y-61722000D02*
X136973919Y-61722000D01*
%TO.N,Net-(C2-Pad1)*%
X148844000Y-39116000D02*
X148082000Y-38354000D01*
X148844000Y-45466000D02*
X148844000Y-39116000D01*
%TO.N,Net-(C3-Pad1)*%
X155702000Y-40640000D02*
X155702000Y-45720000D01*
%TD*%
D22*
%TO.N,GND*%
X157074001Y-65634000D02*
X143824190Y-65634000D01*
X143959411Y-65577990D01*
X144202632Y-65415475D01*
X144409475Y-65208632D01*
X144571990Y-64965411D01*
X144683932Y-64695158D01*
X144741000Y-64408260D01*
X144741000Y-64205356D01*
X145360100Y-63586256D01*
X145398634Y-63554632D01*
X145524848Y-63400839D01*
X145618633Y-63225379D01*
X145655897Y-63102537D01*
X145676386Y-63034994D01*
X145695887Y-62836999D01*
X145691001Y-62787391D01*
X145691001Y-57786624D01*
X145716001Y-57660940D01*
X145716001Y-57623829D01*
X145970698Y-57794012D01*
X146359244Y-57954953D01*
X146771721Y-58037000D01*
X147192279Y-58037000D01*
X147604756Y-57954953D01*
X147993302Y-57794012D01*
X148342983Y-57560363D01*
X148640363Y-57262983D01*
X148874012Y-56913302D01*
X149034953Y-56524756D01*
X149117000Y-56112279D01*
X149117000Y-55691721D01*
X149034953Y-55279244D01*
X148874012Y-54890698D01*
X148640363Y-54541017D01*
X148342983Y-54243637D01*
X148117000Y-54092640D01*
X148117000Y-46202711D01*
X148184226Y-46269937D01*
X148353744Y-46383205D01*
X148542102Y-46461226D01*
X148742061Y-46501000D01*
X148945939Y-46501000D01*
X149145898Y-46461226D01*
X149334256Y-46383205D01*
X149503774Y-46269937D01*
X149647937Y-46125774D01*
X149761205Y-45956256D01*
X149839226Y-45767898D01*
X149879000Y-45567939D01*
X149879000Y-45364061D01*
X149839226Y-45164102D01*
X149761205Y-44975744D01*
X149647937Y-44806226D01*
X149604000Y-44762289D01*
X149604000Y-40538061D01*
X154667000Y-40538061D01*
X154667000Y-40741939D01*
X154706774Y-40941898D01*
X154784795Y-41130256D01*
X154898063Y-41299774D01*
X154942000Y-41343711D01*
X154942001Y-45016288D01*
X154898063Y-45060226D01*
X154784795Y-45229744D01*
X154706774Y-45418102D01*
X154667000Y-45618061D01*
X154667000Y-45821939D01*
X154706774Y-46021898D01*
X154784795Y-46210256D01*
X154898063Y-46379774D01*
X155042226Y-46523937D01*
X155211744Y-46637205D01*
X155400102Y-46715226D01*
X155600061Y-46755000D01*
X155803939Y-46755000D01*
X156003898Y-46715226D01*
X156192256Y-46637205D01*
X156361774Y-46523937D01*
X156505937Y-46379774D01*
X156619205Y-46210256D01*
X156697226Y-46021898D01*
X156737000Y-45821939D01*
X156737000Y-45618061D01*
X156697226Y-45418102D01*
X156619205Y-45229744D01*
X156505937Y-45060226D01*
X156462000Y-45016289D01*
X156462000Y-41343711D01*
X156505937Y-41299774D01*
X156619205Y-41130256D01*
X156697226Y-40941898D01*
X156737000Y-40741939D01*
X156737000Y-40538061D01*
X156697226Y-40338102D01*
X156619205Y-40149744D01*
X156505937Y-39980226D01*
X156361774Y-39836063D01*
X156192256Y-39722795D01*
X156003898Y-39644774D01*
X155803939Y-39605000D01*
X155600061Y-39605000D01*
X155400102Y-39644774D01*
X155211744Y-39722795D01*
X155042226Y-39836063D01*
X154898063Y-39980226D01*
X154784795Y-40149744D01*
X154706774Y-40338102D01*
X154667000Y-40538061D01*
X149604000Y-40538061D01*
X149604000Y-39153325D01*
X149607676Y-39116000D01*
X149604000Y-39078675D01*
X149604000Y-39078667D01*
X149593003Y-38967014D01*
X149549546Y-38823753D01*
X149478974Y-38691724D01*
X149384001Y-38575999D01*
X149355002Y-38552201D01*
X149117000Y-38314198D01*
X149117000Y-38252061D01*
X149077226Y-38052102D01*
X148999205Y-37863744D01*
X148885937Y-37694226D01*
X148741774Y-37550063D01*
X148572256Y-37436795D01*
X148383898Y-37358774D01*
X148183939Y-37319000D01*
X147980061Y-37319000D01*
X147780102Y-37358774D01*
X147591744Y-37436795D01*
X147422226Y-37550063D01*
X147278063Y-37694226D01*
X147164795Y-37863744D01*
X147086774Y-38052102D01*
X147047000Y-38252061D01*
X147047000Y-38455939D01*
X147086774Y-38655898D01*
X147164795Y-38844256D01*
X147278063Y-39013774D01*
X147422226Y-39157937D01*
X147591744Y-39271205D01*
X147780102Y-39349226D01*
X147980061Y-39389000D01*
X148042198Y-39389000D01*
X148084001Y-39430803D01*
X148084001Y-40930591D01*
X147993302Y-40869988D01*
X147604756Y-40709047D01*
X147192279Y-40627000D01*
X146771721Y-40627000D01*
X146359244Y-40709047D01*
X145970698Y-40869988D01*
X145621017Y-41103637D01*
X145540000Y-41184654D01*
X145540000Y-38295711D01*
X145583937Y-38251774D01*
X145697205Y-38082256D01*
X145775226Y-37893898D01*
X145815000Y-37693939D01*
X145815000Y-37490061D01*
X145775226Y-37290102D01*
X145697205Y-37101744D01*
X145583937Y-36932226D01*
X145439774Y-36788063D01*
X145270256Y-36674795D01*
X145081898Y-36596774D01*
X144881939Y-36557000D01*
X144678061Y-36557000D01*
X144478102Y-36596774D01*
X144289744Y-36674795D01*
X144120226Y-36788063D01*
X143976063Y-36932226D01*
X143862795Y-37101744D01*
X143784774Y-37290102D01*
X143745000Y-37490061D01*
X143745000Y-37693939D01*
X143784774Y-37893898D01*
X143862795Y-38082256D01*
X143976063Y-38251774D01*
X144020000Y-38295711D01*
X144020001Y-42937645D01*
X143865939Y-42907000D01*
X143662061Y-42907000D01*
X143462102Y-42946774D01*
X143273744Y-43024795D01*
X143104226Y-43138063D01*
X142960063Y-43282226D01*
X142846795Y-43451744D01*
X142768774Y-43640102D01*
X142758849Y-43690000D01*
X141165711Y-43690000D01*
X141121774Y-43646063D01*
X140952256Y-43532795D01*
X140763898Y-43454774D01*
X140563939Y-43415000D01*
X140360061Y-43415000D01*
X140160102Y-43454774D01*
X139971744Y-43532795D01*
X139802226Y-43646063D01*
X139658063Y-43790226D01*
X139544795Y-43959744D01*
X139466774Y-44148102D01*
X139427000Y-44348061D01*
X139427000Y-44551939D01*
X139466774Y-44751898D01*
X139544795Y-44940256D01*
X139658063Y-45109774D01*
X139741289Y-45193000D01*
X139598061Y-45193000D01*
X139398102Y-45232774D01*
X139209744Y-45310795D01*
X139040226Y-45424063D01*
X138896063Y-45568226D01*
X138782795Y-45737744D01*
X138704774Y-45926102D01*
X138665000Y-46126061D01*
X138665000Y-46329939D01*
X138704774Y-46529898D01*
X138782795Y-46718256D01*
X138896063Y-46887774D01*
X138940001Y-46931712D01*
X138940000Y-48730677D01*
X138936324Y-48768000D01*
X138940000Y-48805322D01*
X138940000Y-48805332D01*
X138950997Y-48916985D01*
X138983771Y-49025027D01*
X138994454Y-49060246D01*
X139065026Y-49192276D01*
X139085615Y-49217363D01*
X139159999Y-49308001D01*
X139189002Y-49331803D01*
X139554000Y-49696801D01*
X139554000Y-49758939D01*
X139593774Y-49958898D01*
X139671795Y-50147256D01*
X139785063Y-50316774D01*
X139929226Y-50460937D01*
X140098744Y-50574205D01*
X140287102Y-50652226D01*
X140487061Y-50692000D01*
X140554001Y-50692000D01*
X140554002Y-57704287D01*
X140457063Y-57801226D01*
X140343795Y-57970744D01*
X140265774Y-58159102D01*
X140226000Y-58359061D01*
X140226000Y-58562939D01*
X140265774Y-58762898D01*
X140343795Y-58951256D01*
X140457063Y-59120774D01*
X140501000Y-59164711D01*
X140501001Y-60250673D01*
X140282842Y-60294068D01*
X140012589Y-60406010D01*
X139769368Y-60568525D01*
X139562525Y-60775368D01*
X139446000Y-60949760D01*
X139329475Y-60775368D01*
X139122632Y-60568525D01*
X138879411Y-60406010D01*
X138609158Y-60294068D01*
X138322260Y-60237000D01*
X138029740Y-60237000D01*
X137742842Y-60294068D01*
X137472589Y-60406010D01*
X137229368Y-60568525D01*
X137062307Y-60735586D01*
X136940999Y-60614279D01*
X136940999Y-60471000D01*
X137007939Y-60471000D01*
X137207898Y-60431226D01*
X137396256Y-60353205D01*
X137565774Y-60239937D01*
X137709937Y-60095774D01*
X137823205Y-59926256D01*
X137901226Y-59737898D01*
X137912535Y-59681043D01*
X139787049Y-57806530D01*
X139820817Y-57778817D01*
X139931411Y-57644059D01*
X140013589Y-57490313D01*
X140064195Y-57323490D01*
X140077000Y-57193477D01*
X140077000Y-57193467D01*
X140081281Y-57150001D01*
X140077000Y-57106535D01*
X140077000Y-52608454D01*
X140109205Y-52560256D01*
X140187226Y-52371898D01*
X140227000Y-52171939D01*
X140227000Y-51968061D01*
X140187226Y-51768102D01*
X140109205Y-51579744D01*
X139995937Y-51410226D01*
X139851774Y-51266063D01*
X139682256Y-51152795D01*
X139493898Y-51074774D01*
X139293939Y-51035000D01*
X139090061Y-51035000D01*
X138890102Y-51074774D01*
X138701744Y-51152795D01*
X138645001Y-51190709D01*
X138645001Y-44547800D01*
X140247802Y-42945000D01*
X140309939Y-42945000D01*
X140509898Y-42905226D01*
X140698256Y-42827205D01*
X140867774Y-42713937D01*
X141011937Y-42569774D01*
X141125205Y-42400256D01*
X141203226Y-42211898D01*
X141243000Y-42011939D01*
X141243000Y-41808061D01*
X141203226Y-41608102D01*
X141125205Y-41419744D01*
X141011937Y-41250226D01*
X140867774Y-41106063D01*
X140698256Y-40992795D01*
X140509898Y-40914774D01*
X140309939Y-40875000D01*
X140106061Y-40875000D01*
X139945333Y-40906970D01*
X139933226Y-40846102D01*
X139855205Y-40657744D01*
X139741937Y-40488226D01*
X139597774Y-40344063D01*
X139428256Y-40230795D01*
X139239898Y-40152774D01*
X139039939Y-40113000D01*
X138836061Y-40113000D01*
X138636102Y-40152774D01*
X138447744Y-40230795D01*
X138278226Y-40344063D01*
X138134063Y-40488226D01*
X138020795Y-40657744D01*
X137942774Y-40846102D01*
X137903000Y-41046061D01*
X137903000Y-41108199D01*
X137861199Y-41150000D01*
X134657325Y-41150000D01*
X134620000Y-41146324D01*
X134582675Y-41150000D01*
X134582667Y-41150000D01*
X134471014Y-41160997D01*
X134327753Y-41204454D01*
X134195724Y-41275026D01*
X134079999Y-41369999D01*
X134056201Y-41398997D01*
X130770199Y-44685000D01*
X130708061Y-44685000D01*
X130508102Y-44724774D01*
X130340000Y-44794405D01*
X130340000Y-44658665D01*
X130284853Y-44381426D01*
X130176680Y-44120273D01*
X130019637Y-43885241D01*
X129819759Y-43685363D01*
X129584727Y-43528320D01*
X129323574Y-43420147D01*
X129046335Y-43365000D01*
X128763665Y-43365000D01*
X128486426Y-43420147D01*
X128225273Y-43528320D01*
X127990241Y-43685363D01*
X127950001Y-43725603D01*
X127950001Y-41808402D01*
X128305620Y-41452784D01*
X128367757Y-41452784D01*
X128567716Y-41413010D01*
X128756074Y-41334989D01*
X128925592Y-41221721D01*
X129069755Y-41077558D01*
X129183023Y-40908040D01*
X129261044Y-40719682D01*
X129300818Y-40519723D01*
X129300818Y-40388216D01*
X129373601Y-40373739D01*
X129853141Y-40175107D01*
X130179000Y-39957374D01*
X130179000Y-40101545D01*
X130146795Y-40149744D01*
X130068774Y-40338102D01*
X130029000Y-40538061D01*
X130029000Y-40741939D01*
X130068774Y-40941898D01*
X130146795Y-41130256D01*
X130260063Y-41299774D01*
X130404226Y-41443937D01*
X130573744Y-41557205D01*
X130762102Y-41635226D01*
X130962061Y-41675000D01*
X131165939Y-41675000D01*
X131365898Y-41635226D01*
X131554256Y-41557205D01*
X131723774Y-41443937D01*
X131867937Y-41299774D01*
X131981205Y-41130256D01*
X132059226Y-40941898D01*
X132065798Y-40908857D01*
X132069101Y-40910225D01*
X132269060Y-40949999D01*
X132472938Y-40949999D01*
X132672897Y-40910225D01*
X132861255Y-40832204D01*
X133030773Y-40718936D01*
X133174936Y-40574773D01*
X133288204Y-40405255D01*
X133366225Y-40216897D01*
X133405999Y-40016938D01*
X133405999Y-39954801D01*
X133851697Y-39509103D01*
X133880695Y-39485305D01*
X133975668Y-39369580D01*
X134046240Y-39237551D01*
X134089697Y-39094290D01*
X134094321Y-39047338D01*
X134209573Y-39162590D01*
X134379091Y-39275858D01*
X134567449Y-39353879D01*
X134767408Y-39393653D01*
X134971286Y-39393653D01*
X135171245Y-39353879D01*
X135359603Y-39275858D01*
X135529121Y-39162590D01*
X135673284Y-39018427D01*
X135786552Y-38848909D01*
X135864573Y-38660551D01*
X135904347Y-38460592D01*
X135904347Y-38256714D01*
X135864573Y-38056755D01*
X135786552Y-37868397D01*
X135673284Y-37698879D01*
X135529121Y-37554716D01*
X135359603Y-37441448D01*
X135171245Y-37363427D01*
X134971286Y-37323653D01*
X134909149Y-37323653D01*
X132589497Y-35004002D01*
X132565694Y-34974998D01*
X132535234Y-34950000D01*
X157074000Y-34950000D01*
X157074001Y-65634000D01*
%TA.AperFunction,Conductor*%
D23*
G36*
X157074001Y-65634000D02*
G01*
X143824190Y-65634000D01*
X143959411Y-65577990D01*
X144202632Y-65415475D01*
X144409475Y-65208632D01*
X144571990Y-64965411D01*
X144683932Y-64695158D01*
X144741000Y-64408260D01*
X144741000Y-64205356D01*
X145360100Y-63586256D01*
X145398634Y-63554632D01*
X145524848Y-63400839D01*
X145618633Y-63225379D01*
X145655897Y-63102537D01*
X145676386Y-63034994D01*
X145695887Y-62836999D01*
X145691001Y-62787391D01*
X145691001Y-57786624D01*
X145716001Y-57660940D01*
X145716001Y-57623829D01*
X145970698Y-57794012D01*
X146359244Y-57954953D01*
X146771721Y-58037000D01*
X147192279Y-58037000D01*
X147604756Y-57954953D01*
X147993302Y-57794012D01*
X148342983Y-57560363D01*
X148640363Y-57262983D01*
X148874012Y-56913302D01*
X149034953Y-56524756D01*
X149117000Y-56112279D01*
X149117000Y-55691721D01*
X149034953Y-55279244D01*
X148874012Y-54890698D01*
X148640363Y-54541017D01*
X148342983Y-54243637D01*
X148117000Y-54092640D01*
X148117000Y-46202711D01*
X148184226Y-46269937D01*
X148353744Y-46383205D01*
X148542102Y-46461226D01*
X148742061Y-46501000D01*
X148945939Y-46501000D01*
X149145898Y-46461226D01*
X149334256Y-46383205D01*
X149503774Y-46269937D01*
X149647937Y-46125774D01*
X149761205Y-45956256D01*
X149839226Y-45767898D01*
X149879000Y-45567939D01*
X149879000Y-45364061D01*
X149839226Y-45164102D01*
X149761205Y-44975744D01*
X149647937Y-44806226D01*
X149604000Y-44762289D01*
X149604000Y-40538061D01*
X154667000Y-40538061D01*
X154667000Y-40741939D01*
X154706774Y-40941898D01*
X154784795Y-41130256D01*
X154898063Y-41299774D01*
X154942000Y-41343711D01*
X154942001Y-45016288D01*
X154898063Y-45060226D01*
X154784795Y-45229744D01*
X154706774Y-45418102D01*
X154667000Y-45618061D01*
X154667000Y-45821939D01*
X154706774Y-46021898D01*
X154784795Y-46210256D01*
X154898063Y-46379774D01*
X155042226Y-46523937D01*
X155211744Y-46637205D01*
X155400102Y-46715226D01*
X155600061Y-46755000D01*
X155803939Y-46755000D01*
X156003898Y-46715226D01*
X156192256Y-46637205D01*
X156361774Y-46523937D01*
X156505937Y-46379774D01*
X156619205Y-46210256D01*
X156697226Y-46021898D01*
X156737000Y-45821939D01*
X156737000Y-45618061D01*
X156697226Y-45418102D01*
X156619205Y-45229744D01*
X156505937Y-45060226D01*
X156462000Y-45016289D01*
X156462000Y-41343711D01*
X156505937Y-41299774D01*
X156619205Y-41130256D01*
X156697226Y-40941898D01*
X156737000Y-40741939D01*
X156737000Y-40538061D01*
X156697226Y-40338102D01*
X156619205Y-40149744D01*
X156505937Y-39980226D01*
X156361774Y-39836063D01*
X156192256Y-39722795D01*
X156003898Y-39644774D01*
X155803939Y-39605000D01*
X155600061Y-39605000D01*
X155400102Y-39644774D01*
X155211744Y-39722795D01*
X155042226Y-39836063D01*
X154898063Y-39980226D01*
X154784795Y-40149744D01*
X154706774Y-40338102D01*
X154667000Y-40538061D01*
X149604000Y-40538061D01*
X149604000Y-39153325D01*
X149607676Y-39116000D01*
X149604000Y-39078675D01*
X149604000Y-39078667D01*
X149593003Y-38967014D01*
X149549546Y-38823753D01*
X149478974Y-38691724D01*
X149384001Y-38575999D01*
X149355002Y-38552201D01*
X149117000Y-38314198D01*
X149117000Y-38252061D01*
X149077226Y-38052102D01*
X148999205Y-37863744D01*
X148885937Y-37694226D01*
X148741774Y-37550063D01*
X148572256Y-37436795D01*
X148383898Y-37358774D01*
X148183939Y-37319000D01*
X147980061Y-37319000D01*
X147780102Y-37358774D01*
X147591744Y-37436795D01*
X147422226Y-37550063D01*
X147278063Y-37694226D01*
X147164795Y-37863744D01*
X147086774Y-38052102D01*
X147047000Y-38252061D01*
X147047000Y-38455939D01*
X147086774Y-38655898D01*
X147164795Y-38844256D01*
X147278063Y-39013774D01*
X147422226Y-39157937D01*
X147591744Y-39271205D01*
X147780102Y-39349226D01*
X147980061Y-39389000D01*
X148042198Y-39389000D01*
X148084001Y-39430803D01*
X148084001Y-40930591D01*
X147993302Y-40869988D01*
X147604756Y-40709047D01*
X147192279Y-40627000D01*
X146771721Y-40627000D01*
X146359244Y-40709047D01*
X145970698Y-40869988D01*
X145621017Y-41103637D01*
X145540000Y-41184654D01*
X145540000Y-38295711D01*
X145583937Y-38251774D01*
X145697205Y-38082256D01*
X145775226Y-37893898D01*
X145815000Y-37693939D01*
X145815000Y-37490061D01*
X145775226Y-37290102D01*
X145697205Y-37101744D01*
X145583937Y-36932226D01*
X145439774Y-36788063D01*
X145270256Y-36674795D01*
X145081898Y-36596774D01*
X144881939Y-36557000D01*
X144678061Y-36557000D01*
X144478102Y-36596774D01*
X144289744Y-36674795D01*
X144120226Y-36788063D01*
X143976063Y-36932226D01*
X143862795Y-37101744D01*
X143784774Y-37290102D01*
X143745000Y-37490061D01*
X143745000Y-37693939D01*
X143784774Y-37893898D01*
X143862795Y-38082256D01*
X143976063Y-38251774D01*
X144020000Y-38295711D01*
X144020001Y-42937645D01*
X143865939Y-42907000D01*
X143662061Y-42907000D01*
X143462102Y-42946774D01*
X143273744Y-43024795D01*
X143104226Y-43138063D01*
X142960063Y-43282226D01*
X142846795Y-43451744D01*
X142768774Y-43640102D01*
X142758849Y-43690000D01*
X141165711Y-43690000D01*
X141121774Y-43646063D01*
X140952256Y-43532795D01*
X140763898Y-43454774D01*
X140563939Y-43415000D01*
X140360061Y-43415000D01*
X140160102Y-43454774D01*
X139971744Y-43532795D01*
X139802226Y-43646063D01*
X139658063Y-43790226D01*
X139544795Y-43959744D01*
X139466774Y-44148102D01*
X139427000Y-44348061D01*
X139427000Y-44551939D01*
X139466774Y-44751898D01*
X139544795Y-44940256D01*
X139658063Y-45109774D01*
X139741289Y-45193000D01*
X139598061Y-45193000D01*
X139398102Y-45232774D01*
X139209744Y-45310795D01*
X139040226Y-45424063D01*
X138896063Y-45568226D01*
X138782795Y-45737744D01*
X138704774Y-45926102D01*
X138665000Y-46126061D01*
X138665000Y-46329939D01*
X138704774Y-46529898D01*
X138782795Y-46718256D01*
X138896063Y-46887774D01*
X138940001Y-46931712D01*
X138940000Y-48730677D01*
X138936324Y-48768000D01*
X138940000Y-48805322D01*
X138940000Y-48805332D01*
X138950997Y-48916985D01*
X138983771Y-49025027D01*
X138994454Y-49060246D01*
X139065026Y-49192276D01*
X139085615Y-49217363D01*
X139159999Y-49308001D01*
X139189002Y-49331803D01*
X139554000Y-49696801D01*
X139554000Y-49758939D01*
X139593774Y-49958898D01*
X139671795Y-50147256D01*
X139785063Y-50316774D01*
X139929226Y-50460937D01*
X140098744Y-50574205D01*
X140287102Y-50652226D01*
X140487061Y-50692000D01*
X140554001Y-50692000D01*
X140554002Y-57704287D01*
X140457063Y-57801226D01*
X140343795Y-57970744D01*
X140265774Y-58159102D01*
X140226000Y-58359061D01*
X140226000Y-58562939D01*
X140265774Y-58762898D01*
X140343795Y-58951256D01*
X140457063Y-59120774D01*
X140501000Y-59164711D01*
X140501001Y-60250673D01*
X140282842Y-60294068D01*
X140012589Y-60406010D01*
X139769368Y-60568525D01*
X139562525Y-60775368D01*
X139446000Y-60949760D01*
X139329475Y-60775368D01*
X139122632Y-60568525D01*
X138879411Y-60406010D01*
X138609158Y-60294068D01*
X138322260Y-60237000D01*
X138029740Y-60237000D01*
X137742842Y-60294068D01*
X137472589Y-60406010D01*
X137229368Y-60568525D01*
X137062307Y-60735586D01*
X136940999Y-60614279D01*
X136940999Y-60471000D01*
X137007939Y-60471000D01*
X137207898Y-60431226D01*
X137396256Y-60353205D01*
X137565774Y-60239937D01*
X137709937Y-60095774D01*
X137823205Y-59926256D01*
X137901226Y-59737898D01*
X137912535Y-59681043D01*
X139787049Y-57806530D01*
X139820817Y-57778817D01*
X139931411Y-57644059D01*
X140013589Y-57490313D01*
X140064195Y-57323490D01*
X140077000Y-57193477D01*
X140077000Y-57193467D01*
X140081281Y-57150001D01*
X140077000Y-57106535D01*
X140077000Y-52608454D01*
X140109205Y-52560256D01*
X140187226Y-52371898D01*
X140227000Y-52171939D01*
X140227000Y-51968061D01*
X140187226Y-51768102D01*
X140109205Y-51579744D01*
X139995937Y-51410226D01*
X139851774Y-51266063D01*
X139682256Y-51152795D01*
X139493898Y-51074774D01*
X139293939Y-51035000D01*
X139090061Y-51035000D01*
X138890102Y-51074774D01*
X138701744Y-51152795D01*
X138645001Y-51190709D01*
X138645001Y-44547800D01*
X140247802Y-42945000D01*
X140309939Y-42945000D01*
X140509898Y-42905226D01*
X140698256Y-42827205D01*
X140867774Y-42713937D01*
X141011937Y-42569774D01*
X141125205Y-42400256D01*
X141203226Y-42211898D01*
X141243000Y-42011939D01*
X141243000Y-41808061D01*
X141203226Y-41608102D01*
X141125205Y-41419744D01*
X141011937Y-41250226D01*
X140867774Y-41106063D01*
X140698256Y-40992795D01*
X140509898Y-40914774D01*
X140309939Y-40875000D01*
X140106061Y-40875000D01*
X139945333Y-40906970D01*
X139933226Y-40846102D01*
X139855205Y-40657744D01*
X139741937Y-40488226D01*
X139597774Y-40344063D01*
X139428256Y-40230795D01*
X139239898Y-40152774D01*
X139039939Y-40113000D01*
X138836061Y-40113000D01*
X138636102Y-40152774D01*
X138447744Y-40230795D01*
X138278226Y-40344063D01*
X138134063Y-40488226D01*
X138020795Y-40657744D01*
X137942774Y-40846102D01*
X137903000Y-41046061D01*
X137903000Y-41108199D01*
X137861199Y-41150000D01*
X134657325Y-41150000D01*
X134620000Y-41146324D01*
X134582675Y-41150000D01*
X134582667Y-41150000D01*
X134471014Y-41160997D01*
X134327753Y-41204454D01*
X134195724Y-41275026D01*
X134079999Y-41369999D01*
X134056201Y-41398997D01*
X130770199Y-44685000D01*
X130708061Y-44685000D01*
X130508102Y-44724774D01*
X130340000Y-44794405D01*
X130340000Y-44658665D01*
X130284853Y-44381426D01*
X130176680Y-44120273D01*
X130019637Y-43885241D01*
X129819759Y-43685363D01*
X129584727Y-43528320D01*
X129323574Y-43420147D01*
X129046335Y-43365000D01*
X128763665Y-43365000D01*
X128486426Y-43420147D01*
X128225273Y-43528320D01*
X127990241Y-43685363D01*
X127950001Y-43725603D01*
X127950001Y-41808402D01*
X128305620Y-41452784D01*
X128367757Y-41452784D01*
X128567716Y-41413010D01*
X128756074Y-41334989D01*
X128925592Y-41221721D01*
X129069755Y-41077558D01*
X129183023Y-40908040D01*
X129261044Y-40719682D01*
X129300818Y-40519723D01*
X129300818Y-40388216D01*
X129373601Y-40373739D01*
X129853141Y-40175107D01*
X130179000Y-39957374D01*
X130179000Y-40101545D01*
X130146795Y-40149744D01*
X130068774Y-40338102D01*
X130029000Y-40538061D01*
X130029000Y-40741939D01*
X130068774Y-40941898D01*
X130146795Y-41130256D01*
X130260063Y-41299774D01*
X130404226Y-41443937D01*
X130573744Y-41557205D01*
X130762102Y-41635226D01*
X130962061Y-41675000D01*
X131165939Y-41675000D01*
X131365898Y-41635226D01*
X131554256Y-41557205D01*
X131723774Y-41443937D01*
X131867937Y-41299774D01*
X131981205Y-41130256D01*
X132059226Y-40941898D01*
X132065798Y-40908857D01*
X132069101Y-40910225D01*
X132269060Y-40949999D01*
X132472938Y-40949999D01*
X132672897Y-40910225D01*
X132861255Y-40832204D01*
X133030773Y-40718936D01*
X133174936Y-40574773D01*
X133288204Y-40405255D01*
X133366225Y-40216897D01*
X133405999Y-40016938D01*
X133405999Y-39954801D01*
X133851697Y-39509103D01*
X133880695Y-39485305D01*
X133975668Y-39369580D01*
X134046240Y-39237551D01*
X134089697Y-39094290D01*
X134094321Y-39047338D01*
X134209573Y-39162590D01*
X134379091Y-39275858D01*
X134567449Y-39353879D01*
X134767408Y-39393653D01*
X134971286Y-39393653D01*
X135171245Y-39353879D01*
X135359603Y-39275858D01*
X135529121Y-39162590D01*
X135673284Y-39018427D01*
X135786552Y-38848909D01*
X135864573Y-38660551D01*
X135904347Y-38460592D01*
X135904347Y-38256714D01*
X135864573Y-38056755D01*
X135786552Y-37868397D01*
X135673284Y-37698879D01*
X135529121Y-37554716D01*
X135359603Y-37441448D01*
X135171245Y-37363427D01*
X134971286Y-37323653D01*
X134909149Y-37323653D01*
X132589497Y-35004002D01*
X132565694Y-34974998D01*
X132535234Y-34950000D01*
X157074000Y-34950000D01*
X157074001Y-65634000D01*
G37*
%TD.AperFunction*%
D22*
X126948998Y-34974998D02*
X126925200Y-35003996D01*
X121663003Y-40266194D01*
X121633999Y-40289997D01*
X121578871Y-40357172D01*
X121539026Y-40405722D01*
X121478091Y-40519723D01*
X121468454Y-40537752D01*
X121424997Y-40681013D01*
X121414000Y-40792666D01*
X121414000Y-40792676D01*
X121410324Y-40829998D01*
X121414000Y-40867320D01*
X121414001Y-51112288D01*
X121370063Y-51156226D01*
X121256795Y-51325744D01*
X121178774Y-51514102D01*
X121139000Y-51714061D01*
X121139000Y-51917939D01*
X121178774Y-52117898D01*
X121256795Y-52306256D01*
X121370063Y-52475774D01*
X121514226Y-52619937D01*
X121683744Y-52733205D01*
X121872102Y-52811226D01*
X122072061Y-52851000D01*
X122275939Y-52851000D01*
X122475898Y-52811226D01*
X122664256Y-52733205D01*
X122688001Y-52717339D01*
X122688001Y-57608382D01*
X122683114Y-57658000D01*
X122702615Y-57855994D01*
X122760368Y-58046379D01*
X122854154Y-58221840D01*
X122928158Y-58312014D01*
X122980368Y-58375633D01*
X123018901Y-58407256D01*
X124600870Y-59989226D01*
X124672063Y-60095774D01*
X124816226Y-60239937D01*
X124985744Y-60353205D01*
X125174102Y-60431226D01*
X125374061Y-60471000D01*
X125577939Y-60471000D01*
X125777898Y-60431226D01*
X125966256Y-60353205D01*
X126135774Y-60239937D01*
X126279937Y-60095774D01*
X126393205Y-59926256D01*
X126471226Y-59737898D01*
X126511000Y-59537939D01*
X126511000Y-59334061D01*
X126471226Y-59134102D01*
X126393205Y-58945744D01*
X126279937Y-58776226D01*
X126135774Y-58632063D01*
X126029226Y-58560870D01*
X124708000Y-57239645D01*
X124708000Y-54968746D01*
X124793320Y-55174727D01*
X124950363Y-55409759D01*
X125150241Y-55609637D01*
X125385273Y-55766680D01*
X125646426Y-55874853D01*
X125923665Y-55930000D01*
X126206335Y-55930000D01*
X126483574Y-55874853D01*
X126744727Y-55766680D01*
X126979759Y-55609637D01*
X127179637Y-55409759D01*
X127336680Y-55174727D01*
X127444853Y-54913574D01*
X127500000Y-54636335D01*
X127500000Y-54353665D01*
X127444853Y-54076426D01*
X127336680Y-53815273D01*
X127179637Y-53580241D01*
X126979759Y-53380363D01*
X126744727Y-53223320D01*
X126483574Y-53115147D01*
X126457699Y-53110000D01*
X126483574Y-53104853D01*
X126744727Y-52996680D01*
X126979759Y-52839637D01*
X127179637Y-52639759D01*
X127336680Y-52404727D01*
X127444853Y-52143574D01*
X127500000Y-51866335D01*
X127500000Y-51583665D01*
X127444853Y-51306426D01*
X127336680Y-51045273D01*
X127179637Y-50810241D01*
X126979759Y-50610363D01*
X126744727Y-50453320D01*
X126483574Y-50345147D01*
X126457699Y-50340000D01*
X126483574Y-50334853D01*
X126744727Y-50226680D01*
X126975609Y-50072410D01*
X127491222Y-50588025D01*
X127525147Y-50758574D01*
X127633320Y-51019727D01*
X127790363Y-51254759D01*
X127990241Y-51454637D01*
X128225273Y-51611680D01*
X128486426Y-51719853D01*
X128512301Y-51725000D01*
X128486426Y-51730147D01*
X128225273Y-51838320D01*
X127990241Y-51995363D01*
X127790363Y-52195241D01*
X127633320Y-52430273D01*
X127525147Y-52691426D01*
X127470000Y-52968665D01*
X127470000Y-53251335D01*
X127525147Y-53528574D01*
X127633320Y-53789727D01*
X127790363Y-54024759D01*
X127990241Y-54224637D01*
X128225273Y-54381680D01*
X128370725Y-54441928D01*
X128105000Y-54441928D01*
X127980518Y-54454188D01*
X127860820Y-54490498D01*
X127750506Y-54549463D01*
X127653815Y-54628815D01*
X127574463Y-54725506D01*
X127515498Y-54835820D01*
X127479188Y-54955518D01*
X127466928Y-55080000D01*
X127466928Y-56680000D01*
X127479188Y-56804482D01*
X127515498Y-56924180D01*
X127574463Y-57034494D01*
X127653815Y-57131185D01*
X127750506Y-57210537D01*
X127860820Y-57269502D01*
X127980518Y-57305812D01*
X128105000Y-57318072D01*
X129705000Y-57318072D01*
X129829482Y-57305812D01*
X129949180Y-57269502D01*
X130059494Y-57210537D01*
X130156185Y-57131185D01*
X130235537Y-57034494D01*
X130294502Y-56924180D01*
X130330812Y-56804482D01*
X130343072Y-56680000D01*
X130343072Y-55080000D01*
X130330812Y-54955518D01*
X130294502Y-54835820D01*
X130235537Y-54725506D01*
X130156185Y-54628815D01*
X130059494Y-54549463D01*
X129949180Y-54490498D01*
X129829482Y-54454188D01*
X129705000Y-54441928D01*
X129439275Y-54441928D01*
X129584727Y-54381680D01*
X129819759Y-54224637D01*
X130019637Y-54024759D01*
X130176680Y-53789727D01*
X130284853Y-53528574D01*
X130340000Y-53251335D01*
X130340000Y-52968665D01*
X130284853Y-52691426D01*
X130176680Y-52430273D01*
X130019637Y-52195241D01*
X129819759Y-51995363D01*
X129584727Y-51838320D01*
X129323574Y-51730147D01*
X129297699Y-51725000D01*
X129323574Y-51719853D01*
X129584727Y-51611680D01*
X129819759Y-51454637D01*
X130019637Y-51254759D01*
X130176680Y-51019727D01*
X130284853Y-50758574D01*
X130340000Y-50481335D01*
X130340000Y-50198665D01*
X130284853Y-49921426D01*
X130176680Y-49660273D01*
X130019637Y-49425241D01*
X129819759Y-49225363D01*
X129584727Y-49068320D01*
X129323574Y-48960147D01*
X129297699Y-48955000D01*
X129323574Y-48949853D01*
X129584727Y-48841680D01*
X129819759Y-48684637D01*
X130019637Y-48484759D01*
X130176680Y-48249727D01*
X130284853Y-47988574D01*
X130340000Y-47711335D01*
X130340000Y-47428665D01*
X130284853Y-47151426D01*
X130176680Y-46890273D01*
X130019637Y-46655241D01*
X129819759Y-46455363D01*
X129584727Y-46298320D01*
X129323574Y-46190147D01*
X129297699Y-46185000D01*
X129323574Y-46179853D01*
X129584727Y-46071680D01*
X129796526Y-45930160D01*
X129814774Y-46021898D01*
X129892795Y-46210256D01*
X130006063Y-46379774D01*
X130150226Y-46523937D01*
X130319744Y-46637205D01*
X130508102Y-46715226D01*
X130708061Y-46755000D01*
X130911939Y-46755000D01*
X131111898Y-46715226D01*
X131133000Y-46706485D01*
X131133001Y-47878197D01*
X131024198Y-47987000D01*
X130962061Y-47987000D01*
X130762102Y-48026774D01*
X130573744Y-48104795D01*
X130404226Y-48218063D01*
X130260063Y-48362226D01*
X130146795Y-48531744D01*
X130068774Y-48720102D01*
X130029000Y-48920061D01*
X130029000Y-49123939D01*
X130068774Y-49323898D01*
X130146795Y-49512256D01*
X130260063Y-49681774D01*
X130404226Y-49825937D01*
X130573744Y-49939205D01*
X130762102Y-50017226D01*
X130962061Y-50057000D01*
X131165939Y-50057000D01*
X131365898Y-50017226D01*
X131554256Y-49939205D01*
X131723774Y-49825937D01*
X131867937Y-49681774D01*
X131981205Y-49512256D01*
X132059226Y-49323898D01*
X132099000Y-49123939D01*
X132099000Y-49061802D01*
X132404002Y-48756799D01*
X132433001Y-48733001D01*
X132472692Y-48684637D01*
X132520083Y-48626892D01*
X132546063Y-48665774D01*
X132690226Y-48809937D01*
X132859744Y-48923205D01*
X133048102Y-49001226D01*
X133248061Y-49041000D01*
X133451939Y-49041000D01*
X133651898Y-49001226D01*
X133840256Y-48923205D01*
X134009774Y-48809937D01*
X134153937Y-48665774D01*
X134267205Y-48496256D01*
X134345226Y-48307898D01*
X134385000Y-48107939D01*
X134385000Y-48045801D01*
X135421000Y-47009802D01*
X135421000Y-51035000D01*
X135280061Y-51035000D01*
X135080102Y-51074774D01*
X134891744Y-51152795D01*
X134722226Y-51266063D01*
X134578063Y-51410226D01*
X134464795Y-51579744D01*
X134386774Y-51768102D01*
X134347000Y-51968061D01*
X134347000Y-52171939D01*
X134386774Y-52371898D01*
X134464795Y-52560256D01*
X134497000Y-52608454D01*
X134497001Y-56783420D01*
X132850957Y-58429465D01*
X132794102Y-58440774D01*
X132605744Y-58518795D01*
X132436226Y-58632063D01*
X132292063Y-58776226D01*
X132178795Y-58945744D01*
X132100774Y-59134102D01*
X132061000Y-59334061D01*
X132061000Y-59537939D01*
X132100774Y-59737898D01*
X132178795Y-59926256D01*
X132292063Y-60095774D01*
X132436226Y-60239937D01*
X132605744Y-60353205D01*
X132794102Y-60431226D01*
X132994061Y-60471000D01*
X133197939Y-60471000D01*
X133397898Y-60431226D01*
X133586256Y-60353205D01*
X133755774Y-60239937D01*
X133899937Y-60095774D01*
X134013205Y-59926256D01*
X134091226Y-59737898D01*
X134102535Y-59681043D01*
X135420999Y-58362580D01*
X135420999Y-60891758D01*
X135417323Y-60929080D01*
X135420999Y-60966402D01*
X135420999Y-60966412D01*
X135431996Y-61078065D01*
X135472320Y-61210997D01*
X135475453Y-61221326D01*
X135546025Y-61353356D01*
X135585870Y-61401906D01*
X135640998Y-61469081D01*
X135670001Y-61492883D01*
X136410120Y-62233002D01*
X136433918Y-62262001D01*
X136549643Y-62356974D01*
X136681672Y-62427546D01*
X136824933Y-62471003D01*
X136895091Y-62477913D01*
X137022525Y-62668632D01*
X137229368Y-62875475D01*
X137405406Y-62993100D01*
X137175731Y-63164412D01*
X136980822Y-63380645D01*
X136831843Y-63630748D01*
X136734519Y-63905109D01*
X136855186Y-64135000D01*
X138049000Y-64135000D01*
X138049000Y-64115000D01*
X138303000Y-64115000D01*
X138303000Y-64135000D01*
X138323000Y-64135000D01*
X138323000Y-64389000D01*
X138303000Y-64389000D01*
X138303000Y-64409000D01*
X138049000Y-64409000D01*
X138049000Y-64389000D01*
X136855186Y-64389000D01*
X136734519Y-64618891D01*
X136831843Y-64893252D01*
X136980822Y-65143355D01*
X137175731Y-65359588D01*
X137409080Y-65533641D01*
X137619781Y-65634000D01*
X119278000Y-65634000D01*
X119278000Y-62580475D01*
X125970000Y-62580475D01*
X125970000Y-63099525D01*
X126071261Y-63608601D01*
X126269893Y-64088141D01*
X126558262Y-64519715D01*
X126925285Y-64886738D01*
X127356859Y-65175107D01*
X127836399Y-65373739D01*
X128345475Y-65475000D01*
X128864525Y-65475000D01*
X129373601Y-65373739D01*
X129853141Y-65175107D01*
X130284715Y-64886738D01*
X130651738Y-64519715D01*
X130940107Y-64088141D01*
X131138739Y-63608601D01*
X131240000Y-63099525D01*
X131240000Y-62580475D01*
X131138739Y-62071399D01*
X130940107Y-61591859D01*
X130651738Y-61160285D01*
X130284715Y-60793262D01*
X129853141Y-60504893D01*
X129373601Y-60306261D01*
X128864525Y-60205000D01*
X128345475Y-60205000D01*
X127836399Y-60306261D01*
X127356859Y-60504893D01*
X126925285Y-60793262D01*
X126558262Y-61160285D01*
X126269893Y-61591859D01*
X126071261Y-62071399D01*
X125970000Y-62580475D01*
X119278000Y-62580475D01*
X119278000Y-34950000D01*
X126979458Y-34950000D01*
X126948998Y-34974998D01*
%TA.AperFunction,Conductor*%
D23*
G36*
X126948998Y-34974998D02*
G01*
X126925200Y-35003996D01*
X121663003Y-40266194D01*
X121633999Y-40289997D01*
X121578871Y-40357172D01*
X121539026Y-40405722D01*
X121478091Y-40519723D01*
X121468454Y-40537752D01*
X121424997Y-40681013D01*
X121414000Y-40792666D01*
X121414000Y-40792676D01*
X121410324Y-40829998D01*
X121414000Y-40867320D01*
X121414001Y-51112288D01*
X121370063Y-51156226D01*
X121256795Y-51325744D01*
X121178774Y-51514102D01*
X121139000Y-51714061D01*
X121139000Y-51917939D01*
X121178774Y-52117898D01*
X121256795Y-52306256D01*
X121370063Y-52475774D01*
X121514226Y-52619937D01*
X121683744Y-52733205D01*
X121872102Y-52811226D01*
X122072061Y-52851000D01*
X122275939Y-52851000D01*
X122475898Y-52811226D01*
X122664256Y-52733205D01*
X122688001Y-52717339D01*
X122688001Y-57608382D01*
X122683114Y-57658000D01*
X122702615Y-57855994D01*
X122760368Y-58046379D01*
X122854154Y-58221840D01*
X122928158Y-58312014D01*
X122980368Y-58375633D01*
X123018901Y-58407256D01*
X124600870Y-59989226D01*
X124672063Y-60095774D01*
X124816226Y-60239937D01*
X124985744Y-60353205D01*
X125174102Y-60431226D01*
X125374061Y-60471000D01*
X125577939Y-60471000D01*
X125777898Y-60431226D01*
X125966256Y-60353205D01*
X126135774Y-60239937D01*
X126279937Y-60095774D01*
X126393205Y-59926256D01*
X126471226Y-59737898D01*
X126511000Y-59537939D01*
X126511000Y-59334061D01*
X126471226Y-59134102D01*
X126393205Y-58945744D01*
X126279937Y-58776226D01*
X126135774Y-58632063D01*
X126029226Y-58560870D01*
X124708000Y-57239645D01*
X124708000Y-54968746D01*
X124793320Y-55174727D01*
X124950363Y-55409759D01*
X125150241Y-55609637D01*
X125385273Y-55766680D01*
X125646426Y-55874853D01*
X125923665Y-55930000D01*
X126206335Y-55930000D01*
X126483574Y-55874853D01*
X126744727Y-55766680D01*
X126979759Y-55609637D01*
X127179637Y-55409759D01*
X127336680Y-55174727D01*
X127444853Y-54913574D01*
X127500000Y-54636335D01*
X127500000Y-54353665D01*
X127444853Y-54076426D01*
X127336680Y-53815273D01*
X127179637Y-53580241D01*
X126979759Y-53380363D01*
X126744727Y-53223320D01*
X126483574Y-53115147D01*
X126457699Y-53110000D01*
X126483574Y-53104853D01*
X126744727Y-52996680D01*
X126979759Y-52839637D01*
X127179637Y-52639759D01*
X127336680Y-52404727D01*
X127444853Y-52143574D01*
X127500000Y-51866335D01*
X127500000Y-51583665D01*
X127444853Y-51306426D01*
X127336680Y-51045273D01*
X127179637Y-50810241D01*
X126979759Y-50610363D01*
X126744727Y-50453320D01*
X126483574Y-50345147D01*
X126457699Y-50340000D01*
X126483574Y-50334853D01*
X126744727Y-50226680D01*
X126975609Y-50072410D01*
X127491222Y-50588025D01*
X127525147Y-50758574D01*
X127633320Y-51019727D01*
X127790363Y-51254759D01*
X127990241Y-51454637D01*
X128225273Y-51611680D01*
X128486426Y-51719853D01*
X128512301Y-51725000D01*
X128486426Y-51730147D01*
X128225273Y-51838320D01*
X127990241Y-51995363D01*
X127790363Y-52195241D01*
X127633320Y-52430273D01*
X127525147Y-52691426D01*
X127470000Y-52968665D01*
X127470000Y-53251335D01*
X127525147Y-53528574D01*
X127633320Y-53789727D01*
X127790363Y-54024759D01*
X127990241Y-54224637D01*
X128225273Y-54381680D01*
X128370725Y-54441928D01*
X128105000Y-54441928D01*
X127980518Y-54454188D01*
X127860820Y-54490498D01*
X127750506Y-54549463D01*
X127653815Y-54628815D01*
X127574463Y-54725506D01*
X127515498Y-54835820D01*
X127479188Y-54955518D01*
X127466928Y-55080000D01*
X127466928Y-56680000D01*
X127479188Y-56804482D01*
X127515498Y-56924180D01*
X127574463Y-57034494D01*
X127653815Y-57131185D01*
X127750506Y-57210537D01*
X127860820Y-57269502D01*
X127980518Y-57305812D01*
X128105000Y-57318072D01*
X129705000Y-57318072D01*
X129829482Y-57305812D01*
X129949180Y-57269502D01*
X130059494Y-57210537D01*
X130156185Y-57131185D01*
X130235537Y-57034494D01*
X130294502Y-56924180D01*
X130330812Y-56804482D01*
X130343072Y-56680000D01*
X130343072Y-55080000D01*
X130330812Y-54955518D01*
X130294502Y-54835820D01*
X130235537Y-54725506D01*
X130156185Y-54628815D01*
X130059494Y-54549463D01*
X129949180Y-54490498D01*
X129829482Y-54454188D01*
X129705000Y-54441928D01*
X129439275Y-54441928D01*
X129584727Y-54381680D01*
X129819759Y-54224637D01*
X130019637Y-54024759D01*
X130176680Y-53789727D01*
X130284853Y-53528574D01*
X130340000Y-53251335D01*
X130340000Y-52968665D01*
X130284853Y-52691426D01*
X130176680Y-52430273D01*
X130019637Y-52195241D01*
X129819759Y-51995363D01*
X129584727Y-51838320D01*
X129323574Y-51730147D01*
X129297699Y-51725000D01*
X129323574Y-51719853D01*
X129584727Y-51611680D01*
X129819759Y-51454637D01*
X130019637Y-51254759D01*
X130176680Y-51019727D01*
X130284853Y-50758574D01*
X130340000Y-50481335D01*
X130340000Y-50198665D01*
X130284853Y-49921426D01*
X130176680Y-49660273D01*
X130019637Y-49425241D01*
X129819759Y-49225363D01*
X129584727Y-49068320D01*
X129323574Y-48960147D01*
X129297699Y-48955000D01*
X129323574Y-48949853D01*
X129584727Y-48841680D01*
X129819759Y-48684637D01*
X130019637Y-48484759D01*
X130176680Y-48249727D01*
X130284853Y-47988574D01*
X130340000Y-47711335D01*
X130340000Y-47428665D01*
X130284853Y-47151426D01*
X130176680Y-46890273D01*
X130019637Y-46655241D01*
X129819759Y-46455363D01*
X129584727Y-46298320D01*
X129323574Y-46190147D01*
X129297699Y-46185000D01*
X129323574Y-46179853D01*
X129584727Y-46071680D01*
X129796526Y-45930160D01*
X129814774Y-46021898D01*
X129892795Y-46210256D01*
X130006063Y-46379774D01*
X130150226Y-46523937D01*
X130319744Y-46637205D01*
X130508102Y-46715226D01*
X130708061Y-46755000D01*
X130911939Y-46755000D01*
X131111898Y-46715226D01*
X131133000Y-46706485D01*
X131133001Y-47878197D01*
X131024198Y-47987000D01*
X130962061Y-47987000D01*
X130762102Y-48026774D01*
X130573744Y-48104795D01*
X130404226Y-48218063D01*
X130260063Y-48362226D01*
X130146795Y-48531744D01*
X130068774Y-48720102D01*
X130029000Y-48920061D01*
X130029000Y-49123939D01*
X130068774Y-49323898D01*
X130146795Y-49512256D01*
X130260063Y-49681774D01*
X130404226Y-49825937D01*
X130573744Y-49939205D01*
X130762102Y-50017226D01*
X130962061Y-50057000D01*
X131165939Y-50057000D01*
X131365898Y-50017226D01*
X131554256Y-49939205D01*
X131723774Y-49825937D01*
X131867937Y-49681774D01*
X131981205Y-49512256D01*
X132059226Y-49323898D01*
X132099000Y-49123939D01*
X132099000Y-49061802D01*
X132404002Y-48756799D01*
X132433001Y-48733001D01*
X132472692Y-48684637D01*
X132520083Y-48626892D01*
X132546063Y-48665774D01*
X132690226Y-48809937D01*
X132859744Y-48923205D01*
X133048102Y-49001226D01*
X133248061Y-49041000D01*
X133451939Y-49041000D01*
X133651898Y-49001226D01*
X133840256Y-48923205D01*
X134009774Y-48809937D01*
X134153937Y-48665774D01*
X134267205Y-48496256D01*
X134345226Y-48307898D01*
X134385000Y-48107939D01*
X134385000Y-48045801D01*
X135421000Y-47009802D01*
X135421000Y-51035000D01*
X135280061Y-51035000D01*
X135080102Y-51074774D01*
X134891744Y-51152795D01*
X134722226Y-51266063D01*
X134578063Y-51410226D01*
X134464795Y-51579744D01*
X134386774Y-51768102D01*
X134347000Y-51968061D01*
X134347000Y-52171939D01*
X134386774Y-52371898D01*
X134464795Y-52560256D01*
X134497000Y-52608454D01*
X134497001Y-56783420D01*
X132850957Y-58429465D01*
X132794102Y-58440774D01*
X132605744Y-58518795D01*
X132436226Y-58632063D01*
X132292063Y-58776226D01*
X132178795Y-58945744D01*
X132100774Y-59134102D01*
X132061000Y-59334061D01*
X132061000Y-59537939D01*
X132100774Y-59737898D01*
X132178795Y-59926256D01*
X132292063Y-60095774D01*
X132436226Y-60239937D01*
X132605744Y-60353205D01*
X132794102Y-60431226D01*
X132994061Y-60471000D01*
X133197939Y-60471000D01*
X133397898Y-60431226D01*
X133586256Y-60353205D01*
X133755774Y-60239937D01*
X133899937Y-60095774D01*
X134013205Y-59926256D01*
X134091226Y-59737898D01*
X134102535Y-59681043D01*
X135420999Y-58362580D01*
X135420999Y-60891758D01*
X135417323Y-60929080D01*
X135420999Y-60966402D01*
X135420999Y-60966412D01*
X135431996Y-61078065D01*
X135472320Y-61210997D01*
X135475453Y-61221326D01*
X135546025Y-61353356D01*
X135585870Y-61401906D01*
X135640998Y-61469081D01*
X135670001Y-61492883D01*
X136410120Y-62233002D01*
X136433918Y-62262001D01*
X136549643Y-62356974D01*
X136681672Y-62427546D01*
X136824933Y-62471003D01*
X136895091Y-62477913D01*
X137022525Y-62668632D01*
X137229368Y-62875475D01*
X137405406Y-62993100D01*
X137175731Y-63164412D01*
X136980822Y-63380645D01*
X136831843Y-63630748D01*
X136734519Y-63905109D01*
X136855186Y-64135000D01*
X138049000Y-64135000D01*
X138049000Y-64115000D01*
X138303000Y-64115000D01*
X138303000Y-64135000D01*
X138323000Y-64135000D01*
X138323000Y-64389000D01*
X138303000Y-64389000D01*
X138303000Y-64409000D01*
X138049000Y-64409000D01*
X138049000Y-64389000D01*
X136855186Y-64389000D01*
X136734519Y-64618891D01*
X136831843Y-64893252D01*
X136980822Y-65143355D01*
X137175731Y-65359588D01*
X137409080Y-65533641D01*
X137619781Y-65634000D01*
X119278000Y-65634000D01*
X119278000Y-62580475D01*
X125970000Y-62580475D01*
X125970000Y-63099525D01*
X126071261Y-63608601D01*
X126269893Y-64088141D01*
X126558262Y-64519715D01*
X126925285Y-64886738D01*
X127356859Y-65175107D01*
X127836399Y-65373739D01*
X128345475Y-65475000D01*
X128864525Y-65475000D01*
X129373601Y-65373739D01*
X129853141Y-65175107D01*
X130284715Y-64886738D01*
X130651738Y-64519715D01*
X130940107Y-64088141D01*
X131138739Y-63608601D01*
X131240000Y-63099525D01*
X131240000Y-62580475D01*
X131138739Y-62071399D01*
X130940107Y-61591859D01*
X130651738Y-61160285D01*
X130284715Y-60793262D01*
X129853141Y-60504893D01*
X129373601Y-60306261D01*
X128864525Y-60205000D01*
X128345475Y-60205000D01*
X127836399Y-60306261D01*
X127356859Y-60504893D01*
X126925285Y-60793262D01*
X126558262Y-61160285D01*
X126269893Y-61591859D01*
X126071261Y-62071399D01*
X125970000Y-62580475D01*
X119278000Y-62580475D01*
X119278000Y-34950000D01*
X126979458Y-34950000D01*
X126948998Y-34974998D01*
G37*
%TD.AperFunction*%
D22*
X126071261Y-38608601D02*
X126269893Y-39088141D01*
X126558262Y-39519715D01*
X126925285Y-39886738D01*
X127270315Y-40117280D01*
X127230818Y-40315845D01*
X127230818Y-40377982D01*
X126679003Y-40929797D01*
X126650000Y-40953600D01*
X126617834Y-40992795D01*
X126555027Y-41069325D01*
X126520426Y-41134059D01*
X126484455Y-41201355D01*
X126440998Y-41344616D01*
X126430001Y-41456269D01*
X126430001Y-41456279D01*
X126426325Y-41493601D01*
X126430001Y-41530923D01*
X126430001Y-44797098D01*
X126276816Y-44758700D01*
X125994488Y-44744783D01*
X125714870Y-44786213D01*
X125448708Y-44881397D01*
X125323486Y-44948329D01*
X125251903Y-45192298D01*
X126065000Y-46005395D01*
X126079143Y-45991253D01*
X126258748Y-46170858D01*
X126244605Y-46185000D01*
X126258748Y-46199143D01*
X126079143Y-46378748D01*
X126065000Y-46364605D01*
X125251903Y-47177702D01*
X125323486Y-47421671D01*
X125578996Y-47542571D01*
X125681289Y-47568212D01*
X125646426Y-47575147D01*
X125385273Y-47683320D01*
X125150241Y-47840363D01*
X124950363Y-48040241D01*
X124793320Y-48275273D01*
X124708000Y-48481254D01*
X124708000Y-46651979D01*
X124761397Y-46801292D01*
X124828329Y-46926514D01*
X125072298Y-46998097D01*
X125885395Y-46185000D01*
X125072298Y-45371903D01*
X124828329Y-45443486D01*
X124707429Y-45698996D01*
X124702493Y-45718689D01*
X124693226Y-45672102D01*
X124615205Y-45483744D01*
X124501937Y-45314226D01*
X124357774Y-45170063D01*
X124188256Y-45056795D01*
X123999898Y-44978774D01*
X123799939Y-44939000D01*
X123596061Y-44939000D01*
X123396102Y-44978774D01*
X123207744Y-45056795D01*
X123038226Y-45170063D01*
X122934000Y-45274289D01*
X122934000Y-41144799D01*
X125971539Y-38107261D01*
X126071261Y-38608601D01*
%TA.AperFunction,Conductor*%
D23*
G36*
X126071261Y-38608601D02*
G01*
X126269893Y-39088141D01*
X126558262Y-39519715D01*
X126925285Y-39886738D01*
X127270315Y-40117280D01*
X127230818Y-40315845D01*
X127230818Y-40377982D01*
X126679003Y-40929797D01*
X126650000Y-40953600D01*
X126617834Y-40992795D01*
X126555027Y-41069325D01*
X126520426Y-41134059D01*
X126484455Y-41201355D01*
X126440998Y-41344616D01*
X126430001Y-41456269D01*
X126430001Y-41456279D01*
X126426325Y-41493601D01*
X126430001Y-41530923D01*
X126430001Y-44797098D01*
X126276816Y-44758700D01*
X125994488Y-44744783D01*
X125714870Y-44786213D01*
X125448708Y-44881397D01*
X125323486Y-44948329D01*
X125251903Y-45192298D01*
X126065000Y-46005395D01*
X126079143Y-45991253D01*
X126258748Y-46170858D01*
X126244605Y-46185000D01*
X126258748Y-46199143D01*
X126079143Y-46378748D01*
X126065000Y-46364605D01*
X125251903Y-47177702D01*
X125323486Y-47421671D01*
X125578996Y-47542571D01*
X125681289Y-47568212D01*
X125646426Y-47575147D01*
X125385273Y-47683320D01*
X125150241Y-47840363D01*
X124950363Y-48040241D01*
X124793320Y-48275273D01*
X124708000Y-48481254D01*
X124708000Y-46651979D01*
X124761397Y-46801292D01*
X124828329Y-46926514D01*
X125072298Y-46998097D01*
X125885395Y-46185000D01*
X125072298Y-45371903D01*
X124828329Y-45443486D01*
X124707429Y-45698996D01*
X124702493Y-45718689D01*
X124693226Y-45672102D01*
X124615205Y-45483744D01*
X124501937Y-45314226D01*
X124357774Y-45170063D01*
X124188256Y-45056795D01*
X123999898Y-44978774D01*
X123799939Y-44939000D01*
X123596061Y-44939000D01*
X123396102Y-44978774D01*
X123207744Y-45056795D01*
X123038226Y-45170063D01*
X122934000Y-45274289D01*
X122934000Y-41144799D01*
X125971539Y-38107261D01*
X126071261Y-38608601D01*
G37*
%TD.AperFunction*%
D22*
X142914429Y-45345996D02*
X142845700Y-45620184D01*
X142831783Y-45902512D01*
X142873213Y-46182130D01*
X142968397Y-46448292D01*
X143035329Y-46573514D01*
X143279298Y-46645097D01*
X144092395Y-45832000D01*
X144078253Y-45817858D01*
X144257858Y-45638253D01*
X144272000Y-45652395D01*
X144286143Y-45638253D01*
X144465748Y-45817858D01*
X144451605Y-45832000D01*
X144465748Y-45846143D01*
X144286143Y-46025748D01*
X144272000Y-46011605D01*
X143458903Y-46824702D01*
X143530486Y-47068671D01*
X143559341Y-47082324D01*
X143445711Y-47158249D01*
X143428519Y-47116744D01*
X143315251Y-46947226D01*
X143171088Y-46803063D01*
X143001570Y-46689795D01*
X142813212Y-46611774D01*
X142613253Y-46572000D01*
X142409375Y-46572000D01*
X142209416Y-46611774D01*
X142021058Y-46689795D01*
X141851540Y-46803063D01*
X141707377Y-46947226D01*
X141594109Y-47116744D01*
X141516088Y-47305102D01*
X141476314Y-47505061D01*
X141476314Y-47708939D01*
X141516088Y-47908898D01*
X141527307Y-47935984D01*
X141392218Y-47909113D01*
X141188340Y-47909113D01*
X140988381Y-47948887D01*
X140800023Y-48026908D01*
X140630505Y-48140176D01*
X140486342Y-48284339D01*
X140460000Y-48323763D01*
X140460000Y-46931711D01*
X140503937Y-46887774D01*
X140617205Y-46718256D01*
X140695226Y-46529898D01*
X140735000Y-46329939D01*
X140735000Y-46126061D01*
X140695226Y-45926102D01*
X140617205Y-45737744D01*
X140503937Y-45568226D01*
X140420711Y-45485000D01*
X140563939Y-45485000D01*
X140763898Y-45445226D01*
X140952256Y-45367205D01*
X141121774Y-45253937D01*
X141165711Y-45210000D01*
X142978778Y-45210000D01*
X142914429Y-45345996D01*
%TA.AperFunction,Conductor*%
D23*
G36*
X142914429Y-45345996D02*
G01*
X142845700Y-45620184D01*
X142831783Y-45902512D01*
X142873213Y-46182130D01*
X142968397Y-46448292D01*
X143035329Y-46573514D01*
X143279298Y-46645097D01*
X144092395Y-45832000D01*
X144078253Y-45817858D01*
X144257858Y-45638253D01*
X144272000Y-45652395D01*
X144286143Y-45638253D01*
X144465748Y-45817858D01*
X144451605Y-45832000D01*
X144465748Y-45846143D01*
X144286143Y-46025748D01*
X144272000Y-46011605D01*
X143458903Y-46824702D01*
X143530486Y-47068671D01*
X143559341Y-47082324D01*
X143445711Y-47158249D01*
X143428519Y-47116744D01*
X143315251Y-46947226D01*
X143171088Y-46803063D01*
X143001570Y-46689795D01*
X142813212Y-46611774D01*
X142613253Y-46572000D01*
X142409375Y-46572000D01*
X142209416Y-46611774D01*
X142021058Y-46689795D01*
X141851540Y-46803063D01*
X141707377Y-46947226D01*
X141594109Y-47116744D01*
X141516088Y-47305102D01*
X141476314Y-47505061D01*
X141476314Y-47708939D01*
X141516088Y-47908898D01*
X141527307Y-47935984D01*
X141392218Y-47909113D01*
X141188340Y-47909113D01*
X140988381Y-47948887D01*
X140800023Y-48026908D01*
X140630505Y-48140176D01*
X140486342Y-48284339D01*
X140460000Y-48323763D01*
X140460000Y-46931711D01*
X140503937Y-46887774D01*
X140617205Y-46718256D01*
X140695226Y-46529898D01*
X140735000Y-46329939D01*
X140735000Y-46126061D01*
X140695226Y-45926102D01*
X140617205Y-45737744D01*
X140503937Y-45568226D01*
X140420711Y-45485000D01*
X140563939Y-45485000D01*
X140763898Y-45445226D01*
X140952256Y-45367205D01*
X141121774Y-45253937D01*
X141165711Y-45210000D01*
X142978778Y-45210000D01*
X142914429Y-45345996D01*
G37*
%TD.AperFunction*%
%TD*%
M02*
