%TF.GenerationSoftware,KiCad,Pcbnew,(5.1.10)-1*%
%TF.CreationDate,2021-11-06T11:37:03+01:00*%
%TF.ProjectId,msx-mouse-adapter,6d73782d-6d6f-4757-9365-2d6164617074,rev?*%
%TF.SameCoordinates,Original*%
%TF.FileFunction,Paste,Bot*%
%TF.FilePolarity,Positive*%
%FSLAX46Y46*%
G04 Gerber Fmt 4.6, Leading zero omitted, Abs format (unit mm)*
G04 Created by KiCad (PCBNEW (5.1.10)-1) date 2021-11-06 11:37:03*
%MOMM*%
%LPD*%
G01*
G04 APERTURE LIST*
%ADD10R,0.550000X1.600000*%
%ADD11R,1.600000X0.550000*%
%ADD12R,2.100000X1.700000*%
G04 APERTURE END LIST*
D10*
%TO.C,U1*%
X134868000Y-39692000D03*
X135668000Y-39692000D03*
X136468000Y-39692000D03*
X137268000Y-39692000D03*
X138068000Y-39692000D03*
X138868000Y-39692000D03*
X139668000Y-39692000D03*
X140468000Y-39692000D03*
D11*
X141918000Y-41142000D03*
X141918000Y-41942000D03*
X141918000Y-42742000D03*
X141918000Y-43542000D03*
X141918000Y-44342000D03*
X141918000Y-45142000D03*
X141918000Y-45942000D03*
X141918000Y-46742000D03*
D10*
X140468000Y-48192000D03*
X139668000Y-48192000D03*
X138868000Y-48192000D03*
X138068000Y-48192000D03*
X137268000Y-48192000D03*
X136468000Y-48192000D03*
X135668000Y-48192000D03*
X134868000Y-48192000D03*
D11*
X133418000Y-46742000D03*
X133418000Y-45942000D03*
X133418000Y-45142000D03*
X133418000Y-44342000D03*
X133418000Y-43542000D03*
X133418000Y-42742000D03*
X133418000Y-41942000D03*
X133418000Y-41142000D03*
%TD*%
%TO.C,C4*%
G36*
G01*
X135991000Y-49817000D02*
X135991000Y-50767000D01*
G75*
G02*
X135741000Y-51017000I-250000J0D01*
G01*
X135066000Y-51017000D01*
G75*
G02*
X134816000Y-50767000I0J250000D01*
G01*
X134816000Y-49817000D01*
G75*
G02*
X135066000Y-49567000I250000J0D01*
G01*
X135741000Y-49567000D01*
G75*
G02*
X135991000Y-49817000I0J-250000D01*
G01*
G37*
G36*
G01*
X133916000Y-49817000D02*
X133916000Y-50767000D01*
G75*
G02*
X133666000Y-51017000I-250000J0D01*
G01*
X132991000Y-51017000D01*
G75*
G02*
X132741000Y-50767000I0J250000D01*
G01*
X132741000Y-49817000D01*
G75*
G02*
X132991000Y-49567000I250000J0D01*
G01*
X133666000Y-49567000D01*
G75*
G02*
X133916000Y-49817000I0J-250000D01*
G01*
G37*
%TD*%
D12*
%TO.C,Y1*%
X149352000Y-49530000D03*
X155252000Y-49530000D03*
X155252000Y-52230000D03*
X149352000Y-52230000D03*
%TD*%
%TO.C,C1*%
G36*
G01*
X136551000Y-50767000D02*
X136551000Y-49817000D01*
G75*
G02*
X136801000Y-49567000I250000J0D01*
G01*
X137476000Y-49567000D01*
G75*
G02*
X137726000Y-49817000I0J-250000D01*
G01*
X137726000Y-50767000D01*
G75*
G02*
X137476000Y-51017000I-250000J0D01*
G01*
X136801000Y-51017000D01*
G75*
G02*
X136551000Y-50767000I0J250000D01*
G01*
G37*
G36*
G01*
X138626000Y-50767000D02*
X138626000Y-49817000D01*
G75*
G02*
X138876000Y-49567000I250000J0D01*
G01*
X139551000Y-49567000D01*
G75*
G02*
X139801000Y-49817000I0J-250000D01*
G01*
X139801000Y-50767000D01*
G75*
G02*
X139551000Y-51017000I-250000J0D01*
G01*
X138876000Y-51017000D01*
G75*
G02*
X138626000Y-50767000I0J250000D01*
G01*
G37*
%TD*%
%TO.C,C2*%
G36*
G01*
X150310000Y-47465000D02*
X150310000Y-46515000D01*
G75*
G02*
X150560000Y-46265000I250000J0D01*
G01*
X151235000Y-46265000D01*
G75*
G02*
X151485000Y-46515000I0J-250000D01*
G01*
X151485000Y-47465000D01*
G75*
G02*
X151235000Y-47715000I-250000J0D01*
G01*
X150560000Y-47715000D01*
G75*
G02*
X150310000Y-47465000I0J250000D01*
G01*
G37*
G36*
G01*
X148235000Y-47465000D02*
X148235000Y-46515000D01*
G75*
G02*
X148485000Y-46265000I250000J0D01*
G01*
X149160000Y-46265000D01*
G75*
G02*
X149410000Y-46515000I0J-250000D01*
G01*
X149410000Y-47465000D01*
G75*
G02*
X149160000Y-47715000I-250000J0D01*
G01*
X148485000Y-47715000D01*
G75*
G02*
X148235000Y-47465000I0J250000D01*
G01*
G37*
%TD*%
%TO.C,C3*%
G36*
G01*
X156311000Y-46515000D02*
X156311000Y-47465000D01*
G75*
G02*
X156061000Y-47715000I-250000J0D01*
G01*
X155386000Y-47715000D01*
G75*
G02*
X155136000Y-47465000I0J250000D01*
G01*
X155136000Y-46515000D01*
G75*
G02*
X155386000Y-46265000I250000J0D01*
G01*
X156061000Y-46265000D01*
G75*
G02*
X156311000Y-46515000I0J-250000D01*
G01*
G37*
G36*
G01*
X154236000Y-46515000D02*
X154236000Y-47465000D01*
G75*
G02*
X153986000Y-47715000I-250000J0D01*
G01*
X153311000Y-47715000D01*
G75*
G02*
X153061000Y-47465000I0J250000D01*
G01*
X153061000Y-46515000D01*
G75*
G02*
X153311000Y-46265000I250000J0D01*
G01*
X153986000Y-46265000D01*
G75*
G02*
X154236000Y-46515000I0J-250000D01*
G01*
G37*
%TD*%
%TO.C,C5*%
G36*
G01*
X127566000Y-41435000D02*
X127566000Y-42385000D01*
G75*
G02*
X127316000Y-42635000I-250000J0D01*
G01*
X126641000Y-42635000D01*
G75*
G02*
X126391000Y-42385000I0J250000D01*
G01*
X126391000Y-41435000D01*
G75*
G02*
X126641000Y-41185000I250000J0D01*
G01*
X127316000Y-41185000D01*
G75*
G02*
X127566000Y-41435000I0J-250000D01*
G01*
G37*
G36*
G01*
X129641000Y-41435000D02*
X129641000Y-42385000D01*
G75*
G02*
X129391000Y-42635000I-250000J0D01*
G01*
X128716000Y-42635000D01*
G75*
G02*
X128466000Y-42385000I0J250000D01*
G01*
X128466000Y-41435000D01*
G75*
G02*
X128716000Y-41185000I250000J0D01*
G01*
X129391000Y-41185000D01*
G75*
G02*
X129641000Y-41435000I0J-250000D01*
G01*
G37*
%TD*%
%TO.C,R1*%
G36*
G01*
X130613999Y-41072000D02*
X131514001Y-41072000D01*
G75*
G02*
X131764000Y-41321999I0J-249999D01*
G01*
X131764000Y-42022001D01*
G75*
G02*
X131514001Y-42272000I-249999J0D01*
G01*
X130613999Y-42272000D01*
G75*
G02*
X130364000Y-42022001I0J249999D01*
G01*
X130364000Y-41321999D01*
G75*
G02*
X130613999Y-41072000I249999J0D01*
G01*
G37*
G36*
G01*
X130613999Y-43072000D02*
X131514001Y-43072000D01*
G75*
G02*
X131764000Y-43321999I0J-249999D01*
G01*
X131764000Y-44022001D01*
G75*
G02*
X131514001Y-44272000I-249999J0D01*
G01*
X130613999Y-44272000D01*
G75*
G02*
X130364000Y-44022001I0J249999D01*
G01*
X130364000Y-43321999D01*
G75*
G02*
X130613999Y-43072000I249999J0D01*
G01*
G37*
%TD*%
%TO.C,R2*%
G36*
G01*
X140608000Y-36010001D02*
X140608000Y-35109999D01*
G75*
G02*
X140857999Y-34860000I249999J0D01*
G01*
X141558001Y-34860000D01*
G75*
G02*
X141808000Y-35109999I0J-249999D01*
G01*
X141808000Y-36010001D01*
G75*
G02*
X141558001Y-36260000I-249999J0D01*
G01*
X140857999Y-36260000D01*
G75*
G02*
X140608000Y-36010001I0J249999D01*
G01*
G37*
G36*
G01*
X138608000Y-36010001D02*
X138608000Y-35109999D01*
G75*
G02*
X138857999Y-34860000I249999J0D01*
G01*
X139558001Y-34860000D01*
G75*
G02*
X139808000Y-35109999I0J-249999D01*
G01*
X139808000Y-36010001D01*
G75*
G02*
X139558001Y-36260000I-249999J0D01*
G01*
X138857999Y-36260000D01*
G75*
G02*
X138608000Y-36010001I0J249999D01*
G01*
G37*
%TD*%
%TO.C,D1*%
G36*
G01*
X134798000Y-36010001D02*
X134798000Y-35109999D01*
G75*
G02*
X135047999Y-34860000I249999J0D01*
G01*
X135698001Y-34860000D01*
G75*
G02*
X135948000Y-35109999I0J-249999D01*
G01*
X135948000Y-36010001D01*
G75*
G02*
X135698001Y-36260000I-249999J0D01*
G01*
X135047999Y-36260000D01*
G75*
G02*
X134798000Y-36010001I0J249999D01*
G01*
G37*
G36*
G01*
X136848000Y-36010001D02*
X136848000Y-35109999D01*
G75*
G02*
X137097999Y-34860000I249999J0D01*
G01*
X137748001Y-34860000D01*
G75*
G02*
X137998000Y-35109999I0J-249999D01*
G01*
X137998000Y-36010001D01*
G75*
G02*
X137748001Y-36260000I-249999J0D01*
G01*
X137097999Y-36260000D01*
G75*
G02*
X136848000Y-36010001I0J249999D01*
G01*
G37*
%TD*%
M02*
