M48
; DRILL file {KiCad (5.1.10)-1} date 11/06/21 11:37:06
; FORMAT={-:-/ absolute / inch / decimal}
; #@! TF.CreationDate,2021-11-06T11:37:06+01:00
; #@! TF.GenerationSoftware,Kicad,Pcbnew,(5.1.10)-1
; #@! TF.FileFunction,Plated,1,2,PTH
FMAT,2
INCH
T1C0.0157
T2C0.0374
T3C0.0394
T4C0.0906
T5C0.1260
%
G90
G05
T1
X4.81Y-2.04
X4.87Y-1.81
X4.94Y-2.34
X5.0498Y-1.5913
X5.15Y-1.8
X5.16Y-1.6
X5.16Y-1.93
X5.19Y-1.45
X5.2115Y-1.5715
X5.24Y-2.34
X5.2496Y-1.4904
X5.25Y-1.89
X5.25Y-2.05
X5.28Y-1.4
X5.3098Y-1.5102
X5.32Y-1.72
X5.33Y-1.81
X5.33Y-2.05
X5.37Y-1.5
X5.39Y-2.14
X5.39Y-2.34
X5.4Y-1.77
X5.4Y-2.08
X5.4087Y-1.7143
X5.43Y-1.5
X5.47Y-1.62
X5.48Y-2.05
X5.5Y-1.82
X5.52Y-1.65
X5.53Y-1.75
X5.535Y-1.955
X5.5615Y-2.3016
X5.5626Y-1.9269
X5.5921Y-1.953
X5.6107Y-1.8743
X5.66Y-1.73
X5.6961Y-2.2661
X5.7Y-1.48
X5.74Y-2.12
X5.83Y-1.51
X5.86Y-1.79
X6.01Y-2.37
X6.13Y-1.6
X6.13Y-1.8
T2
X5.68Y-1.8044
X5.68Y-1.9028
X5.68Y-1.9816
X5.68Y-2.08
T3
X4.9632Y-1.8183
X4.9632Y-1.9274
X4.9632Y-2.0364
X4.9632Y-2.1455
X5.075Y-1.7638
X5.075Y-1.8728
X5.075Y-1.9819
X5.075Y-2.0909
X5.075Y-2.2
X5.44Y-2.43
X5.44Y-2.53
X5.54Y-2.43
X5.54Y-2.53
X5.64Y-2.43
X5.64Y-2.53
T4
X5.7867Y-1.6835
X5.7867Y-2.2009
T5
X5.0632Y-1.4898
X5.0632Y-2.474
T0
M30
